<?xml version="1.0" encoding="utf-8"?>
<!-- Generator: Adobe Illustrator 23.0.3, SVG Export Plug-In . SVG Version: 6.00 Build 0)  -->
<svg version="1.1" id="Layer_1" xmlns="http://www.w3.org/2000/svg" xmlns:xlink="http://www.w3.org/1999/xlink" x="0px" y="0px"
	 viewBox="0 0 956 469" style="enable-background:new 0 0 956 469;" xml:space="preserve">
<style type="text/css">
	.st0{fill:none;}
	.st1{fill:#8A8A8E;}
	.st2{fill:#F68F1E;}
	.st3{fill:#FFFFFF;}
	.st4{fill-rule:evenodd;clip-rule:evenodd;fill:#F68F1E;stroke:#F68F1E;}
	.st5{fill-rule:evenodd;clip-rule:evenodd;fill:#F68F1E;}
</style>
<title>Asset 12</title>
<rect y="0" class="st0" width="956" height="469"/>
<g>
	<path id="path2325" class="st1" d="M378.3,338.5c-3.6-0.9-7.5-3-10.2-5.6c-1.3-1.3-3-3.4-3.7-4.7s-1.4-3.8-1.6-5.5l-0.4-3.1l6.3,0
		l6.3,0l1.6,3.3c1.3,2.6,2.2,3.6,4.4,4.8c2,1,3.9,1.4,6.8,1.4c5.8,0,9.4-1.1,11.3-3.4c1.3-1.5,1.6-2.4,1.3-4.1
		c-0.2-1.2-0.7-2.6-1.2-3.1c-0.5-0.5-2-1.5-3.4-2.2s-6.3-2-10.9-3c-4.5-1-9.4-2.3-10.7-2.9c-4.1-1.7-6.9-4.1-8.7-7.2
		c-1.3-2.4-1.7-3.9-1.7-7.3c0-2.9,0.4-4.9,1.2-6.6c0.7-1.3,2-3.1,3-4s3-2.3,4.6-3.1c3.5-1.7,10.1-3.2,14.7-3.2c2,0,5.1,0.3,6.9,0.6
		c1.9,0.4,4.8,1.3,6.6,2.1c1.8,0.8,4.2,2.5,5.4,3.6c2.4,2.3,5.1,7.7,5.1,9.9l0,1.4l-6.5,0l-6.5,0l-1.3-2.4c-0.8-1.5-2.2-2.9-3.8-3.6
		c-1.8-0.9-3.7-1.2-6.7-1.2c-2.3,0-5.2,0.5-6.5,1.1c-1.3,0.6-2.7,1.7-3.1,2.6c-0.4,0.9-0.5,2.3-0.3,3.2s1.3,2.2,2.3,3
		c1.1,0.7,5,2.1,8.7,3c11.7,2.7,17,4.5,19.9,6.7c1.5,1.1,3.4,3.3,4.2,4.9c1.1,2.1,1.4,3.9,1.4,7c0,3.3-0.4,4.9-1.7,7.6
		c-1,2.1-2.8,4.2-4.4,5.4c-1.5,1.1-4.3,2.7-6.3,3.4c-3,1.2-5.1,1.5-11.9,1.6C384.4,339,379.6,338.8,378.3,338.5z"/>
	<path id="path2323" class="st1" d="M472.4,279.1c-4,0-8,0.8-11.4,2.4c-2.2,1-5.5,3.4-7.5,5.2c-2.1,2-4.3,4.8-5.4,7.1
		c-1,2.1-2.3,6-2.9,8.6c-0.7,3.3-0.9,6.3-0.6,9.6c0.2,2.7,1,6.7,1.6,8.9s2.3,5.6,3.6,7.5c1.3,1.9,3.8,4.5,5.5,5.8
		c1.7,1.3,4.9,3,7,3.6c3.1,1,5.2,1.2,11.1,1.1l7.3-0.2l4.3-2.1c2.3-1.1,5.5-3.4,7.1-4.9c2.9-2.9,6.1-8.7,6.1-11v-1.3l-5.9,0l-5.9,0
		l-1.9,3.3c-1.3,2.2-2.7,3.7-4.4,4.6c-3.1,1.6-9.5,2.1-12.7,1c-1.3-0.4-3.3-1.6-4.5-2.7c-1.2-1.1-2.8-3.1-3.5-4.4
		c-0.7-1.4-1.4-3.9-1.6-5.6l-0.4-3.1h21h21v-4.3c0-2.4-0.4-5.9-1-7.9s-1.7-5.1-2.6-6.9s-2.9-4.6-4.4-6.2c-1.5-1.7-4.5-3.9-6.5-4.9
		c-2-1.1-5.3-2.3-7.4-2.7C475.9,279.2,474.2,279.1,472.4,279.1z M472.4,289.3c0.9,0,1.8,0.1,2.8,0.4c1.4,0.4,3.6,1.3,4.7,2.1
		c1.2,0.8,2.9,2.7,3.9,4.3c1,1.6,1.9,4,2.2,5.5l0.4,2.7H472h-14.3v-1.8c0-1,0.7-3.3,1.7-5.1c1-2,2.7-4.1,4.2-5.1
		c1.4-1,4-2.2,5.8-2.6C470.5,289.4,471.5,289.3,472.4,289.3z"/>
	<path id="path2319" class="st1" d="M574.1,338c-2-0.7-4.8-1.9-6.1-2.8c-2.8-1.8-5.3-4.9-6.6-8c-0.5-1.2-1.1-3.4-1.3-4.9l-0.4-2.7
		h6.6h6.6l0.4,2.1c0.2,1.2,1.3,2.9,2.4,4c1.1,1.1,3,2.3,4.2,2.7c2.7,0.9,9.1,0.9,12.3,0c1.4-0.4,3.1-1.4,4-2.2
		c1.1-1.1,1.5-2.2,1.5-3.9c0-1.8-0.4-2.9-1.7-4.1c-1-0.9-2.5-2-3.5-2.3c-1-0.4-5.7-1.6-10.5-2.6c-4.8-1.1-10.2-2.7-12-3.5
		c-1.8-0.9-4.3-2.7-5.5-4.1c-2.6-3.1-3.9-7.8-3.3-12.1c0.2-1.6,1.3-4.2,2.5-5.9c1.5-2.3,3-3.5,6.1-5.1c3-1.5,5.7-2.3,9.7-2.8
		c4.2-0.6,6.8-0.6,10.6,0c2.9,0.4,6.5,1.5,8.5,2.5c1.9,1,4.4,2.7,5.4,3.8c2.2,2.5,4.1,6.1,4.7,8.9l0.4,2.1h-7h-7l-0.4-1.5
		c-0.2-0.8-1.1-2.2-2-3.1c-1.1-1.1-2.9-1.9-5.2-2.4c-2.6-0.5-4.4-0.6-7,0c-1.9,0.4-4.2,1.3-5,2.1c-1.9,1.8-1.9,4.9,0,6.7
		c0.8,0.7,2.1,1.6,2.8,2c0.8,0.4,5.3,1.6,10.1,2.7c4.8,1.1,10.4,2.7,12.4,3.6c2.1,0.9,4.7,2.8,6.1,4.3c1.4,1.6,2.8,3.9,3.2,5.5
		c0.4,1.5,0.6,4.2,0.4,6s-0.9,4.4-1.6,5.8c-0.7,1.4-2.6,3.7-4.2,5.1c-1.6,1.4-4.5,3.2-6.5,4c-3,1.2-5.1,1.5-12.2,1.7
		C579.2,339.1,577.1,339,574.1,338z"/>
	<path id="path2317" class="st1" d="M430.2,337.8c-1.3-0.3-3.3-1.1-4.3-1.7c-1-0.6-2.5-2.2-3.3-3.6l-1.4-2.5l-0.2-19.8l-0.2-19.8
		h-4.7h-4.7v-4.8v-4.8h4.8h4.8v-8.6v-8.6h6.3h6.3l0.2,8.4l0.2,8.4l5.5,0.2l5.5,0.2v4.7v4.7h-5.8h-5.8l0.2,17.4l0.2,17.4l1.4,1.4
		c1.2,1.2,2.1,1.4,5.5,1.4l4.1,0v4.8v4.8l-2.9,0.4C438.2,338.7,433.2,338.5,430.2,337.8z"/>
	<path id="path2315" class="st1" d="M331.9,258.9c-1,0-2.9,0.1-6.3,0.1l-7.4,0l-13.9,36.1c-7.6,19.9-14.4,37.6-15.1,39.5l-1.3,3.3
		l7.4-0.2l7.4-0.2l3.6-10.1l3.6-10.1l15.5-0.2l15.5-0.2l2.6,7.5c1.5,4.1,3.1,8.8,3.7,10.5l1.1,3h7.5c8.1-0.1,7.9,0.6,7.2-1.1
		c-0.7-1.7-29-75.7-29.7-76.9C333,259,333.6,258.9,331.9,258.9z M325.5,273.4c0.1-0.1,1.1,2.4,2.3,5.7c1.1,3.2,3.7,10.7,5.8,16.5
		l3.7,10.6h-11.7h-11.6l1.8-5.2C319.6,289.8,325.3,273.6,325.5,273.4z"/>
	<path id="path2311" class="st1" d="M505.2,309.4v-28.5h6h6v4.8v4.8l2.1-3.1c1.1-1.7,3.4-4,5.1-5.1c1.7-1.1,4.2-2.4,5.6-2.7
		c1.4-0.4,3.8-0.6,5.5-0.5l3,0.2l0.2,6.1l0.2,6.1l-4.3-0.1c-3.3-0.1-5,0.3-7.3,1.4c-1.6,0.8-3.7,2.4-4.6,3.6
		c-0.9,1.2-2.2,3.6-2.9,5.5c-1.2,3-1.4,5-1.6,19.7l-0.3,16.3h-6.3h-6.3V309.4z"/>
	<path id="path2309" class="st1" d="M542,309.4v-28.5h6.7h6.7v28.5v28.5h-6.7H542V309.4z"/>
	<path id="path2307" class="st1" d="M615,298.5l0.2-39.4h6.3h6.3l0.2,22.1l0.2,22.1l10.8-11.2l10.8-11.2l8,0l8,0l-10.7,10.4
		l-10.7,10.4l11.8,17.8c6.5,9.8,11.8,17.9,11.8,18.1c0,0.2,1.6,0.3-7.8,0.3h-7.8l-8.2-13.1c-4.5-7.2-8.4-13.4-8.7-13.8
		c-0.3-0.4-1.8,0.6-4,2.8l-3.5,3.5v10.3v10.3h-6.7h-6.7L615,298.5z"/>
	<path id="path2303" class="st2" d="M438,128c-10.1,0-17.4,1-25.6,3.7c-2.8,0.9-7.2,2.6-9.8,3.8c-2.6,1.2-7.5,4-10.8,6.2
		s-8.4,6.1-11.3,8.6c-2.9,2.5-7.2,6.9-9.7,9.7s-6,7.4-7.8,10.1c-1.8,2.7-3.3,4.8-3.5,4.7c-0.5-0.5,4.3-9.9,7.7-14.9l3.6-5.4
		l-3.9,3.8c-2.2,2.1-6,6.6-8.5,9.9c-2.5,3.4-5.9,8.5-7.5,11.4s-3.8,8-5,11.3l-2.1,6v10.8v10.8l1.7,5.1c0.9,2.8,2.8,6.9,4.1,9.2
		c1.3,2.3,4.4,6.2,6.8,8.7c2.4,2.5,6.3,5.9,8.6,7.4c6.9,4.6,13.8,7.3,22.6,8.9c2.8,0.5,8.6,0.9,12.9,1c4.3,0,10.8-0.4,14.5-0.9
		c3.7-0.5,10-2,14.1-3.1c4.1-1.2,10.4-3.4,14-5l6.6-2.9l4.2,1.2c4.7,1.4,26.3,6.3,26.6,6c0.1-0.1-2.3-5.3-5.4-11.5l-5.6-11.3l5-6
		c2.8-3.3,6.6-8.4,8.6-11.3c1.9-2.9,4.9-8.2,6.6-11.7s3.6-8.5,4.4-11.1c0.7-2.6,1.6-7.3,2-10.3c0.4-3.9,0.4-7.3,0-11.1
		c-0.4-3-1.4-7.5-2.2-9.8c-0.8-2.4-2.7-6.5-4.3-9.2c-3.5-6.1-10.8-13.6-16.1-16.4c-2.1-1.1-4.1-2.1-4.3-2.1c-0.2,0,1,1.1,2.8,2.6
		c3.6,2.8,8,8.1,10.1,12.2l1.4,2.7l-1.4-1.9c-0.8-1-3.6-4.1-6.2-6.7c-3.7-3.7-6.1-5.4-10.2-7.5c-3.5-1.7-7.6-3.1-11.7-4
		C448.9,128.3,444.8,128,438,128z M437.7,135c6.9,0,9.9,0.3,13.8,1.3c2.7,0.7,6.9,2.2,9.2,3.3c3,1.4,5.7,3.4,9.1,6.8
		c3.7,3.7,5.4,6.1,7.4,10.2c1.5,3,3.1,7.4,3.6,9.8s0.9,6.6,0.9,9.3c0,8.4-2.3,17.9-6.7,26.8c-1.2,2.4-3.4,6.3-4.9,8.6
		c-1.5,2.3-4.9,6.4-7.6,9.2s-4.9,5.3-4.9,5.5s2.3,3.9,5.1,8.1c2.8,4.3,5.1,8,5.1,8.3s-0.1,0.5-0.3,0.5c-0.2,0-4.4-1.6-9.4-3.5
		c-5-1.9-9.8-3.5-10.7-3.5c-0.9,0-3.1,0.7-5,1.5c-6.2,2.7-17.7,6.1-23.9,7.1c-3.4,0.5-8.4,0.9-11.2,0.9c-10.1-0.1-17.6-1.9-26.3-6.1
		c-5.1-2.4-6.9-3.8-11.5-8.4c-4.2-4.2-6-6.6-7.8-10.2c-1.3-2.6-2.7-6.5-3.3-8.5c-1.4-5.4-1.2-14.3,0.3-20.4
		c0.7-2.8,2.7-7.9,4.5-11.5s4.9-8.7,7-11.5s6.3-7.4,9.5-10.4c6.1-5.8,13.5-11,20.7-14.6c6.2-3.1,14.5-5.9,22.1-7.5
		C427.2,135.3,431,135,437.7,135z"/>
	<path id="path2299" class="st2" d="M411.3,215.6l0.3-12.1l-10.3,6.4c-5.7,3.5-10.4,6.3-10.5,6.2c-0.5-0.6-8.5-14.2-8.5-14.5
		c0-0.2,4.7-3.1,10.5-6.3c5.7-3.3,10.5-6.1,10.5-6.3s-4.7-3-10.5-6.3s-10.5-6.1-10.5-6.3c0-0.3,8-14,8.5-14.5
		c0.1-0.1,4.4,2.6,9.5,5.9c5.2,3.4,9.8,6.3,10.3,6.5c0.8,0.3,0.9-1.3,0.7-11.8l-0.3-12.1h8.8h8.8l-0.4,12.4l-0.4,12.4l4.3-2.8
		c2.4-1.5,6.7-4.3,9.7-6.2s5.7-3.7,6.1-3.9c0.5-0.3,2.3,2.1,5.2,7c2.4,4.1,4.4,7.5,4.3,7.5c-0.1,0.1-4.3,2.5-9.3,5.3
		c-5.1,2.9-9.9,5.6-10.7,6.2l-1.5,0.9l10.1,5.7c5.5,3.1,10.4,5.9,10.8,6.1c0.5,0.3-0.5,2.6-3.7,7.9c-3.8,6.3-4.6,7.3-5.6,6.8
		c-0.6-0.3-4.9-3-9.6-5.9c-4.7-2.9-8.9-5.5-9.4-5.8c-0.7-0.4-0.8,1.6-0.4,11.6l0.5,12.1h-8.8H411L411.3,215.6z"/>
	<path id="path2279" class="st3" d="M359.4,176c0-0.2-0.1-0.3-0.3-0.3c-0.2,0-0.3,0.1-0.3,0.3s0.1,0.3,0.3,0.3
		C359.3,176.3,359.4,176.2,359.4,176z"/>
	<path id="flowRoot2289" class="st1" d="M653.9,273.1h5v1.6h-1.7v4.9h-1.6v-4.9h-1.7V273.1z M659.7,273.1h2.2l0.8,4l0.8-4h2.2v6.5
		h-1.3v-5l-1,5h-1.2l-1-5v5h-1.3V273.1z"/>
	<path id="path2329" class="st4" d="M345.7,222.5c-2.2-6-3-9.9-3.1-15.6c0-5.7,1-8,3.6-15.6L345.7,222.5z"/>
	<path id="path2339" class="st5" d="M343.8,215c-0.9-4.1-1-9.6-0.4-13.2c0.1-0.4,0.2-1.1,0.3-1.5l0.2-0.8l0,4c0,2.2,0,5.9,0,8.1l0,4
		L343.8,215z"/>
</g>
</svg>
