<?xml version="1.0" encoding="utf-8"?>
<!-- Generator: Adobe Illustrator 23.0.3, SVG Export Plug-In . SVG Version: 6.00 Build 0)  -->
<svg version="1.1" id="Layer_1" xmlns="http://www.w3.org/2000/svg" xmlns:xlink="http://www.w3.org/1999/xlink" x="0px" y="0px"
	 viewBox="0 0 956 469" style="enable-background:new 0 0 956 469;" xml:space="preserve">
<style type="text/css">
	.st0{fill:none;}
	.st1{fill-rule:evenodd;clip-rule:evenodd;fill:#72706F;}
	.st2{fill-rule:evenodd;clip-rule:evenodd;fill:#FF6905;}
	.st3{fill-rule:evenodd;clip-rule:evenodd;fill:#969594;}
</style>
<rect y="0" class="st0" width="956" height="469"/>
<g>
	<path id="_76325656" class="st1" d="M488.4,172.6h-25v76.3c0,17.5-5.8,26.4-24.2,26.4c-18.3,0-23.3-9.4-23.3-26.4v-76.3h-12.7
		c-3.6,0-6.6,1.4-9,4.1c-2.4,2.6-3.7,5.7-3.7,9.3v65.7c0,33.8,15.2,44.6,48,44.6c13.3,0,30.9-1.3,40.5-11.8
		c7.9-8.6,9.2-21.7,9.2-32.9V172.6z"/>
	<path id="_76325560" class="st1" d="M280.9,296.1h24.6v-85.8l50.3,84.6l0.8,1.2h6.5l18.4,0l0-1.1V172.6H357v84.5L307,172.6h-13.4
		c-3.5,0.2-6.5,1.6-9,4.1c-2.5,2.5-3.7,5.5-3.7,9L280.9,296.1L280.9,296.1z"/>
	<path id="_76325464" class="st1" d="M271.3,213.5l-0.1-0.9c-1.8-12-7.4-21.9-16.8-29.6l0,0l0,0c-10.6-7.8-23.3-10.6-36.3-10.6
		c-16,0-30,5.1-40.8,17.2c-11.1,12.4-14.7,28.6-14.7,44.8c0,16.4,3.7,32.8,15.1,45.2c10.5,12,24.4,16.8,40.1,16.8
		c6.7,0,13.4-1.2,19.6-3.8l0,0l0,0c4.7-2.2,8.6-5.5,12-9.4l0.2-0.3v13.5h22v-66.7h-42.4v20.7h18.7l0,0.2c-1.3,6.5-4,12.5-9,17
		c-5.2,4.5-11.6,6.2-18.4,6.2c-9.2,0-17.4-2.8-23.4-10.2c-6.7-8.2-8.6-19-8.6-29.3c0-10.3,2-20.9,8.3-29.2
		C202.4,198,210,195,219,195c6,0,12.4,1.1,17.4,4.6c2.6,2,4.9,4.3,6.5,7.2c2.4,4.5,6.1,6.8,11.2,6.8L271.3,213.5L271.3,213.5z"/>
	<path id="_76324888" class="st2" d="M615.3,224.1h23.5c1.2-2.5,3-4.3,5.7-5.3c2.8-1,5.9-1.4,8.9-1.4c5.6,0,15.8,1,15.7,8.6
		c0,3.3,0,6.7,0,10l0,0.1l-0.1,0c-8.5,0.2-17.4,0.2-25.8,1.2c-6.5,0.8-13.2,2.2-18.8,5.8c-1.1,0.7-2.1,1.4-3,2.2
		c-6.5,5.4-8.6,12.9-8.6,21.2c0,19.2,13.2,29.7,31.7,29.7h0.4c4.8,0,9.6-0.4,14.4-0.9c3.4-0.4,6.8-1.1,10.1-2.3l0.2-0.1v3.2h22.5
		c0-23.8,0.2-47.7,0.2-71.5c0-8.4-3.3-15-10.2-19.7c-8.2-5.6-20.1-6.7-29.7-6.7c-9.5,0-19.7,1.8-27.2,8.1
		C619.5,210.9,616.2,216.9,615.3,224.1L615.3,224.1z M669.5,254.3v5.8c0,4.3-0.3,9.2-3.5,12.4c-4.1,4.1-12.4,4.8-17.9,4.8
		c-3.1,0-7.7-0.4-10.1-2.7c-3.7-3.5-3.5-9.4-1.6-13.8c1.6-3.8,7.6-5,11.2-5.6c7-1.1,14.7-1,21.7-1L669.5,254.3L669.5,254.3z"/>
	<path id="_97397504" class="st2" d="M866.2,294.9c7.9,1.7,15.8,1.6,23.6-0.5c9.1-2,16.2-7,21.6-14.5c2.9-4.2,4.9-9,6.4-13.8
		c1.9-6.2,2.5-13,2.5-19.5c0-9.4-1.6-18.8-6-27.3c-4.2-8.7-10.8-14.9-19.8-18.4c-8.4-3.1-17.4-3.5-26.2-2.3
		c-9.5,1.3-17.5,5.3-23.7,12.6c-4.1,4.6-6.7,10.1-8.3,15.9c-1.7,6.2-2.7,12.7-2.7,19.2c0,7.6,1,15.2,3.2,22.5
		c2,6.7,5.3,12.6,10.6,17.2C852.5,290.6,859.3,293.4,866.2,294.9L866.2,294.9z M857.3,247.8c-0.4-8.5,0.8-17.9,6.8-24.4
		c2.1-2,5.2-3.3,7.9-4.1c3.6-1.1,7.2-1,10.7,0.2c4.1,1.4,7.2,4.7,9.5,8.2c3.4,5.3,4.1,13.1,4.1,19.3c-0.2,6.4-1,15.2-4.6,20.7
		c-2.4,3.6-5.6,6.8-9.9,8.1c-3.7,1.1-7.3,0.9-10.9-0.4c-2.7-1-5.8-2.5-7.5-4.8C858.7,264.8,857.6,254.8,857.3,247.8L857.3,247.8z"/>
	<path id="path3476" class="st1" d="M799.5,191.4h24.6V184c0-3.3-1.2-6.1-3.5-8.5c-1.5-1.5-3.3-2.6-5.4-3.1l-15.7,0V191.4z"/>
	<path id="_97397312" class="st2" d="M799.5,198.2v97.9h24.6v-86c0-3.3-1.2-6.1-3.5-8.4c-2.3-2.3-5.1-3.5-8.4-3.5H799.5L799.5,198.2
		z"/>
	<path id="path3480" class="st2" d="M766.3,172.4v40.4l-0.2-0.4c-2.9-4.5-6.7-8.2-11.3-11c-4.8-2.5-10.2-3.5-15.6-3.5
		c-11.4,0-20.4,4.8-27.2,13.8c-7.8,10.2-10.3,23.2-10.3,35.8c0,12.6,2.3,25.7,10.3,35.8c3.7,4.7,8.5,7.8,14.2,9.7
		c5.8,2,11.9,3,18.1,3c11.3,0,21.9-3,31.5-8.9c11.7-7.1,14.5-21.2,14.5-34V184c0-3.2-1.3-5.9-3.5-8.2c-1.5-1.6-3.3-2.8-5.5-3.3
		L766.3,172.4L766.3,172.4z M760.9,226.2c4.2,5.8,5.4,13.3,5.4,20.3c0,7.2-0.9,15.6-5,21.7c-3.7,5.1-8.7,7.5-15,7.5
		c-6.4,0-11.6-2.3-15.4-7.5c-4.3-6.1-5.4-14.5-5.4-21.7c0-6.8,1.1-14.3,5.4-20c3.6-5,8.5-7.5,14.7-7.5
		C751.8,219.1,757,221.3,760.9,226.2L760.9,226.2z"/>
	<path id="_97397120" class="st2" d="M507.8,296.1h25v-49.3h26.8c13.7,0,19.2,7,19.2,20.3v0.3c0,4-0.1,8.1-0.1,12.1l0,0.2
		c0,2.2,0,4.4,0.1,6.6v9.8h25v-33.3c0.2-6.9-1.2-14-5.7-19.5c-2.6-3.2-6.2-5.9-10.2-7.2l-0.4-0.1l0.4-0.1
		c5.6-1.9,10.3-5.1,13.4-10.3c3.7-5.6,5-12.2,5-18.8c0-9.7-2.4-19.2-9.9-25.9c-7.8-6.9-19.4-8.5-29.4-8.5h-46.5
		c-3.5,0-6.5,1.2-9,3.7c-2.5,2.5-3.7,5.5-3.7,9L507.8,296.1L507.8,296.1z M576.7,197.4c3.6,3,4.7,7.6,4.7,12.2
		c0,4.5-1.1,9.1-4.7,12.2c-3.8,3.2-9.5,3.9-14.3,3.9h-29.6v-32.6h31C568.4,193.1,573.3,194.1,576.7,197.4z"/>
	<path id="path3486" class="st2" d="M44.2,169.5c6.5-11.5,20-19.4,35.6-19.4c15.5,0,29,7.9,35.5,19.3l7.9-8.1
		c-8.9-13.3-25-22.3-43.5-22.3c-18.6,0-34.8,9.1-43.7,22.6C36.1,161.5,44.2,169.5,44.2,169.5z"/>
	<path id="path3488" class="st2" d="M79.7,158.3c-13.6,0-25.3,6.4-30.9,15.7l8,7.9c3.1-7.2,12.2-12.5,22.9-12.5
		c10.8,0,20,5.3,23,12.7l8-8.2C105,164.8,93.3,158.3,79.7,158.3z"/>
	<path id="path4301" class="st3" d="M167.4,329.7v-14.1h-5.1v-1.2c0-0.5,0.2-0.9,0.5-1.2c0.4-0.4,0.8-0.5,1.3-0.5H176v3h-5v14.1
		C171,329.7,167.4,329.7,167.4,329.7z"/>
	<path id="path4298" class="st3" d="M182.3,329.7v-15.3c0-0.5,0.2-0.9,0.5-1.2c0.4-0.4,0.8-0.5,1.3-0.5h1.7v6.4h7.1v-6.4h3.6v17.1
		h-3.6v-7.6h-7.1v7.6H182.3z"/>
	<path id="path4295" class="st3" d="M202.9,329.7v-15.3c0-0.5,0.2-0.9,0.5-1.2c0.4-0.4,0.8-0.5,1.3-0.5h10.6v2.9h-8.9v3.7h6.7v1.1
		c0,0.5-0.2,0.9-0.5,1.3c-0.3,0.3-0.7,0.5-1.2,0.5h-4.9v4.4h8.9v3.2H202.9z"/>
	<path id="path4292" class="st3" d="M233.1,329.7v-15.3c0-0.5,0.2-0.9,0.5-1.2c0.4-0.4,0.8-0.5,1.3-0.5h10.6v2.9h-8.9v3.7h6.7v1.1
		c0,0.5-0.2,0.9-0.5,1.3c-0.3,0.3-0.7,0.5-1.2,0.5h-4.9v7.6H233.1L233.1,329.7z"/>
	<path id="path4289" class="st3" d="M251.8,329.7v-15.3c0-0.5,0.2-0.9,0.5-1.2c0.4-0.4,0.8-0.5,1.3-0.5h6.5c1.9,0,3.2,0.4,4.1,1.2
		c0.9,0.8,1.4,2,1.4,3.6c0,1.1-0.2,1.9-0.7,2.6c-0.4,0.7-1,1.1-1.9,1.4c0.8,0.3,1.3,0.7,1.6,1.2c0.3,0.5,0.5,1.3,0.5,2.5l0.1,2
		c0,0.2,0,0.4,0,0.6s0,0.4,0,0.6c0.1,0.6,0.3,1,0.6,1.1H262c-0.2-0.3-0.3-0.7-0.3-1c-0.1-0.5-0.1-0.9-0.1-1.1l0-1.8
		c-0.1-1-0.3-1.7-0.6-2.1c-0.4-0.4-1-0.5-1.9-0.5h-3.7v6.7L251.8,329.7L251.8,329.7z M255.3,320h4.1c0.9,0,1.6-0.2,2-0.5
		c0.4-0.4,0.6-0.9,0.6-1.7s-0.2-1.3-0.6-1.7c-0.4-0.4-1-0.6-1.8-0.6h-4.3L255.3,320L255.3,320z"/>
	<path id="path4286" class="st3" d="M272.3,329.7v-15.3c0-0.5,0.2-0.9,0.5-1.2c0.4-0.4,0.8-0.5,1.3-0.5h10.6v2.9h-8.9v3.7h6.7v1.1
		c0,0.5-0.2,0.9-0.5,1.3c-0.3,0.3-0.7,0.5-1.2,0.5h-4.9v4.4h8.9v3.2H272.3L272.3,329.7z"/>
	<path id="path4283" class="st3" d="M291,329.7v-15.3c0-0.5,0.2-0.9,0.5-1.2c0.4-0.4,0.8-0.5,1.3-0.5h10.6v2.9h-8.9v3.7h6.7v1.1
		c0,0.5-0.2,0.9-0.5,1.3c-0.3,0.3-0.7,0.5-1.2,0.5h-4.9v4.4h8.9v3.2H291z"/>
	<path id="path4280" class="st3" d="M326.2,322.2l-0.9,0.6c-0.4,0.3-0.7,0.6-0.8,0.9c-0.2,0.4-0.3,0.8-0.3,1.2
		c0,0.6,0.2,1.2,0.7,1.6c0.5,0.5,1,0.7,1.7,0.7c0.5,0,0.9-0.1,1.4-0.3c0.4-0.2,0.8-0.5,1.2-0.9L326.2,322.2z M327.1,318.5l0.4-0.3
		c0.4-0.3,0.6-0.5,0.8-0.8c0.2-0.3,0.3-0.7,0.3-1.1c0-0.4-0.1-0.7-0.4-0.9c-0.2-0.2-0.6-0.3-1-0.3c-0.4,0-0.8,0.1-1,0.3
		c-0.3,0.3-0.4,0.6-0.4,0.9c0,0.1,0.1,0.4,0.2,0.7c0,0.2,0.1,0.3,0.2,0.4c0.1,0.1,0.2,0.3,0.3,0.4L327.1,318.5L327.1,318.5z
		 M324.5,320.1l-0.7-0.9c-0.4-0.4-0.6-0.9-0.7-1.3c-0.2-0.4-0.2-0.9-0.2-1.3c0-1.3,0.4-2.2,1.2-2.9c0.8-0.8,1.9-1.1,3.2-1.1
		c1.3,0,2.3,0.3,3.1,1c0.8,0.7,1.1,1.6,1.1,2.7c0,0.9-0.2,1.7-0.6,2.3c-0.5,0.7-1.2,1.3-2.1,1.9l2.5,3c0.2-0.4,0.4-0.8,0.5-1.2
		c0.1-0.6,0.2-1.2,0.2-1.6h1.8c0.5,0,0.8,0.1,0.9,0.4c0.1,0.3,0.1,0.6,0.1,0.8c-0.1,0.5-0.2,1-0.4,1.5c-0.4,0.9-0.9,1.7-1.4,2.4
		l3.1,3.8h-4l-1.1-1.4c-0.4,0.3-0.7,0.6-1.1,0.9c-0.4,0.3-0.7,0.4-1.1,0.5c-1.1,0.2-2.2,0.3-3.4,0.2c-1.2-0.1-2.2-0.5-3-1.1
		c-1-0.9-1.4-2.1-1.4-3.6c0-1.1,0.3-2,0.8-2.8C322.2,321.5,323.2,320.8,324.5,320.1L324.5,320.1z"/>
	<path id="path4277" class="st3" d="M357.3,321.1c0,1.9,0.4,3.4,1.2,4.4c0.8,1,2,1.5,3.5,1.5c1.5,0,2.7-0.5,3.5-1.5
		c0.9-1.1,1.3-2.5,1.3-4.4c0-1.9-0.4-3.3-1.3-4.4c-0.9-1-2-1.5-3.5-1.5c-1.5,0-2.7,0.5-3.5,1.5C357.7,317.7,357.3,319.2,357.3,321.1
		z M353.7,321.1c0-2.8,0.7-5,2.2-6.6c1.6-1.6,3.6-2.4,6.1-2.4c2.5,0,4.5,0.8,6.1,2.4c1.5,1.7,2.2,3.9,2.2,6.6s-0.7,4.9-2.2,6.6
		c-1.5,1.6-3.6,2.4-6.1,2.4c-2.6,0-4.6-0.8-6.1-2.4C354.5,326.1,353.7,323.9,353.7,321.1z"/>
	<path id="path4274" class="st3" d="M380.4,323.6v6.1h-3.5v-15.3c0-0.5,0.2-0.9,0.5-1.2c0.4-0.4,0.8-0.5,1.3-0.5h5.8
		c1.8,0,3.2,0.5,4.1,1.4c0.9,0.9,1.4,2.3,1.4,4.1c0,1.7-0.4,3.1-1.3,4.1c-0.9,0.9-2.2,1.4-3.9,1.4H380.4L380.4,323.6z M380.4,320.5
		h3.4c0.9,0,1.6-0.2,2-0.6c0.4-0.4,0.6-1,0.6-1.9c0-0.8-0.2-1.4-0.6-1.8c-0.5-0.4-1.1-0.6-1.8-0.6h-3.6V320.5L380.4,320.5z"/>
	<path id="path4271" class="st3" d="M396.3,329.7v-15.3c0-0.5,0.2-0.9,0.5-1.2c0.4-0.4,0.8-0.5,1.3-0.5h10.6v2.9h-8.9v3.7h6.7v1.1
		c0,0.5-0.2,0.9-0.5,1.3c-0.3,0.3-0.7,0.5-1.2,0.5h-4.9v4.4h8.9v3.2H396.3z"/>
	<path id="path4268" class="st3" d="M415,329.7v-15.3c0-0.5,0.2-0.9,0.5-1.2c0.4-0.4,0.8-0.6,1.3-0.6h1.9l7,11.8v-11.8h3.5v17.1
		h-3.6l-7-11.8v11.8L415,329.7L415,329.7z"/>
	<path id="path4265" class="st3" d="M447,324.4h3.5c0.1,1,0.5,1.7,1.1,2.1c0.7,0.5,1.6,0.7,2.7,0.7c1,0,1.8-0.2,2.3-0.5
		c0.5-0.4,0.8-0.9,0.8-1.6c0-1.1-1.5-1.9-4.5-2.6l-0.1,0c0,0-0.1,0-0.4-0.1c-1.7-0.4-2.8-0.7-3.4-1.1c-0.7-0.4-1.1-0.9-1.4-1.6
		c-0.3-0.6-0.5-1.4-0.5-2.3c0-1.6,0.6-2.9,1.7-3.8c1.1-0.9,2.8-1.3,4.9-1.3c2,0,3.6,0.5,4.7,1.4c1.1,1,1.7,2.4,1.8,4h-2
		c-0.8,0-1.3-0.3-1.6-1l0,0c-0.2-0.3-0.4-0.6-0.7-0.8c-0.6-0.4-1.4-0.6-2.4-0.6c-1,0-1.7,0.2-2.1,0.5c-0.5,0.4-0.7,0.9-0.7,1.5
		c0,0.9,1,1.6,2.9,2c0.6,0.2,1,0.3,1.2,0.3c0.6,0.2,1.1,0.4,1.5,0.5c0.5,0.1,0.8,0.2,1.1,0.2c0.5,0.2,0.9,0.4,1.4,0.6
		c0.7,0.4,1.2,0.9,1.5,1.5c0.4,0.7,0.5,1.5,0.5,2.3c0,1.8-0.6,3.2-1.8,4.2c-1.2,0.9-2.9,1.4-5.1,1.4c-2.3,0-3.9-0.5-5.1-1.4
		C447.7,327.7,447.1,326.2,447,324.4L447,324.4z"/>
	<path id="path4262" class="st3" d="M490.1,329.7v-15.3c0-0.5,0.2-0.9,0.5-1.2c0.4-0.4,0.8-0.5,1.3-0.5h10.6v2.9h-8.9v3.7h6.7v1.1
		c0,0.5-0.2,0.9-0.5,1.3c-0.3,0.3-0.7,0.5-1.2,0.5h-4.9v7.6H490.1L490.1,329.7z"/>
	<path id="path4259" class="st3" d="M513.9,329.7v-14.1h-5.1v-1.2c0-0.5,0.2-0.9,0.5-1.2c0.4-0.4,0.8-0.5,1.3-0.5h11.8v3h-5v14.1
		H513.9L513.9,329.7z"/>
	<path id="path4256" class="st3" d="M533.8,329.7l-4.9-17.1h3.6l2.9,12.1l2.5-12.1h3.8l2.4,12.1l2.6-10.8c0.2-0.9,0.8-1.3,1.7-1.3
		h2.2l-4.9,17.1h-3.4l-2.6-13.1l-2.7,13.1L533.8,329.7L533.8,329.7z"/>
	<path id="path4253" class="st3" d="M564.8,312.6h2.8l6.2,17.1H570l-1.1-3.5h-6.7l-1.1,3.5h-3.7l5.7-15.9
		C563.4,313,563.9,312.6,564.8,312.6z M565.6,316l-2.4,7.3h4.8L565.6,316z"/>
	<path id="path4250" class="st3" d="M580.3,329.7v-15.3c0-0.5,0.2-0.9,0.5-1.2c0.4-0.4,0.8-0.5,1.3-0.5h6.5c1.9,0,3.2,0.4,4.1,1.2
		c0.9,0.8,1.4,2,1.4,3.6c0,1.1-0.2,1.9-0.7,2.6c-0.4,0.7-1,1.1-1.9,1.4c0.8,0.3,1.3,0.7,1.6,1.2c0.3,0.5,0.5,1.3,0.5,2.5l0.1,2
		c0,0.2,0,0.4,0,0.6s0,0.4,0,0.6c0.1,0.6,0.3,1,0.6,1.1h-3.9c-0.2-0.3-0.3-0.7-0.3-1c-0.1-0.5-0.1-0.9-0.1-1.1l0-1.8
		c-0.1-1-0.3-1.7-0.6-2.1c-0.4-0.4-1-0.5-1.9-0.5h-3.7v6.7L580.3,329.7L580.3,329.7z M583.8,320h4.1c0.9,0,1.6-0.2,2-0.5
		c0.4-0.4,0.6-0.9,0.6-1.7s-0.2-1.3-0.6-1.7c-0.4-0.4-1-0.6-1.8-0.6h-4.3V320z"/>
	<path id="path4247" class="st3" d="M600.8,329.7v-15.3c0-0.5,0.2-0.9,0.5-1.2c0.4-0.4,0.8-0.5,1.3-0.5h10.6v2.9h-8.9v3.7h6.7v1.1
		c0,0.5-0.2,0.9-0.5,1.3c-0.3,0.3-0.7,0.5-1.2,0.5h-4.9v4.4h8.9v3.2H600.8L600.8,329.7z"/>
	<path id="path4244" class="st3" d="M630.9,329.7v-15.3c0-0.5,0.2-0.9,0.5-1.2c0.4-0.4,0.8-0.5,1.3-0.5h6.5c1.9,0,3.2,0.4,4.1,1.2
		c0.9,0.8,1.4,2,1.4,3.6c0,1.1-0.2,1.9-0.7,2.6c-0.4,0.7-1,1.1-1.9,1.4c0.8,0.3,1.3,0.7,1.6,1.2c0.3,0.5,0.5,1.3,0.5,2.5l0.1,2
		c0,0.2,0,0.4,0,0.6c0,0.2,0,0.4,0,0.6c0.1,0.6,0.3,1,0.6,1.1h-3.9c-0.2-0.3-0.3-0.7-0.3-1c-0.1-0.5-0.1-0.9-0.1-1.1l0-1.8
		c-0.1-1-0.3-1.7-0.6-2.1c-0.4-0.4-1-0.5-1.9-0.5h-3.7v6.7L630.9,329.7L630.9,329.7z M634.5,320h4.1c0.9,0,1.6-0.2,2-0.5
		c0.4-0.4,0.6-0.9,0.6-1.7s-0.2-1.3-0.6-1.7c-0.4-0.4-1-0.6-1.8-0.6h-4.3V320z"/>
	<path id="path4241" class="st3" d="M658.8,312.6h2.8l6.2,17.1h-3.7l-1.1-3.5h-6.7l-1.1,3.5h-3.7l5.7-15.9
		C657.4,313,658,312.6,658.8,312.6L658.8,312.6z M659.6,316l-2.4,7.3h4.8L659.6,316L659.6,316z"/>
	<path id="path4238" class="st3" d="M674.3,329.7v-15.3c0-0.5,0.2-0.9,0.5-1.2c0.4-0.4,0.8-0.5,1.3-0.5h4.9c2.6,0,4.6,0.7,5.9,2.1
		c1.3,1.5,1.9,3.6,1.9,6.5c0,1.5-0.2,2.9-0.7,4.1c-0.5,1.3-1.2,2.2-2.1,2.9c-0.7,0.6-1.5,1-2.3,1.2c-0.8,0.2-2,0.3-3.6,0.3H674.3
		L674.3,329.7z M677.7,326.6h2.8c1.6,0,2.8-0.4,3.6-1.3c0.7-0.8,1.1-2.2,1.1-4.2c0-1.9-0.3-3.3-1-4.2c-0.7-0.9-1.7-1.3-3.2-1.3h-3.3
		V326.6L677.7,326.6z"/>
	<path id="path4235" class="st3" d="M695.2,329.7v-15.3c0-0.5,0.2-0.9,0.5-1.2c0.4-0.4,0.8-0.5,1.3-0.5h1.7v17.1H695.2z"/>
	<path id="path4232" class="st3" d="M707.8,321.1c0,1.9,0.4,3.4,1.2,4.4c0.8,1,2,1.5,3.5,1.5c1.5,0,2.7-0.5,3.5-1.5
		c0.9-1.1,1.3-2.5,1.3-4.4c0-1.9-0.4-3.3-1.3-4.4c-0.9-1-2-1.5-3.5-1.5c-1.5,0-2.7,0.5-3.5,1.5C708.2,317.7,707.8,319.2,707.8,321.1
		z M704.3,321.1c0-2.8,0.7-5,2.2-6.6c1.6-1.6,3.6-2.4,6.1-2.4c2.5,0,4.5,0.8,6.1,2.4c1.5,1.7,2.2,3.9,2.2,6.6s-0.7,4.9-2.2,6.6
		c-1.5,1.6-3.6,2.4-6.1,2.4c-2.6,0-4.6-0.8-6.1-2.4C705,326.1,704.3,323.9,704.3,321.1z"/>
	<path id="path4229" class="st3" d="M738.9,329.7v-15.3c0-0.5,0.2-0.9,0.5-1.2c0.4-0.4,0.8-0.5,1.3-0.5h10.6v2.9h-8.9v3.7h6.7v1.1
		c0,0.5-0.2,0.9-0.5,1.3c-0.3,0.3-0.7,0.5-1.2,0.5h-4.9v4.4h8.9v3.2H738.9L738.9,329.7z"/>
	<path id="path4226" class="st3" d="M772.9,323.8c-0.2,2-0.9,3.5-2.2,4.7c-1.4,1.1-3.1,1.6-5.4,1.6c-2.6,0-4.6-0.8-5.9-2.3
		c-1.4-1.5-2-3.7-2-6.6c0-3,0.7-5.2,2.1-6.7c1.4-1.6,3.5-2.3,6.2-2.3c2.2,0,3.9,0.5,5.2,1.6c1.2,1.1,1.9,2.5,2.1,4.5h-2.1
		c-0.8,0-1.4-0.3-1.7-1l0,0c-0.2-0.4-0.5-0.8-0.8-1.1c-0.7-0.5-1.5-0.7-2.6-0.7c-1.5,0-2.7,0.5-3.5,1.5c-0.8,1-1.2,2.5-1.2,4.4
		c0,1.9,0.4,3.3,1.2,4.3c0.8,1,1.9,1.5,3.4,1.5c1.1,0,1.9-0.3,2.6-0.8c0.6-0.5,1.1-1.3,1.3-2.4H772.9z"/>
	<path id="path4223" class="st3" d="M782.6,321.1c0,1.9,0.4,3.4,1.2,4.4c0.8,1,2,1.5,3.5,1.5c1.5,0,2.7-0.5,3.5-1.5
		c0.9-1.1,1.3-2.5,1.3-4.4c0-1.9-0.4-3.3-1.3-4.4c-0.9-1-2-1.5-3.5-1.5c-1.5,0-2.7,0.5-3.5,1.5C783,317.7,782.6,319.2,782.6,321.1z
		 M779,321.1c0-2.8,0.7-5,2.2-6.6c1.6-1.6,3.6-2.4,6.1-2.4c2.5,0,4.5,0.8,6.1,2.4c1.5,1.7,2.2,3.9,2.2,6.6s-0.7,4.9-2.2,6.6
		c-1.5,1.6-3.6,2.4-6.1,2.4c-2.6,0-4.6-0.8-6.1-2.4C779.8,326.1,779,323.9,779,321.1z"/>
	<path id="path4220" class="st3" d="M802.2,324.4h3.5c0.1,1,0.5,1.7,1.1,2.1c0.7,0.5,1.6,0.7,2.7,0.7c1,0,1.8-0.2,2.3-0.5
		c0.5-0.4,0.8-0.9,0.8-1.6c0-1.1-1.5-1.9-4.5-2.6l-0.1,0c0,0-0.1,0-0.4-0.1c-1.7-0.4-2.8-0.7-3.4-1.1c-0.7-0.4-1.1-0.9-1.4-1.6
		c-0.3-0.6-0.5-1.4-0.5-2.3c0-1.6,0.6-2.9,1.7-3.8c1.1-0.9,2.8-1.3,4.9-1.3c2,0,3.6,0.5,4.7,1.4c1.1,1,1.7,2.4,1.8,4h-2
		c-0.8,0-1.3-0.3-1.6-1l0,0c-0.2-0.3-0.4-0.6-0.7-0.8c-0.6-0.4-1.4-0.6-2.4-0.6c-1,0-1.7,0.2-2.1,0.5c-0.5,0.4-0.7,0.9-0.7,1.5
		c0,0.9,1,1.6,2.9,2c0.6,0.2,1,0.3,1.2,0.3c0.6,0.2,1.1,0.4,1.5,0.5c0.5,0.1,0.8,0.2,1.1,0.2c0.5,0.2,0.9,0.4,1.4,0.6
		c0.7,0.4,1.2,0.9,1.5,1.5c0.4,0.7,0.5,1.5,0.5,2.3c0,1.8-0.6,3.2-1.8,4.2c-1.2,0.9-2.9,1.4-5.1,1.4c-2.3,0-3.9-0.5-5.1-1.4
		C802.9,327.7,802.3,326.2,802.2,324.4L802.2,324.4z"/>
	<path id="path4217" class="st3" d="M832.2,329.7h-3.5v-6.4l-6.2-10.7h4.3l3.6,7.4l2.9-6.4c0.3-0.7,0.9-1,1.6-1h2.8l-5.6,10.7
		L832.2,329.7L832.2,329.7z"/>
	<path id="path4214" class="st3" d="M844.3,324.4h3.5c0.1,1,0.5,1.7,1.1,2.1c0.7,0.5,1.6,0.7,2.7,0.7c1,0,1.8-0.2,2.3-0.5
		c0.5-0.4,0.8-0.9,0.8-1.6c0-1.1-1.5-1.9-4.5-2.6l-0.1,0c0,0-0.1,0-0.4-0.1c-1.7-0.4-2.8-0.7-3.4-1.1c-0.7-0.4-1.1-0.9-1.4-1.6
		c-0.3-0.6-0.5-1.4-0.5-2.3c0-1.6,0.6-2.9,1.7-3.8c1.1-0.9,2.8-1.3,4.9-1.3c2,0,3.6,0.5,4.7,1.4c1.1,1,1.7,2.4,1.8,4h-2
		c-0.8,0-1.3-0.3-1.6-1l0,0c-0.2-0.3-0.4-0.6-0.7-0.8c-0.6-0.4-1.4-0.6-2.4-0.6c-1,0-1.7,0.2-2.1,0.5c-0.5,0.4-0.7,0.9-0.7,1.5
		c0,0.9,1,1.6,2.9,2c0.6,0.2,1,0.3,1.2,0.3c0.6,0.2,1.1,0.4,1.5,0.5c0.5,0.1,0.8,0.2,1.1,0.2c0.5,0.2,0.9,0.4,1.4,0.6
		c0.7,0.4,1.2,0.9,1.5,1.5c0.4,0.7,0.5,1.5,0.5,2.3c0,1.8-0.6,3.2-1.8,4.2c-1.2,0.9-2.9,1.4-5.1,1.4c-2.3,0-3.9-0.5-5.1-1.4
		C845.1,327.7,844.4,326.2,844.3,324.4z"/>
	<path id="path4211" class="st3" d="M869.7,329.7v-14.1h-5.1v-1.2c0-0.5,0.2-0.9,0.5-1.2c0.4-0.4,0.8-0.5,1.3-0.5h11.8v3h-5v14.1
		H869.7z"/>
	<path id="path4208" class="st3" d="M884.6,329.7v-15.3c0-0.5,0.2-0.9,0.5-1.2c0.4-0.4,0.8-0.5,1.3-0.5H897v2.9h-8.9v3.7h6.7v1.1
		c0,0.5-0.2,0.9-0.5,1.3c-0.3,0.3-0.7,0.5-1.2,0.5h-4.9v4.4h8.9v3.2H884.6L884.6,329.7z"/>
	<path id="path4205" class="st3" d="M903.3,329.7v-15.3c0-0.5,0.2-0.9,0.5-1.2c0.4-0.4,0.8-0.6,1.3-0.6h3.4l3.4,13.1l3.4-13.1h5.2
		v17.1h-3.3v-13.8l-3.5,13.8h-3.6l-3.5-13.8v13.8L903.3,329.7L903.3,329.7z"/>
	<path id="path3484" class="st2" d="M137.1,222.7c5,5,7.5,11,7.5,18.2c0,7-2.5,13-7.5,18c-5,5-10.9,7.5-17.9,7.5
		c-4.9,0-9.2-1.2-13.1-3.5l-9.1,9.1c5.6,6.4,8.5,14.1,8.5,23c0,9.6-3.4,17.8-10.3,24.7c-6.9,6.9-15,10.3-24.5,10.3
		c-9.7,0-17.9-3.4-24.8-10.2c-6.9-6.8-10.3-15.1-10.3-24.7c0-9.7,3.3-17.9,10-24.8c6.7-6.9,14.8-10.3,24.5-10.3
		c8.6,0,16,2.6,22.3,7.7l8.6-8.6c-4.9-4.9-7.3-10.9-7.3-17.8c0-7,2.4-13.1,7.3-18.1c0.5-0.5,0.9-0.9,1.4-1.3l-8.8-8.8
		c-3.8,3.6-8.4,5.5-13.6,5.5c-5.5,0-10.3-2-14.2-5.9c-4-3.9-5.9-8.6-5.9-14.2s1.9-10.3,5.7-14.2c3.8-4,8.5-5.9,14-5.9
		c5.7,0,10.5,2,14.4,5.9c4,3.9,5.9,8.7,5.9,14.3c0,3.9-1,7.3-2.9,10.4l9.8,9.8c3.6-2,7.6-3,12-3
		C125.9,215.3,132.1,217.8,137.1,222.7z M79.8,186.8c-3.1,0-5.8,1.1-7.9,3.3c-2.1,2.2-3.2,4.9-3.2,8c0,3.2,1,5.8,3.1,8
		c2.1,2.1,4.7,3.2,8,3.2c3,0,5.6-1.1,7.7-3.3c2.1-2.2,3.2-4.8,3.2-7.9c0-1.5-0.3-2.9-0.8-4.3c-0.5-1.4-1.3-2.5-2.3-3.5
		c-1-1-2.2-1.9-3.6-2.5C82.6,187.1,81.2,186.8,79.8,186.8z M70.7,275.1c-5.5,0-10.1,1.9-13.8,5.8c-3.7,3.9-5.6,8.5-5.6,13.9
		c0,5.5,1.8,10.2,5.5,13.9c3.6,3.7,8.3,5.6,13.9,5.6c5.3,0,9.8-1.9,13.5-5.8c3.7-3.8,5.5-8.4,5.5-13.7c0-2.6-0.5-5.1-1.4-7.5
		c-1-2.4-2.3-4.4-4-6.2c-1.7-1.8-3.8-3.3-6.2-4.4C75.6,275.7,73.1,275.1,70.7,275.1z M119.2,226.5c-4,0-7.3,1.4-10,4.2
		c-2.7,2.8-4.1,6.2-4.1,10.1c0,4,1.3,7.4,4,10.1c2.7,2.7,6,4.1,10.1,4.1c3.9,0,7.1-1.4,9.8-4.2c2.7-2.8,4-6.1,4-10
		c0-1.9-0.3-3.7-1-5.5c-0.7-1.7-1.7-3.2-2.9-4.5c-1.3-1.3-2.8-2.4-4.5-3.2C122.8,226.9,121,226.5,119.2,226.5z"/>
	<path id="path4202" class="st3" d="M470.5,321.1c0,1.9,0.4,3.4,1.2,4.4c0.8,1,2,1.5,3.5,1.5c1.5,0,2.7-0.5,3.5-1.5
		c0.9-1.1,1.3-2.5,1.3-4.4c0-1.9-0.4-3.3-1.3-4.4c-0.9-1-2-1.5-3.5-1.5c-1.5,0-2.7,0.5-3.5,1.5C470.9,317.7,470.5,319.2,470.5,321.1
		z M467,321.1c0-2.8,0.7-5,2.2-6.6c1.6-1.6,3.6-2.4,6.1-2.4c2.5,0,4.5,0.8,6.1,2.4c1.5,1.7,2.2,3.9,2.2,6.6s-0.7,4.9-2.2,6.6
		c-1.5,1.6-3.6,2.4-6.1,2.4c-2.6,0-4.6-0.8-6.1-2.4C467.7,326.1,467,323.9,467,321.1z"/>
</g>
</svg>
