<?xml version="1.0" encoding="utf-8"?>
<!-- Generator: Adobe Illustrator 23.0.3, SVG Export Plug-In . SVG Version: 6.00 Build 0)  -->
<svg version="1.1" id="Layer_1" xmlns="http://www.w3.org/2000/svg" xmlns:xlink="http://www.w3.org/1999/xlink" x="0px" y="0px"
	 viewBox="0 0 956 469" style="enable-background:new 0 0 956 469;" xml:space="preserve">
<style type="text/css">
	.st0{fill:none;}
	.st1{enable-background:new    ;}
	.st2{fill:#7F7F7F;}
	.st3{fill:#4E4E4E;}
	.st4{fill:none;stroke:#C8C8C8;stroke-width:5;stroke-miterlimit:10;}
	.st5{fill:#E5C632;}
	.st6{fill:#D85026;}
	.st7{fill:#B2205A;}
	.st8{fill:#3992B2;}
	.st9{fill:#5444A5;}
	.st10{fill:#FFFFFF;stroke:#FFFFFF;stroke-width:5;stroke-miterlimit:10;}
	.st11{fill:#FFFFFF;}
</style>
<rect y="0" class="st0" width="956" height="469"/>
<g>
	<g class="st1">
		<path class="st2" d="M350.2,236.8c0-9.6,2.8-17.2,8.5-22.6c5.6-5.5,12.9-8.2,21.8-8.2c5.8,0,11.1,1.3,15.8,3.8
			c4.7,2.6,8.3,6.1,10.7,10.7c2.5,4.6,3.7,9.8,3.7,15.6c0,5.9-1.3,11.2-3.9,15.8c-2.6,4.6-6.3,8.2-11,10.6
			c-4.7,2.4-9.9,3.6-15.3,3.6c-5.9,0-11.3-1.3-16-4c-4.7-2.6-8.2-6.2-10.6-10.8S350.2,241.9,350.2,236.8z M358.8,236.9
			c0,7,2,12.5,6.1,16.5c4.1,4,9.2,6,15.4,6c6.3,0,11.5-2,15.5-6.1c4.1-4.1,6.1-9.8,6.1-17.3c0-4.7-0.9-8.9-2.6-12.4
			c-1.7-3.5-4.3-6.3-7.6-8.2c-3.3-1.9-7.1-2.9-11.3-2.9c-5.9,0-11,1.9-15.3,5.6C360.9,221.9,358.8,228.2,358.8,236.9z"/>
		<path class="st2" d="M420.4,281.2V223h7.1v5.5c1.7-2.1,3.5-3.7,5.6-4.8c2.1-1.1,4.6-1.6,7.6-1.6c3.9,0,7.4,0.9,10.3,2.8
			c3,1.8,5.2,4.5,6.8,7.8c1.5,3.4,2.3,7.1,2.3,11.1c0,4.3-0.8,8.2-2.5,11.6c-1.7,3.4-4.1,6.1-7.3,7.9c-3.2,1.8-6.6,2.8-10.1,2.8
			c-2.6,0-4.9-0.5-7-1.5s-3.7-2.3-5.1-3.8v20.5H420.4z M427.4,244.3c0,5.4,1.2,9.4,3.6,12c2.4,2.6,5.3,3.9,8.7,3.9
			c3.4,0,6.4-1.3,8.9-4c2.5-2.7,3.7-6.8,3.7-12.5c0-5.4-1.2-9.4-3.6-12c-2.4-2.7-5.3-4-8.6-4c-3.3,0-6.2,1.4-8.8,4.3
			C428.7,234.7,427.4,238.9,427.4,244.3z"/>
		<path class="st2" d="M500.9,251.5l8,0.9c-1.3,4.3-3.6,7.6-7,10c-3.4,2.4-7.8,3.6-13.1,3.6c-6.7,0-12-1.9-15.9-5.7
			c-3.9-3.8-5.9-9.1-5.9-15.9c0-7.1,2-12.6,5.9-16.5c4-3.9,9.1-5.9,15.4-5.9c6.1,0,11.1,1.9,15,5.7c3.9,3.8,5.8,9.2,5.8,16.2
			c0,0.4,0,1.1,0,1.9h-34.1c0.3,4.6,1.7,8.2,4.3,10.6c2.6,2.5,5.7,3.7,9.6,3.7c2.8,0,5.3-0.7,7.3-2.1
			C498.1,256.7,499.7,254.5,500.9,251.5z M475.4,240h25.6c-0.3-3.5-1.3-6.2-2.9-8c-2.5-2.7-5.7-4.1-9.6-4.1c-3.6,0-6.6,1.1-9,3.3
			C477,233.4,475.6,236.3,475.4,240z"/>
		<path class="st2" d="M518.6,265.1V223h7v6c3.4-4.6,8.2-6.9,14.6-6.9c2.8,0,5.3,0.5,7.6,1.4c2.3,0.9,4,2.1,5.2,3.6
			c1.1,1.5,2,3.2,2.4,5.3c0.3,1.3,0.4,3.6,0.4,6.9v25.9h-7.8v-25.6c0-2.9-0.3-5.1-0.9-6.5c-0.6-1.4-1.7-2.6-3.2-3.4
			c-1.5-0.9-3.3-1.3-5.4-1.3c-3.3,0-6.2,1-8.6,2.9s-3.6,5.6-3.6,11v23H518.6z"/>
	</g>
	<g class="st1">
		<path class="st3" d="M568.4,265.1V207h23.7c4.8,0,8.7,0.6,11.6,1.8c2.9,1.2,5.2,3,6.9,5.4c1.7,2.4,2.5,5,2.5,7.7
			c0,2.5-0.7,4.8-2.2,7c-1.5,2.2-3.7,4-6.6,5.3c3.8,1,6.8,2.8,8.8,5.3c2.1,2.5,3.1,5.4,3.1,8.8c0,2.7-0.6,5.2-1.9,7.6
			c-1.3,2.3-2.8,4.1-4.6,5.4c-1.8,1.3-4.1,2.2-6.9,2.9c-2.8,0.6-6.2,1-10.2,1H568.4z M576.8,231.4h13.7c3.7,0,6.4-0.2,8-0.7
			c2.1-0.6,3.7-1.5,4.8-2.9s1.6-3,1.6-5.1c0-1.9-0.5-3.6-1.5-5.1c-1-1.5-2.4-2.5-4.3-3c-1.9-0.5-5.1-0.8-9.6-0.8h-12.6V231.4z
			 M576.8,258.2h15.7c2.7,0,4.6-0.1,5.7-0.3c1.9-0.3,3.5-0.8,4.8-1.6c1.3-0.7,2.4-1.8,3.2-3.2c0.8-1.4,1.3-3,1.3-4.9
			c0-2.2-0.6-4-1.8-5.6s-2.9-2.7-5-3.4c-2.1-0.6-5.2-1-9.2-1h-14.6V258.2z"/>
		<path class="st3" d="M643.7,265.1v-51.2h-20.8V207H673v6.9h-20.9v51.2H643.7z"/>
		<path class="st3" d="M678.7,246.4l7.9-0.6c0.4,2.9,1.2,5.3,2.6,7.2s3.5,3.4,6.4,4.5c2.9,1.1,6.1,1.7,9.7,1.7c3.2,0,6-0.4,8.5-1.3
			c2.4-0.9,4.3-2.1,5.5-3.6c1.2-1.5,1.8-3.2,1.8-5c0-1.8-0.6-3.4-1.7-4.8c-1.2-1.4-3-2.5-5.7-3.4c-1.7-0.6-5.4-1.6-11.3-2.8
			c-5.8-1.3-9.9-2.5-12.2-3.6c-3-1.5-5.3-3.3-6.7-5.4c-1.5-2.2-2.2-4.6-2.2-7.2c0-2.9,0.9-5.7,2.7-8.2c1.8-2.5,4.5-4.5,7.9-5.8
			c3.5-1.3,7.3-2,11.6-2c4.7,0,8.8,0.7,12.4,2.1c3.6,1.4,6.3,3.4,8.3,6.1c1.9,2.7,3,5.7,3.1,9.2l-8,0.6c-0.4-3.7-1.9-6.4-4.4-8.3
			c-2.5-1.9-6.2-2.8-11-2.8c-5.1,0-8.7,0.9-11.1,2.6c-2.3,1.7-3.5,3.8-3.5,6.2c0,2.1,0.8,3.8,2.5,5.1c1.6,1.3,5.8,2.7,12.6,4.1
			c6.8,1.4,11.5,2.6,14,3.7c3.7,1.6,6.4,3.5,8.1,5.9c1.8,2.4,2.6,5.1,2.6,8.3c0,3.1-1,6-2.9,8.7c-1.9,2.7-4.7,4.9-8.3,6.4
			c-3.6,1.5-7.7,2.3-12.2,2.3c-5.7,0-10.5-0.8-14.4-2.3c-3.9-1.5-6.9-3.8-9.1-6.9C680,253.8,678.8,250.3,678.7,246.4z"/>
	</g>
	<path class="st4" d="M364.3,278.1l15.8,9.1c-18.4,32.1-53.1,53.7-92.8,53.7c-59,0-106.8-47.6-106.8-106.3s47.8-106.3,106.8-106.3
		c40.5,0,75.7,22.4,93.8,55.4l-17.5,10c-15-26.5-43.5-44.3-76.3-44.3c-48.4,0-87.6,39-87.6,87.2s39.2,87.2,87.6,87.2
		C320.6,323.6,349.5,305.2,364.3,278.1z"/>
	<path class="st4" d="M349.6,269.6c-12,22.2-35.5,37.2-62.5,37.2c-39.2,0-70.9-31.6-70.9-70.6s31.8-70.6,70.9-70.6
		c26.7,0,49.9,14.7,62.1,36.4l-47.6,27.3c-2.3-6.5-8.5-11.2-15.9-11.2c-9.3,0-16.8,7.5-16.8,16.7s7.5,16.7,16.8,16.7
		c6.8,0,12.7-4.1,15.3-9.9L349.6,269.6z"/>
	<g class="st1">
		<path d="M730.7,191.9v-29h-8.9V159h21.5v3.9h-9v29H730.7z"/>
		<path d="M746.8,191.9V159h5.4l6.4,23.3l1.3,4.9c0.3-1.2,0.8-3,1.4-5.3l6.5-22.9h4.8v32.9h-3.5v-27.5l-7.9,27.5h-3.2l-7.9-28v28
			H746.8z"/>
	</g>
	<g>
		
			<ellipse transform="matrix(0.7244 -0.6893 0.6893 0.7244 -42.8342 281.0345)" class="st5" cx="330.1" cy="194.1" rx="6.3" ry="7.7"/>
		
			<ellipse transform="matrix(0.597 -0.8022 0.8022 0.597 -37.0899 338.2914)" class="st5" cx="318.2" cy="206.1" rx="5.1" ry="6.2"/>
		<ellipse transform="matrix(0.597 -0.8022 0.8022 0.597 -52.5961 332.8879)" class="st5" cx="305" cy="218.8" rx="3.2" ry="3.9"/>
		
			<ellipse transform="matrix(0.6938 -0.7202 0.7202 0.6938 -41.9927 284.8068)" class="st5" cx="313.9" cy="191.8" rx="5.5" ry="6.7"/>
		
			<ellipse transform="matrix(0.6938 -0.7202 0.7202 0.6938 -55.7988 282.7284)" class="st5" cx="304.6" cy="207" rx="4.5" ry="5.5"/>
		
			<ellipse transform="matrix(0.6938 -0.7202 0.7202 0.6938 -62.7452 277.1754)" class="st5" cx="294.6" cy="212.4" rx="3.8" ry="4.6"/>
		
			<ellipse transform="matrix(0.4807 -0.8769 0.8769 0.4807 1.5176 357.7799)" class="st5" cx="302.8" cy="177.6" rx="6.6" ry="7.7"/>
		<ellipse transform="matrix(0.37 -0.929 0.929 0.37 10.2108 383.9269)" class="st5" cx="288.2" cy="184.4" rx="5.5" ry="6.8"/>
		
			<ellipse transform="matrix(0.597 -0.8022 0.8022 0.597 -35.4708 318.6982)" class="st5" cx="299.5" cy="194.7" rx="4.8" ry="5.9"/>
		
			<ellipse transform="matrix(0.2598 -0.9657 0.9657 0.2598 17.7776 426.2514)" class="st5" cx="286.9" cy="201.5" rx="4.8" ry="5.9"/>
		
			<ellipse transform="matrix(6.095773e-02 -0.9981 0.9981 6.095773e-02 77.2524 438.2042)" class="st6" cx="271.5" cy="178" rx="6" ry="7.4"/>
		
			<ellipse transform="matrix(0.7952 -0.6063 0.6063 0.7952 -66.6583 187.2375)" class="st6" cx="243.9" cy="192.3" rx="7.5" ry="6.1"/>
		
			<ellipse transform="matrix(0.9924 -0.1229 0.1229 0.9924 -21.4567 33.548)" class="st6" cx="261.2" cy="190.7" rx="6.3" ry="5.1"/>
		<ellipse transform="matrix(0.9799 -0.1997 0.1997 0.9799 -33.1161 59.057)" class="st6" cx="276.2" cy="193.7" rx="6.1" ry="5"/>
		
			<ellipse transform="matrix(0.9576 -0.2882 0.2882 0.9576 -47.8783 82.6307)" class="st6" cx="256.7" cy="203.9" rx="5.6" ry="4.6"/>
		<ellipse transform="matrix(0.984 -0.178 0.178 0.984 -32.358 51.3481)" class="st6" cx="270" cy="206" rx="5.1" ry="4.1"/>
		<ellipse transform="matrix(0.9231 -0.3846 0.3846 0.9231 -64.182 115.6698)" class="st6" cx="257.1" cy="218.3" rx="5" ry="4.1"/>
		
			<ellipse transform="matrix(0.9985 -5.542154e-02 5.542154e-02 0.9985 -11.2951 15.9269)" class="st6" cx="281.5" cy="211.6" rx="3.8" ry="3.1"/>
		<ellipse transform="matrix(0.9052 -0.4249 0.4249 0.9052 -66.9211 134.951)" class="st6" cx="269.1" cy="217.5" rx="3.7" ry="3"/>
		
			<ellipse transform="matrix(0.6255 -0.7802 0.7802 0.6255 -72.3111 266.5741)" class="st7" cx="241.5" cy="208.6" rx="5.5" ry="4.5"/>
		<ellipse transform="matrix(0.5856 -0.8106 0.8106 0.5856 -83.989 275.6367)" class="st7" cx="227.6" cy="220" rx="7.6" ry="6.3"/>
		<ellipse transform="matrix(0.8204 -0.5717 0.5717 0.8204 -102.6359 175.1652)" class="st7" cx="227.6" cy="251" rx="6" ry="7.3"/>
		<ellipse class="st7" cx="234" cy="234.3" rx="4.7" ry="5.6"/>
		
			<ellipse transform="matrix(0.6255 -0.7802 0.7802 0.6255 -83.2048 274.6693)" class="st7" cx="244.5" cy="224" rx="5.4" ry="4.4"/>
		
			<ellipse transform="matrix(0.9837 -0.1797 0.1797 0.9837 -40.2572 47.8338)" class="st7" cx="243.9" cy="246.1" rx="4.4" ry="5.3"/>
		<ellipse transform="matrix(0.917 -0.399 0.399 0.917 -72.9779 119.7549)" class="st7" cx="251.2" cy="235.2" rx="3.8" ry="4.6"/>
		
			<ellipse transform="matrix(0.8577 -0.5142 0.5142 0.8577 -93.6182 167.9154)" class="st7" cx="256.5" cy="253.1" rx="3.7" ry="4.5"/>
		<ellipse class="st7" cx="262.3" cy="228.2" rx="3.1" ry="3.7"/>
		
			<ellipse transform="matrix(0.9761 -0.2172 0.2172 0.9761 -46.2622 62.7205)" class="st7" cx="262.2" cy="241.8" rx="3.1" ry="3.7"/>
		
			<ellipse transform="matrix(0.7118 -0.7023 0.7023 0.7118 -101.5962 311.1657)" class="st8" cx="328.4" cy="279.4" rx="7.7" ry="6.3"/>
		
			<ellipse transform="matrix(0.8204 -0.5717 0.5717 0.8204 -95.7799 229.0726)" class="st8" cx="316.8" cy="267" rx="6.2" ry="5.1"/>
		
			<ellipse transform="matrix(0.8204 -0.5717 0.5717 0.8204 -90.4843 219.4701)" class="st8" cx="304.2" cy="253.8" rx="3.9" ry="3.2"/>
		
			<ellipse transform="matrix(0.7416 -0.6708 0.6708 0.7416 -107.9637 281.99)" class="st8" cx="312.1" cy="281.1" rx="6.7" ry="5.5"/>
		
			<ellipse transform="matrix(0.7416 -0.6708 0.6708 0.7416 -99.8107 272.0832)" class="st8" cx="303.3" cy="265.6" rx="5.5" ry="4.5"/>
		
			<ellipse transform="matrix(0.7416 -0.6708 0.6708 0.7416 -98.5018 264.0283)" class="st8" cx="293.5" cy="259.9" rx="4.6" ry="3.8"/>
		
			<ellipse transform="matrix(0.8912 -0.4537 0.4537 0.8912 -101.1174 168.4984)" class="st8" cx="300.6" cy="295" rx="7.7" ry="6.6"/>
		
			<ellipse transform="matrix(0.9399 -0.3414 0.3414 0.9399 -81.0273 114.9978)" class="st8" cx="286.2" cy="287.7" rx="6.8" ry="5.5"/>
		
			<ellipse transform="matrix(0.8204 -0.5717 0.5717 0.8204 -105.3526 220.1312)" class="st8" cx="297.8" cy="277.8" rx="5.9" ry="4.8"/>
		
			<ellipse transform="matrix(0.9731 -0.2302 0.2302 0.9731 -54.621 72.9918)" class="st8" cx="285.5" cy="270.6" rx="5.9" ry="4.8"/>
		
			<ellipse transform="matrix(0.9995 -3.059884e-02 3.059884e-02 0.9995 -8.8575 8.3775)" class="st9" cx="269.3" cy="293.6" rx="7.4" ry="6"/>
		
			<ellipse transform="matrix(0.6309 -0.7759 0.7759 0.6309 -126.581 290.6804)" class="st9" cx="242.2" cy="278.4" rx="6.1" ry="7.5"/>
		
			<ellipse transform="matrix(0.153 -0.9882 0.9882 0.153 -57.5883 494.0053)" class="st9" cx="259.4" cy="280.6" rx="5.1" ry="6.3"/>
		<ellipse transform="matrix(0.2295 -0.9733 0.9733 0.2295 -59.0671 481.3429)" class="st9" cx="274.5" cy="278" rx="5" ry="6.1"/>
		
			<ellipse transform="matrix(0.3174 -0.9483 0.9483 0.3174 -79.0559 424.5668)" class="st9" cx="255.4" cy="267.2" rx="4.6" ry="5.6"/>
		
			<ellipse transform="matrix(0.2079 -0.9781 0.9781 0.2079 -46.9273 473.0656)" class="st9" cx="268.6" cy="265.5" rx="4.1" ry="5.1"/>
		
			<ellipse transform="matrix(0.4128 -0.9108 0.9108 0.4128 -79.8749 381.7904)" class="st9" cx="256.2" cy="252.8" rx="4.1" ry="5"/>
		
			<ellipse transform="matrix(8.574481e-02 -0.9963 0.9963 8.574481e-02 -2.9847 517.3877)" class="st9" cx="280.4" cy="260.3" rx="3.1" ry="3.8"/>
		<ellipse transform="matrix(0.4526 -0.8917 0.8917 0.4526 -79.6969 378.1593)" class="st9" cx="268.2" cy="254" rx="3" ry="3.7"/>
		
			<ellipse transform="matrix(0.7997 -0.6004 0.6004 0.7997 -109.1988 196.8258)" class="st7" cx="240.4" cy="262.1" rx="4.5" ry="5.5"/>
		
			<ellipse transform="matrix(0.5976 -0.8018 0.8018 0.5976 -84.1383 270.7906)" class="st7" cx="227.7" cy="219.2" rx="7.3" ry="6"/>
		<ellipse transform="matrix(0.2489 -0.9685 0.9685 0.2489 -25.53 426.1699)" class="st7" cx="262" cy="229.5" rx="3.7" ry="3.1"/>
	</g>
	<polygon class="st10" points="379.8,191.5 371,196.5 365.6,187.2 374.4,182.2 	"/>
	<polygon class="st11" points="381.5,279.7 370.1,273.2 364.7,282.5 376.1,289.1 	"/>
</g>
</svg>
