<?xml version="1.0" encoding="utf-8"?>
<!-- Generator: Adobe Illustrator 23.0.3, SVG Export Plug-In . SVG Version: 6.00 Build 0)  -->
<svg version="1.1" id="Layer_1" xmlns="http://www.w3.org/2000/svg" xmlns:xlink="http://www.w3.org/1999/xlink" x="0px" y="0px"
	 viewBox="0 0 956 469" style="enable-background:new 0 0 956 469;" xml:space="preserve">
<style type="text/css">
	.st0{fill:none;}
	.st1{fill:#E95420;}
	.st2{fill:#FFFFFF;}
</style>
<rect y="0" class="st0" width="956" height="469"/>
<g>
	<g>
		<path d="M164.8,320.7c-5,1.3-11.6,2.6-19.8,4c-8.2,1.4-17.7,2.1-28.5,2.1c-9.4,0-17.3-1.4-23.7-4.1c-6.4-2.7-11.6-6.6-15.5-11.6
			c-3.9-5-6.7-10.9-8.4-17.7c-1.7-6.8-2.6-14.4-2.6-22.6v-68.5H88V266c0,14.9,2.3,25.5,7,31.9c4.7,6.4,12.6,9.6,23.7,9.6
			c2.4,0,4.8-0.1,7.3-0.2c2.5-0.2,4.9-0.4,7-0.6c2.2-0.2,4.2-0.5,6-0.7c1.8-0.2,3.1-0.5,3.9-0.8v-103h21.8L164.8,320.7L164.8,320.7z
			"/>
		<path d="M218,207.5c2.7-1.7,6.7-3.5,12.1-5.4c5.4-1.9,11.6-2.8,18.7-2.8c8.8,0,16.6,1.6,23.4,4.7c6.8,3.1,12.6,7.5,17.3,13.1
			c4.7,5.6,8.2,12.4,10.7,20.2c2.4,7.8,3.6,16.4,3.6,25.8c0,9.9-1.5,18.7-4.3,26.6c-2.9,7.9-7,14.6-12.3,20.1
			c-5.3,5.5-11.7,9.7-19.2,12.7c-7.5,3-16,4.5-25.4,4.5c-10.2,0-19.2-0.7-27-2.1c-7.8-1.4-14.2-2.8-19.2-4.2V145.8L218,142
			L218,207.5L218,207.5z M218,305.2c2.2,0.6,5.3,1.2,9.3,1.8c4,0.6,9,0.8,14.9,0.8c11.7,0,21.1-3.9,28.2-11.6
			c7-7.7,10.6-18.7,10.6-33c0-6.3-0.6-12.1-1.9-17.6c-1.3-5.5-3.3-10.2-6.1-14.2c-2.8-4-6.5-7.1-10.9-9.4c-4.5-2.3-9.8-3.4-16.1-3.4
			c-6,0-11.4,1-16.4,3.1c-5,2-8.8,4.1-11.5,6.3L218,305.2L218,305.2z"/>
		<path d="M425.5,320.7c-5,1.3-11.6,2.6-19.8,4c-8.2,1.4-17.7,2.1-28.5,2.1c-9.4,0-17.3-1.4-23.7-4.1c-6.4-2.7-11.6-6.6-15.5-11.6
			c-3.9-5-6.7-10.9-8.5-17.7c-1.7-6.8-2.6-14.4-2.6-22.6v-68.5h21.8V266c0,14.9,2.4,25.5,7,31.9c4.7,6.4,12.6,9.6,23.7,9.6
			c2.4,0,4.8-0.1,7.3-0.2c2.5-0.2,4.8-0.4,7-0.6c2.2-0.2,4.2-0.5,6-0.7c1.8-0.2,3.1-0.5,3.9-0.8v-103h21.8L425.5,320.7L425.5,320.7z
			"/>
		<path d="M457,205.6c5-1.3,11.7-2.6,20-4c8.3-1.4,17.8-2.1,28.6-2.1c9.7,0,17.8,1.4,24.2,4.1c6.4,2.7,11.5,6.6,15.4,11.5
			c3.8,4.9,6.5,10.8,8.1,17.7c1.6,6.9,2.3,14.5,2.3,22.8v68.5h-21.8v-63.8c0-7.5-0.5-13.9-1.5-19.2c-1-5.3-2.7-9.6-5-12.9
			c-2.3-3.3-5.5-5.7-9.4-7.2c-3.9-1.5-8.8-2.2-14.5-2.2c-2.4,0-4.8,0.1-7.3,0.2c-2.5,0.2-4.9,0.4-7.2,0.6c-2.3,0.2-4.3,0.5-6.1,0.8
			c-1.8,0.3-3.1,0.5-3.9,0.7v103H457L457,205.6L457,205.6z"/>
		<path d="M606,202.1h46.2v18.3H606v56.3c0,6.1,0.5,11.2,1.4,15.1c0.9,4,2.4,7.1,4.2,9.4c1.9,2.3,4.2,3.9,7,4.8
			c2.8,0.9,6.1,1.4,9.9,1.4c6.7,0,12-0.7,16-2.2c3.9-1.5,6.6-2.5,8-3.2l4.7,17.8c-2.2,1.1-6.1,2.5-11.6,4.2
			c-5.6,1.7-11.8,2.6-18.9,2.6c-8.3,0-15.1-1.1-20.5-3.2c-5.4-2.1-9.7-5.3-13-9.5c-3.3-4.2-5.6-9.4-6.9-15.6c-1.3-6.2-2-13.3-2-21.5
			V168.1l21.8-3.8L606,202.1L606,202.1z"/>
		<path d="M771.1,320.7c-5,1.3-11.6,2.6-19.8,4c-8.2,1.4-17.7,2.1-28.5,2.1c-9.4,0-17.3-1.4-23.7-4.1c-6.4-2.7-11.6-6.6-15.5-11.6
			c-3.9-5-6.7-10.9-8.5-17.7c-1.7-6.8-2.6-14.4-2.6-22.6v-68.5h21.8V266c0,14.9,2.3,25.5,7,31.9c4.7,6.4,12.6,9.6,23.7,9.6
			c2.3,0,4.8-0.1,7.3-0.2c2.5-0.2,4.8-0.4,7-0.6c2.2-0.2,4.2-0.5,6-0.7c1.8-0.2,3.1-0.5,3.9-0.8v-103h21.8L771.1,320.7L771.1,320.7z
			"/>
	</g>
	<g>
		<circle class="st1" cx="840.5" cy="191.3" r="49.3"/>
		<g>
			<path class="st2" d="M815.6,191.3c0,3.3-2.7,6-6,6c-3.3,0-6-2.7-6-6c0-3.3,2.7-6,6-6C812.9,185.3,815.6,188,815.6,191.3z
				 M849.9,220.6c1.7,2.9,5.3,3.9,8.2,2.2c2.9-1.7,3.9-5.3,2.2-8.2c-1.7-2.9-5.3-3.9-8.2-2.2C849.2,214,848.2,217.7,849.9,220.6z
				 M860.3,168.1c1.7-2.9,0.7-6.6-2.2-8.2c-2.9-1.7-6.6-0.7-8.2,2.2c-1.7,2.9-0.7,6.6,2.2,8.2C854.9,171.9,858.6,170.9,860.3,168.1z
				 M839.9,174.1c9,0,16.3,6.9,17.1,15.6l8.7-0.1c-0.4-6.5-3.2-12.4-7.6-16.7c-2.3,0.9-5,0.8-7.3-0.6c-2.3-1.3-3.8-3.6-4.1-6
				c-2.2-0.6-4.4-0.9-6.8-0.9c-4.1,0-8,1-11.5,2.7l4.2,7.6C834.9,174.7,837.3,174.1,839.9,174.1z M822.7,191.3
				c0-5.8,2.9-10.9,7.3-14.1l-4.5-7.5c-5.2,3.5-9,8.7-10.7,14.9c1.9,1.6,3.2,3.9,3.2,6.6c0,2.7-1.2,5-3.2,6.6
				c1.6,6.2,5.5,11.5,10.7,14.9l4.5-7.5C825.6,202.3,822.7,197.1,822.7,191.3z M839.9,208.5c-2.6,0-5-0.6-7.2-1.6l-4.2,7.6
				c3.5,1.7,7.4,2.7,11.5,2.7c2.4,0,4.6-0.3,6.8-0.9c0.4-2.4,1.8-4.7,4.1-6c2.3-1.3,5-1.5,7.3-0.6c4.4-4.3,7.2-10.2,7.6-16.7
				l-8.7-0.1C856.2,201.6,848.9,208.5,839.9,208.5z"/>
		</g>
	</g>
</g>
</svg>
