<?xml version="1.0" encoding="utf-8"?>
<!-- Generator: Adobe Illustrator 23.0.3, SVG Export Plug-In . SVG Version: 6.00 Build 0)  -->
<svg version="1.1" id="Layer_1" xmlns="http://www.w3.org/2000/svg" xmlns:xlink="http://www.w3.org/1999/xlink" x="0px" y="0px"
	 viewBox="0 0 956 469" style="enable-background:new 0 0 956 469;" xml:space="preserve">
<style type="text/css">
	.st0{fill:#FFFFFF;}
	.st1{fill:none;stroke:#4D4E4E;stroke-width:3;stroke-miterlimit:10;}
	.st2{fill:none;}
	.st3{fill:#FFC107;}
</style>
<g>
	<path class="st0" d="M641.2,210.9c-1.2,10.4,6.2,19.9,16.7,21.2c3.3,0.4,6.4-0.1,9.3-1.2l27.3,34.7c-3.8,3.9-6.5,9-7.2,14.8
		s0.7,11.4,3.5,16.1l-27,21.3c-1.7-1.3-3.8-2.3-6.2-2.5c-7-0.8-13.3,4.2-14.1,11.1c-0.8,7,4.2,13.3,11.1,14.1
		c7,0.8,13.3-4.2,14.1-11.1c0.3-2.3-0.1-4.6-1-6.6l27-21.3c3.9,3.8,9,6.5,14.8,7.2s11.4-0.7,16.1-3.5l35.2,44.6
		c-3.4,3-5.8,7.2-6.4,12.1c-1.2,10.4,6.2,19.9,16.7,21.2c10.4,1.2,19.9-6.2,21.2-16.7c1.2-10.4-6.2-19.9-16.7-21.2
		c-3.3-0.4-6.4,0.1-9.3,1.2l-35.6-45.2c3.1-3.2,5.4-7.2,6.6-11.7l32,3.8c0.4,9.1,7.4,16.9,16.8,18c10.4,1.2,19.9-6.2,21.2-16.7
		c1.2-10.4-6.2-19.9-16.7-21.2c-9.4-1.1-17.9,4.8-20.5,13.5l-32-3.8c0-4.7-1.3-9.1-3.6-12.9l27-21.3c1.7,1.3,3.8,2.3,6.2,2.5
		c7,0.8,13.3-4.2,14.1-11.1c0.8-7-4.2-13.3-11.1-14.1s-13.3,4.2-14.1,11.1c-0.3,2.3,0.1,4.6,1,6.6l-27,21.3c-3.9-3.8-9-6.5-14.8-7.2
		s-11.4,0.7-16.1,3.5l-26.8-34.1c3.4-3,5.8-7.2,6.4-12.1c1.2-10.4-6.2-19.9-16.7-21.2S642.4,200.5,641.2,210.9z M655.3,334.1
		c-3.5-0.4-6-3.6-5.6-7.1c0.4-3.5,3.6-6,7.1-5.6c3.5,0.4,6,3.6,5.6,7.1S658.8,334.5,655.3,334.1z M785.8,365.5
		c-0.8,7-7.1,11.9-14.1,11.1s-11.9-7.1-11.1-14.1c0.8-7,7.1-11.9,14.1-11.1S786.7,358.6,785.8,365.5z M789.6,279.7
		c7,0.8,11.9,7.1,11.1,14.1c-0.8,7-7.1,11.9-14.1,11.1s-11.9-7.1-11.1-14.1C776.4,283.8,782.7,278.9,789.6,279.7z M731.4,285.6
		c-1.2,10.4-10.7,17.9-21.2,16.7c-10.4-1.2-17.9-10.7-16.7-21.2s10.7-17.9,21.2-16.7C725.2,265.6,732.6,275.1,731.4,285.6z
		 M769.7,232.6c3.5,0.4,6,3.6,5.6,7.1c-0.4,3.5-3.6,6-7.1,5.6c-3.5-0.4-6-3.6-5.6-7.1C763,234.7,766.2,232.2,769.7,232.6z
		 M672.7,214.7c-0.8,7-7.1,11.9-14.1,11.1c-7-0.8-11.9-7.1-11.1-14.1c0.8-7,7.1-11.9,14.1-11.1C668.5,201.4,673.5,207.7,672.7,214.7
		z"/>
	<path class="st1" d="M645.2,210.7c-1.2,10.4,6.2,19.9,16.7,21.2c3.3,0.4,6.4-0.1,9.3-1.2l27.3,34.7c-3.8,3.9-6.5,9-7.2,14.8
		s0.7,11.4,3.5,16.1l-27,21.3c-1.7-1.3-3.8-2.3-6.2-2.5c-7-0.8-13.3,4.2-14.1,11.1c-0.8,7,4.2,13.3,11.1,14.1s13.3-4.2,14.1-11.1
		c0.3-2.3-0.1-4.6-1-6.6l27-21.3c3.9,3.8,9,6.5,14.8,7.2s11.4-0.7,16.1-3.5l35.2,44.6c-3.4,3-5.8,7.2-6.4,12.1
		c-1.2,10.4,6.2,19.9,16.7,21.2c10.4,1.2,19.9-6.2,21.2-16.7s-6.2-19.9-16.7-21.2c-3.3-0.4-6.4,0.1-9.3,1.2l-35.6-45.2
		c3.1-3.2,5.4-7.2,6.6-11.7l32,3.8c0.4,9.1,7.4,16.9,16.8,18c10.4,1.2,19.9-6.2,21.2-16.7c1.2-10.4-6.2-19.9-16.7-21.2
		c-9.4-1.1-17.9,4.8-20.5,13.5l-32-3.8c0-4.7-1.3-9.1-3.6-12.9l27-21.3c1.7,1.3,3.8,2.3,6.2,2.5c7,0.8,13.3-4.2,14.1-11.1
		c0.8-7-4.2-13.3-11.1-14.1c-7-0.8-13.3,4.2-14.1,11.1c-0.3,2.3,0.1,4.6,1,6.6l-27,21.3c-3.9-3.8-9-6.5-14.8-7.2s-11.4,0.7-16.1,3.5
		l-26.8-34.1c3.4-3,5.8-7.2,6.4-12.1c1.2-10.4-6.2-19.9-16.7-21.2C655.9,192.8,646.4,200.3,645.2,210.7z M659.3,333.8
		c-3.5-0.4-6-3.6-5.6-7.1c0.4-3.5,3.6-6,7.1-5.6c3.5,0.4,6,3.6,5.6,7.1C666,331.7,662.8,334.2,659.3,333.8z M789.8,365.3
		c-0.8,7-7.1,11.9-14.1,11.1s-11.9-7.1-11.1-14.1c0.8-7,7.1-11.9,14.1-11.1C785.7,352,790.7,358.3,789.8,365.3z M793.6,279.4
		c7,0.8,11.9,7.1,11.1,14.1c-0.8,7-7.1,11.9-14.1,11.1s-11.9-7.1-11.1-14.1C780.3,283.6,786.7,278.6,793.6,279.4z M735.4,285.3
		c-1.2,10.4-10.7,17.9-21.2,16.7c-10.4-1.2-17.9-10.7-16.7-21.2c1.2-10.4,10.7-17.9,21.2-16.7S736.6,274.9,735.4,285.3z
		 M773.6,232.3c3.5,0.4,6,3.6,5.6,7.1c-0.4,3.5-3.6,6-7.1,5.6c-3.5-0.4-6-3.6-5.6-7.1S770.2,231.9,773.6,232.3z M676.7,214.4
		c-0.8,7-7.1,11.9-14.1,11.1s-11.9-7.1-11.1-14.1c0.8-7,7.1-11.9,14.1-11.1S677.5,207.5,676.7,214.4z"/>
</g>
<title>Asset 14</title>
<rect y="0" class="st2" width="956" height="469"/>
<rect x="555.9" y="353.3" class="st0" width="6.7" height="6.6"/>
<path class="st3" d="M391.5,397.4h-2.4l-0.7-3h-7.2l-1.8,3H377l10.8-18.3L391.5,397.4z M385.2,392.5h2.8c-0.2-1.1-0.5-2.4-0.7-3.7
	s-0.4-2.5-0.6-3.7c-0.7,1.1-1.4,2.4-2.1,3.7s-1.4,2.5-2.1,3.7H385.2z"/>
<path class="st3" d="M403.2,379.2c0.6,0,1.1,0.1,1.7,0.2c0.5,0.1,1,0.3,1.5,0.5c0.5,0.2,0.9,0.5,1.3,0.9c0.2,0.2,0.5,0.4,0.6,0.6
	l-2,1.8c-0.4-0.4-0.8-0.7-1.3-1c-0.7-0.3-1.5-0.5-2.3-0.5c-0.9,0-1.7,0.2-2.5,0.5c-0.8,0.4-1.6,0.9-2.3,1.5
	c-0.7,0.6-1.3,1.4-1.8,2.2l0,0c-0.5,0.8-0.8,1.7-1,2.6c-0.2,0.9-0.2,1.7,0,2.6c0.2,0.8,0.5,1.5,1,2.2c0.4,0.6,1,1.1,1.7,1.5
	c0.7,0.3,1.5,0.5,2.3,0.5c0.9,0,1.7-0.2,2.5-0.5c0.6-0.2,1.2-0.6,1.7-1l1.3,1.8c-0.3,0.2-0.6,0.4-0.9,0.6c-0.5,0.3-1.1,0.6-1.6,0.9
	c-1.1,0.5-2.3,0.7-3.5,0.7c-1.1,0-2.2-0.2-3.1-0.7c-0.9-0.5-1.8-1.1-2.4-2c-0.7-0.9-1.1-1.9-1.3-3c-0.2-1.2-0.2-2.4,0.1-3.5
	c0.2-1.2,0.7-2.4,1.3-3.5c0.7-1.1,1.5-2.1,2.5-3c0.9-0.8,2-1.5,3.2-2c0.8-0.3,1.6-0.5,2.5-0.6L403.2,379.2z"/>
<path class="st3" d="M416.4,379.2c0.6,0,1.1,0.1,1.7,0.2c0.5,0.1,1,0.3,1.5,0.5c0.5,0.2,0.9,0.5,1.3,0.9c0.2,0.2,0.5,0.4,0.6,0.6
	l-2,1.8c-0.4-0.4-0.8-0.7-1.3-1c-0.7-0.3-1.5-0.5-2.3-0.5c-0.9,0-1.7,0.2-2.5,0.5c-0.8,0.4-1.6,0.9-2.3,1.5
	c-0.7,0.6-1.3,1.4-1.8,2.2l0,0c-0.5,0.8-0.8,1.7-1,2.6c-0.2,0.9-0.2,1.7,0,2.6c0.2,0.8,0.5,1.5,1,2.2c0.4,0.6,1,1.1,1.7,1.5
	c0.7,0.3,1.5,0.5,2.3,0.5c0.9,0,1.7-0.2,2.5-0.5c0.6-0.3,1.2-0.6,1.7-1l1.3,1.8c-0.3,0.2-0.6,0.4-0.9,0.6c-0.5,0.3-1.1,0.6-1.6,0.9
	c-1.1,0.5-2.3,0.7-3.5,0.7c-1.1,0-2.2-0.2-3.1-0.7c-0.9-0.5-1.8-1.1-2.4-2c-0.7-0.9-1.1-1.9-1.3-3c-0.2-1.2-0.2-2.4,0.1-3.5
	c0.2-1.2,0.7-2.4,1.3-3.5c0.7-1.1,1.5-2.1,2.5-3c0.9-0.8,2-1.5,3.2-2c0.8-0.3,1.6-0.5,2.5-0.6L416.4,379.2z"/>
<path class="st3" d="M433.1,379.3l-0.5,2.4h-7.4l-0.1,0.8l-0.8,4l-0.1,0.8h5.5l-0.5,2.4h-5.5l-0.1,0.8l-0.8,4l-0.1,0.8h7.4l-0.5,2.4
	h-9.6l3.5-18.2L433.1,379.3z"/>
<path class="st3" d="M436.9,394.9c0.4-0.1,0.7-0.3,1-0.6c0.3-0.2,0.6-0.5,0.8-0.9c0.2-0.3,0.4-0.7,0.5-1.1c0.1-0.3,0.1-0.6,0-0.9
	c-0.1-0.3-0.2-0.5-0.4-0.7c-0.2-0.2-0.4-0.4-0.7-0.6c-0.3-0.2-0.5-0.3-0.8-0.4c-0.3-0.1-0.5-0.2-0.9-0.3c-0.6-0.2-1.3-0.5-1.8-0.9
	c-0.5-0.4-1-0.8-1.3-1.4c-0.2-0.4-0.4-0.8-0.4-1.3c-0.1-0.5-0.1-1,0-1.5c0.1-0.7,0.4-1.4,0.8-2c0.4-0.6,0.8-1.2,1.4-1.7
	c0.5-0.5,1.1-0.9,1.8-1.1c0.6-0.3,1.3-0.4,2-0.4c0.6,0,1.1,0.1,1.6,0.3c0.5,0.2,0.9,0.5,1.3,0.9c0.6,0.7,1,1.6,1,2.5l-2.4,0.5
	c-0.1-0.4-0.2-0.7-0.4-1c-0.4-0.5-1-0.8-1.6-0.8c-0.3,0-0.7,0.1-1,0.2c-0.4,0.1-0.7,0.4-1,0.6c-0.3,0.3-0.5,0.6-0.7,0.9
	c-0.2,0.3-0.3,0.7-0.4,1c0,0.2,0,0.5,0,0.8c0,0.2,0.1,0.4,0.2,0.6c0.1,0.2,0.2,0.3,0.4,0.5c0.1,0.1,0.3,0.3,0.5,0.4
	c0.2,0.1,0.3,0.2,0.5,0.3s0.4,0.2,0.6,0.3l0.6,0.2l0.5,0.2c0.4,0.2,0.7,0.3,1.1,0.5c0.3,0.2,0.6,0.5,0.9,0.8c0.3,0.3,0.5,0.6,0.7,1
	c0.2,0.4,0.3,0.8,0.4,1.2c0.1,0.5,0,0.9,0,1.4c-0.1,0.7-0.4,1.4-0.8,2.1c-0.4,0.6-0.9,1.2-1.5,1.7c-0.6,0.5-1.2,0.8-1.9,1.1
	c-0.6,0.3-1.3,0.4-2,0.4c-0.7,0-1.4-0.2-2-0.5c-0.6-0.3-1.1-0.8-1.5-1.4c-0.4-0.6-0.6-1.3-0.7-2l2.4-0.5c0.1,0.5,0.4,1,0.8,1.3
	c0.4,0.3,0.9,0.5,1.5,0.5C436.2,395.2,436.6,395.1,436.9,394.9z"/>
<path class="st3" d="M447.9,394.9c0.4-0.1,0.7-0.3,1-0.6c0.3-0.2,0.6-0.5,0.8-0.9c0.2-0.3,0.4-0.7,0.5-1.1c0.1-0.3,0.1-0.6,0-0.9
	c-0.1-0.3-0.2-0.5-0.4-0.7c-0.2-0.2-0.4-0.4-0.7-0.6c-0.3-0.2-0.5-0.3-0.8-0.4c-0.3-0.1-0.5-0.2-0.9-0.3c-0.6-0.2-1.3-0.5-1.8-0.9
	c-0.5-0.4-1-0.8-1.3-1.4c-0.2-0.4-0.4-0.8-0.4-1.3c-0.1-0.5-0.1-1,0-1.5c0.1-0.7,0.4-1.4,0.8-2c0.4-0.6,0.8-1.2,1.4-1.7
	c0.5-0.5,1.1-0.9,1.8-1.1c0.6-0.3,1.3-0.4,2-0.4c0.6,0,1.1,0.1,1.6,0.3c0.5,0.2,0.9,0.5,1.3,0.9c0.6,0.7,1,1.6,1,2.5l-2.4,0.5
	c-0.1-0.4-0.2-0.7-0.4-1c-0.4-0.5-1-0.8-1.6-0.8c-0.3,0-0.7,0.1-1,0.2c-0.3,0.2-0.7,0.4-1,0.6c-0.3,0.3-0.5,0.6-0.7,0.9
	c-0.2,0.3-0.3,0.7-0.4,1c0,0.2,0,0.5,0,0.8c0,0.2,0.1,0.4,0.2,0.6c0.1,0.2,0.2,0.3,0.4,0.5c0.1,0.1,0.3,0.3,0.5,0.4
	c0.2,0.1,0.3,0.2,0.5,0.3s0.4,0.2,0.6,0.3l0.6,0.2l0.5,0.2c0.4,0.2,0.7,0.3,1.1,0.5c0.3,0.2,0.6,0.5,0.9,0.8c0.3,0.3,0.5,0.6,0.7,1
	c0.2,0.4,0.3,0.8,0.4,1.2c0.1,0.5,0,0.9,0,1.4c-0.1,0.7-0.4,1.4-0.8,2.1c-0.4,0.6-0.9,1.2-1.5,1.7c-0.6,0.5-1.2,0.8-1.9,1.1
	c-0.6,0.3-1.3,0.4-2,0.4c-0.7,0-1.4-0.2-2-0.5c-0.6-0.3-1.1-0.8-1.5-1.4c-0.4-0.6-0.6-1.3-0.7-2l2.4-0.5c0.1,0.5,0.4,1,0.8,1.3
	c0.4,0.3,0.9,0.5,1.5,0.5C447.2,395.2,447.6,395.1,447.9,394.9z"/>
<path class="st3" d="M471.9,391.6l0.4-2.2l2-10.1h2.3l-3.6,18.5l-8.6-12.6l-0.3,1.4l-2.1,11h-2.3l3.6-18.4L471.9,391.6z"/>
<path class="st3" d="M488.4,379.3l-0.5,2.4h-7.4l-0.1,0.8l-0.8,4l-0.1,0.8h5.5l-0.5,2.4H479l-0.1,0.8l-0.8,4l-0.1,0.8h7.4l-0.5,2.4
	h-9.6l3.5-18.2L488.4,379.3z"/>
<path class="st3" d="M496.8,379.3h3.8l-0.5,2.4h-4.5l-0.1,0.8l-2.9,15h-2.3l2.9-15l0.1-0.8h-4.5l0.5-2.4H496.8z"/>
<path class="st3" d="M503.9,379.3l1.7,11.4l5.5-10.7l1.3,10.7l6.1-11.4h2.4l-9.9,18.5l-1.3-11.1l-5.5,11l-2.7-18.4L503.9,379.3z"/>
<path class="st3" d="M532.6,379.8c0.9,0.5,1.8,1.2,2.4,2c0.7,0.9,1.1,1.9,1.3,3c0.2,1.2,0.2,2.4,0,3.5c-0.2,1.2-0.7,2.4-1.3,3.5
	c-0.7,1.1-1.5,2.1-2.5,3c-0.9,0.8-2,1.5-3.2,2c-1.1,0.4-2.2,0.7-3.4,0.7c-1.1,0-2.2-0.2-3.2-0.7c-0.9-0.5-1.8-1.1-2.4-2
	c-0.7-0.9-1.1-1.9-1.3-3c-0.2-1.2-0.2-2.4,0.1-3.5c0.2-1.2,0.7-2.4,1.3-3.5c0.7-1.1,1.5-2.1,2.5-3c0.9-0.8,2-1.5,3.2-2
	c1.1-0.5,2.2-0.7,3.4-0.7C530.6,379.2,531.6,379.4,532.6,379.8z M526.5,382.1c-0.8,0.4-1.6,0.9-2.3,1.5c-0.7,0.6-1.3,1.4-1.8,2.2
	c-0.5,0.8-0.8,1.7-1,2.6c-0.2,0.9-0.2,1.7,0,2.6c0.2,0.8,0.5,1.5,1,2.2c0.4,0.6,1,1.1,1.7,1.5c0.7,0.3,1.5,0.5,2.3,0.5
	c0.9,0,1.7-0.2,2.5-0.5c0.8-0.4,1.6-0.9,2.3-1.5c0.7-0.6,1.3-1.4,1.8-2.2c0.5-0.8,0.8-1.7,1-2.6c0.2-0.9,0.2-1.7,0-2.6
	c-0.2-0.8-0.5-1.5-1-2.2c-0.5-0.6-1.1-1.1-1.8-1.5c-0.7-0.3-1.5-0.5-2.3-0.5C528,381.6,527.2,381.8,526.5,382.1z"/>
<path class="st3" d="M539.5,379.3h5.3c0.8,0,1.6,0.2,2.3,0.5c0.6,0.3,1.2,0.7,1.7,1.3c0.4,0.5,0.7,1.1,0.9,1.8
	c0.1,0.7,0.1,1.4,0,2.1l-0.1,0.5c-0.1,0.6-0.3,1.2-0.6,1.7c-0.3,0.6-0.7,1.1-1.1,1.6c-0.3,0.4-0.6,0.7-1,1c-0.4,0.2-0.8,0.4-1.2,0.6
	l-0.9,0.3l0.3,0.8l2.4,6h-2.8l-2.7-6.4h-2.5l-1.2,6.4H536L539.5,379.3z M543.3,388.6L543.3,388.6c0.4,0,0.9-0.1,1.3-0.3
	c0.4-0.2,0.8-0.5,1.1-0.8c0.4-0.3,0.7-0.7,1-1.2c0.2-0.4,0.4-0.9,0.5-1.4c0.1-0.4,0.1-0.9,0-1.3c-0.1-0.4-0.3-0.8-0.5-1.1l0,0
	c-0.3-0.4-0.7-0.6-1.1-0.8c-0.5-0.2-1-0.3-1.5-0.3h-2.8l-0.2,0.8l-1.1,5.4l-0.1,0.8h0.7h0.9L543.3,388.6L543.3,388.6z"/>
<path class="st3" d="M553,388.6l6.8-9.3h2.6l-6.5,8.9l-0.3,0.4l0.2,0.4l3.9,8.5h-2.7l-3.9-8.7l-1.7,8.7H549l3.5-18.2h2.2L553,388.6z
	"/>
<path class="st3" d="M571.3,379.3h5.3c0.8,0,1.6,0.2,2.3,0.5c0.6,0.3,1.2,0.7,1.7,1.3c0.4,0.5,0.7,1.1,0.8,1.8
	c0.1,0.7,0.1,1.4,0,2.1l-0.1,0.5c-0.1,0.6-0.3,1.2-0.6,1.7c-0.3,0.6-0.7,1.1-1.1,1.6c-0.3,0.4-0.6,0.7-1,1c-0.4,0.2-0.8,0.4-1.2,0.6
	l-0.9,0.3l0.3,0.8l2.4,6h-2.8l-2.6-6.4h-2.5l-1.2,6.4h-2.3L571.3,379.3z M575.1,388.6L575.1,388.6c0.4,0,0.9-0.1,1.3-0.3
	c0.4-0.2,0.8-0.5,1.1-0.8c0.4-0.3,0.7-0.7,1-1.2c0.2-0.4,0.4-0.9,0.5-1.4c0.1-0.4,0.1-0.9,0-1.3c-0.1-0.4-0.3-0.8-0.5-1.1l0,0
	c-0.3-0.4-0.7-0.6-1.1-0.8c-0.5-0.2-1-0.3-1.5-0.3h-2.8l-0.2,0.8l-1.1,5.4l-0.1,0.8h0.7h0.9L575.1,388.6L575.1,388.6z"/>
<path class="st3" d="M594,379.3l-0.5,2.4h-7.3l-0.2,0.8l-0.8,4l-0.2,0.8h5.5l-0.5,2.4h-5.5l-0.2,0.8l-0.8,4l-0.1,0.8h7.3l-0.5,2.4
	h-9.6l3.5-18.2L594,379.3z"/>
<path class="st3" d="M597.8,394.9c0.4-0.1,0.7-0.3,1-0.6c0.3-0.2,0.6-0.5,0.8-0.9c0.2-0.3,0.4-0.7,0.5-1.1c0.1-0.3,0.1-0.6,0-0.9
	c-0.1-0.3-0.2-0.5-0.4-0.7c-0.2-0.2-0.4-0.4-0.7-0.6c-0.3-0.2-0.5-0.3-0.8-0.4c-0.3-0.1-0.5-0.2-0.9-0.3c-0.6-0.2-1.3-0.5-1.8-0.9
	c-0.5-0.4-1-0.8-1.3-1.4c-0.2-0.4-0.4-0.8-0.4-1.3c-0.1-0.5-0.1-1,0-1.5c0.1-0.7,0.4-1.4,0.8-2c0.4-0.6,0.8-1.2,1.4-1.7
	c0.5-0.5,1.1-0.9,1.8-1.1c0.6-0.3,1.3-0.4,2-0.4c0.6,0,1.1,0.1,1.7,0.3c0.5,0.2,0.9,0.5,1.3,0.9c0.6,0.7,1,1.6,1,2.5l-2.3,0.5
	c-0.1-0.4-0.2-0.7-0.4-1c-0.4-0.5-1-0.8-1.6-0.8c-0.3,0-0.7,0.1-1,0.2c-0.4,0.1-0.7,0.3-1,0.6c-0.3,0.3-0.5,0.6-0.7,0.9
	c-0.2,0.3-0.3,0.7-0.4,1c0,0.2,0,0.5,0,0.8c0,0.2,0.1,0.4,0.2,0.6c0.1,0.2,0.2,0.3,0.3,0.5c0.1,0.1,0.3,0.3,0.5,0.4
	c0.2,0.1,0.3,0.2,0.5,0.3s0.4,0.2,0.6,0.3l0.6,0.2l0.5,0.2c0.4,0.2,0.7,0.3,1.1,0.5c0.3,0.2,0.6,0.5,0.9,0.8c0.3,0.3,0.5,0.6,0.7,1
	c0.2,0.4,0.3,0.8,0.4,1.2c0.1,0.5,0,0.9,0,1.4c-0.1,0.7-0.4,1.4-0.8,2.1c-0.4,0.6-0.9,1.2-1.5,1.7c-0.6,0.5-1.2,0.8-1.9,1.1
	c-0.6,0.3-1.3,0.4-2,0.4c-0.7,0-1.4-0.2-2-0.5c-0.6-0.3-1.1-0.8-1.5-1.4c-0.4-0.6-0.6-1.3-0.7-2l2.4-0.5c0.1,0.5,0.4,1,0.8,1.3
	c0.4,0.3,0.9,0.5,1.5,0.5C597.1,395.2,597.4,395.1,597.8,394.9z"/>
<path class="st3" d="M616.1,379.3l-0.5,2.4h-7.3l-0.1,0.8l-0.8,4l-0.2,0.8h5.5l-0.5,2.4h-5.5l-0.1,0.8l-0.8,4l-0.2,0.8h7.3l-0.5,2.4
	H603l3.5-18.2L616.1,379.3z"/>
<path class="st3" d="M628,397.4h-2.4l-0.7-3h-7.2l-1.8,3h-2.4l10.8-18.3L628,397.4z M621.7,392.5h2.8c-0.2-1.1-0.5-2.4-0.7-3.7
	s-0.4-2.5-0.7-3.7c-0.7,1.1-1.4,2.4-2.1,3.7s-1.4,2.5-2.1,3.7H621.7z"/>
<path class="st3" d="M633,379.3h5.3c0.8,0,1.6,0.2,2.3,0.5c0.6,0.3,1.2,0.7,1.6,1.3c0.4,0.5,0.7,1.1,0.9,1.8c0.1,0.7,0.1,1.4,0,2.1
	l-0.1,0.5c-0.1,0.6-0.3,1.2-0.6,1.7c-0.3,0.6-0.7,1.1-1.1,1.6c-0.3,0.4-0.6,0.7-1,1c-0.4,0.2-0.8,0.4-1.2,0.6l-0.8,0.3l0.3,0.8
	l2.4,6h-2.8l-2.6-6.4H633l-1.2,6.4h-2.3L633,379.3z M636.8,388.6L636.8,388.6c0.4,0,0.9-0.1,1.3-0.3c0.4-0.2,0.8-0.5,1.1-0.8
	c0.4-0.3,0.7-0.7,1-1.2c0.2-0.4,0.4-0.9,0.5-1.4c0.1-0.4,0.1-0.9,0-1.3c-0.1-0.4-0.3-0.8-0.5-1.1l0,0c-0.3-0.4-0.6-0.6-1.1-0.8
	c-0.5-0.2-1-0.3-1.5-0.3h-2.8l-0.2,0.8l-1.1,5.4l-0.2,0.8h0.7h0.8L636.8,388.6L636.8,388.6z"/>
<path class="st3" d="M653.9,379.2c0.6,0,1.1,0.1,1.7,0.2c0.5,0.1,1,0.3,1.5,0.5c0.5,0.2,0.9,0.5,1.3,0.9c0.2,0.2,0.5,0.4,0.6,0.6
	l-2,1.8c-0.4-0.4-0.8-0.7-1.3-1c-0.7-0.3-1.5-0.5-2.3-0.5c-0.9,0-1.7,0.2-2.5,0.5c-0.8,0.4-1.6,0.9-2.3,1.5
	c-0.7,0.6-1.3,1.4-1.8,2.2l0,0c-0.5,0.8-0.8,1.7-1,2.6c-0.2,0.9-0.2,1.7,0,2.6c0.2,0.8,0.5,1.5,1,2.2c0.4,0.6,1,1.1,1.7,1.5
	c0.7,0.3,1.5,0.5,2.3,0.5c0.9,0,1.7-0.2,2.5-0.5c0.6-0.2,1.2-0.6,1.7-1l1.3,1.8c-0.3,0.2-0.6,0.4-0.9,0.6c-0.5,0.3-1.1,0.6-1.6,0.9
	c-1.1,0.5-2.3,0.7-3.5,0.7c-1.1,0-2.2-0.2-3.2-0.7c-0.9-0.5-1.8-1.1-2.4-2c-0.7-0.9-1.1-1.9-1.3-3c-0.2-1.2-0.2-2.4,0.1-3.5
	c0.2-1.2,0.7-2.4,1.3-3.5c0.7-1.1,1.5-2.1,2.5-3c0.9-0.8,2-1.5,3.2-2c0.8-0.3,1.6-0.5,2.5-0.6L653.9,379.2z"/>
<path class="st3" d="M663.3,379.3l-1.4,7.1l-0.1,0.8h7.5l0.2-0.8l1.4-7.1h2.2l-3.5,18.2h-2.2l1.4-7.1l0.1-0.8h-7.5l-0.1,0.8
	l-1.4,7.1h-2.3l3.6-18.2H663.3z"/>
<path class="st3" d="M689.3,379.2h0.5c0.6,0,1.1,0.1,1.7,0.2c0.5,0.1,1,0.3,1.5,0.5c0.5,0.2,0.9,0.5,1.3,0.9
	c0.2,0.2,0.4,0.4,0.6,0.6l-2,1.7c-0.4-0.4-0.8-0.7-1.3-1c-0.7-0.3-1.5-0.5-2.3-0.5c-0.9,0-1.7,0.2-2.5,0.5c-0.9,0.4-1.6,0.9-2.3,1.5
	c-0.7,0.6-1.3,1.4-1.8,2.2c-0.5,0.8-0.8,1.7-1,2.6c-0.2,0.9-0.2,1.7,0,2.6c0.2,0.8,0.5,1.5,1,2.2c0.4,0.6,1,1.1,1.7,1.5
	c0.7,0.3,1.5,0.5,2.3,0.5c0.7,0,1.4-0.1,2-0.3c0.7-0.2,1.3-0.5,1.9-0.9c0.5-0.4,1-0.7,1.4-1.2c0.4-0.4,0.8-0.9,1.1-1.4l0.7-1.1h-5.6
	l0.4-2.3h8c-0.2,1.2-0.6,2.5-1.2,3.6c-0.7,1.3-1.6,2.5-2.7,3.4c-0.9,0.8-2,1.5-3.2,2c-1.1,0.4-2.2,0.7-3.4,0.7
	c-1.1,0-2.2-0.2-3.2-0.7c-0.9-0.5-1.8-1.1-2.4-2c-0.7-0.9-1.1-1.9-1.3-3c-0.2-1.2-0.2-2.4,0.1-3.5c0.2-1.2,0.7-2.4,1.3-3.5
	c0.7-1.1,1.5-2.1,2.5-3c0.9-0.8,2-1.5,3.2-2C687.4,379.4,688.4,379.2,689.3,379.2L689.3,379.2z"/>
<path class="st3" d="M699.9,379.3h5.3c0.8,0,1.6,0.2,2.3,0.5c0.6,0.3,1.2,0.7,1.7,1.3c0.4,0.5,0.7,1.1,0.8,1.8
	c0.1,0.7,0.1,1.4,0,2.1l-0.1,0.5c-0.1,0.6-0.3,1.2-0.6,1.7c-0.3,0.6-0.7,1.1-1.1,1.6c-0.3,0.4-0.6,0.7-1,1c-0.4,0.2-0.8,0.4-1.2,0.6
	l-0.8,0.3l0.3,0.8l2.4,6H705l-2.6-6.4h-2.5l-1.2,6.4h-2.3L699.9,379.3z M703.7,388.6L703.7,388.6c0.4,0,0.9-0.1,1.3-0.3
	c0.4-0.2,0.8-0.5,1.1-0.8c0.4-0.3,0.7-0.7,1-1.2c0.2-0.4,0.4-0.9,0.5-1.4c0.1-0.4,0.1-0.9,0-1.3c-0.1-0.4-0.3-0.8-0.5-1.1l0,0
	c-0.3-0.4-0.6-0.6-1.1-0.8c-0.5-0.2-1-0.3-1.5-0.3h-2.8l-0.2,0.8l-1.1,5.4l-0.2,0.8h0.7h0.8L703.7,388.6L703.7,388.6z"/>
<path class="st3" d="M724,379.8c0.9,0.5,1.8,1.2,2.4,2c0.7,0.9,1.1,1.9,1.3,3c0.2,1.2,0.2,2.4,0,3.5c-0.2,1.2-0.7,2.4-1.3,3.5
	c-0.7,1.1-1.5,2.1-2.5,3c-0.9,0.8-2,1.5-3.2,2c-1.1,0.4-2.2,0.7-3.4,0.7c-1.1,0-2.2-0.2-3.2-0.7c-0.9-0.5-1.8-1.1-2.4-2
	c-0.7-0.9-1.1-1.9-1.3-3c-0.2-1.2-0.2-2.4,0.1-3.5c0.2-1.2,0.7-2.4,1.3-3.5c0.7-1.1,1.5-2.1,2.5-3c0.9-0.8,2-1.5,3.2-2
	c1.1-0.5,2.2-0.7,3.4-0.7C722,379.2,723,379.4,724,379.8z M717.9,382.1c-0.8,0.4-1.6,0.9-2.3,1.5c-0.7,0.6-1.3,1.4-1.8,2.2
	c-0.5,0.8-0.8,1.7-1,2.6c-0.2,0.9-0.2,1.7,0,2.6c0.2,0.8,0.5,1.5,1,2.2c0.4,0.6,1,1.1,1.7,1.5c0.7,0.3,1.5,0.5,2.3,0.5
	c0.9,0,1.7-0.2,2.5-0.5c0.9-0.4,1.6-0.9,2.3-1.5c0.7-0.6,1.3-1.4,1.8-2.2c0.5-0.8,0.8-1.7,1-2.6c0.2-0.9,0.2-1.7,0-2.6
	c-0.2-0.8-0.5-1.5-1-2.2c-0.5-0.6-1.1-1.1-1.8-1.5c-0.7-0.3-1.5-0.5-2.3-0.5C719.5,381.6,718.6,381.8,717.9,382.1L717.9,382.1z"/>
<path class="st3" d="M744.3,379.3l-1.4,7.2l-0.8,4c-0.2,1-0.5,1.9-1,2.8c-0.5,0.9-1.2,1.6-1.9,2.3l0,0c-0.7,0.7-1.6,1.2-2.5,1.6
	c-0.8,0.4-1.7,0.5-2.6,0.5c-0.9,0-1.7-0.2-2.5-0.5c-0.7-0.4-1.4-0.9-1.9-1.6c-0.5-0.7-0.8-1.5-1-2.3c-0.2-0.9-0.1-1.9,0.1-2.8l0.8-4
	l1.4-7.2h2.3l-1.4,7.2l-0.7,3.5l-0.1,0.4c-0.1,0.6-0.1,1.2,0,1.8c0.1,0.6,0.3,1.1,0.7,1.5c0.3,0.4,0.7,0.8,1.2,1
	c0.5,0.2,1.1,0.4,1.6,0.4c0.6,0,1.2-0.1,1.8-0.4c0.6-0.2,1.1-0.6,1.6-1c0.5-0.4,0.9-1,1.3-1.5c0.3-0.6,0.6-1.2,0.7-1.8l0.1-0.4
	l0.7-3.5l1.4-7.2L744.3,379.3z"/>
<path class="st3" d="M744,392.3l1.3-6.9l1.2-6.1h5.7c0.7,0,1.4,0.1,2.1,0.5c0.6,0.3,1.2,0.8,1.6,1.4c0.4,0.6,0.7,1.3,0.9,2
	c0.1,0.8,0.1,1.6,0,2.4c-0.2,0.8-0.4,1.6-0.9,2.4c-0.4,0.8-1,1.4-1.6,2c-0.6,0.6-1.4,1-2.1,1.4c-0.7,0.3-1.5,0.4-2.3,0.4h-3.5
	l-0.2,0.8l-1,5.1H743L744,392.3z M746.9,389.1h0.7h2.7c0.5,0,0.9-0.1,1.4-0.3c0.5-0.2,0.9-0.5,1.3-0.8c0.4-0.3,0.7-0.8,1-1.2
	c0.3-0.4,0.4-0.9,0.5-1.4c0.1-0.5,0.1-0.9,0-1.4c-0.1-0.4-0.3-0.8-0.5-1.2c-0.3-0.4-0.6-0.6-1-0.8c-0.4-0.2-0.8-0.3-1.3-0.3h-3.5
	l-0.1,0.8l-0.6,3l-0.6,3L746.9,389.1z"/>
<g>
	<path class="st3" d="M227.3,246.8l25.3,114.2h-22.6l-3.7-17h-35.6l-10.3,17h-22.6L227.3,246.8z M221.8,324.1l-4.9-23.7l-14.2,23.7
		H221.8z"/>
	<path class="st3" d="M306.5,249.1c16.3,0,27.8,7,34.8,16.4c7.4,10.1,9.4,23.2,6.2,39.6c-3.2,16.4-10.3,29.5-21.6,39.4
		c-12.4,10.9-26.1,16.4-41.2,16.4h-27.7l21.7-111.8L306.5,249.1L306.5,249.1z M302.2,271.4h-6.8l-13,67.2h7
		c18.7,0,33.5-13.4,37.5-33.6C330.7,285,320.9,271.4,302.2,271.4z"/>
	<path class="st3" d="M357.4,303.6h51l-3.8,19.6h-51L357.4,303.6z"/>
	<path class="st3" d="M446.4,249.1l-8.7,44.8h34.8l8.7-44.8H502l-21.7,111.9h-20.8l8.7-44.8h-34.8l-8.7,44.8h-20.8l21.7-111.9H446.4
		z"/>
	<path class="st3" d="M593.6,264.9c8.2,11.2,10.8,24.6,7.7,40.2c-3.1,15.7-10.8,29.1-23.3,40.1s-26,16.5-40.5,16.5
		c-14.6-0.1-26-5.6-34.1-16.5c-8.2-11.1-10.8-24.5-7.7-40.1s10.8-29,23.3-40.2c12.6-11.2,26-16.7,40.5-16.7S585.4,253.7,593.6,264.9
		z M530.8,280.9c-7.5,6.7-12.2,14.8-14,24.1c-1.8,9.4-0.3,17.4,4.6,24.1c4.9,6.6,11.7,9.9,20.5,9.9c8.7,0,16.7-3.3,24.2-9.9
		c7.5-6.6,12.3-14.6,14.1-24.1c1.8-9.4,0.2-17.3-4.7-24.1c-4.9-6.7-11.7-10-20.4-10C546.3,270.9,538.2,274.2,530.8,280.9z"/>
	<path class="st3" d="M652.1,361.7c-14.5-0.1-25.9-5.6-34-16.5c-8.2-11.1-10.8-24.5-7.7-40.1s10.8-29,23.3-40.2
		c12.6-11.2,26-16.7,40.5-16.7l-0.1,0.3c16,0,27.3,7.7,34.2,16.6l-18,16c-5-6.7-11.8-10-20.5-10c-8.7,0-16.9,3.3-24.3,10
		c-7.5,6.7-12.1,14.8-13.9,24.1c-1.8,9.4-0.3,17.4,4.6,24.1c4.9,6.6,11.7,9.9,20.4,9.9s16.9-3.3,24.4-10l11.8,16
		C682.5,354.3,668.4,361.7,652.1,361.7z"/>
</g>
<g>
	<path class="st0" d="M218.3,246.8l25.3,114.2h-22.6l-3.7-17h-35.6l-10.3,17h-22.6L218.3,246.8z M212.8,324.1l-4.9-23.7l-14.2,23.7
		H212.8z"/>
	<path class="st0" d="M297.5,249.1c16.3,0,27.8,7,34.8,16.4c7.4,10.1,9.4,23.2,6.2,39.6c-3.2,16.4-10.3,29.5-21.6,39.4
		c-12.4,10.9-26.1,16.4-41.2,16.4h-27.7l21.7-111.8L297.5,249.1L297.5,249.1z M293.2,271.4h-6.8l-13,67.2h7
		c18.7,0,33.5-13.4,37.5-33.6C321.7,285,311.9,271.4,293.2,271.4z"/>
	<path class="st0" d="M348.4,303.6h51l-3.8,19.6h-51L348.4,303.6z"/>
	<path class="st0" d="M437.4,249.1l-8.7,44.8h34.8l8.7-44.8H493l-21.7,111.9h-20.8l8.7-44.8h-34.8l-8.7,44.8h-20.8l21.7-111.9H437.4
		z"/>
	<path class="st0" d="M584.6,264.9c8.2,11.2,10.8,24.6,7.7,40.2c-3.1,15.7-10.8,29.1-23.3,40.1s-26,16.5-40.5,16.5
		c-14.6-0.1-26-5.6-34.1-16.5c-8.2-11.1-10.8-24.5-7.7-40.1s10.8-29,23.3-40.2c12.6-11.2,26-16.7,40.5-16.7S576.4,253.7,584.6,264.9
		z M521.8,280.9c-7.5,6.7-12.2,14.8-14,24.1c-1.8,9.4-0.3,17.4,4.6,24.1c4.9,6.6,11.7,9.9,20.5,9.9c8.7,0,16.7-3.3,24.2-9.9
		c7.5-6.6,12.3-14.6,14.1-24.1c1.8-9.4,0.2-17.3-4.7-24.1c-4.9-6.7-11.7-10-20.4-10C537.3,270.9,529.2,274.2,521.8,280.9z"/>
	<path class="st0" d="M643.1,361.7c-14.5-0.1-25.9-5.6-34-16.5c-8.2-11.1-10.8-24.5-7.7-40.1s10.8-29,23.3-40.2
		c12.6-11.2,26-16.7,40.5-16.7l-0.1,0.3c16,0,27.3,7.7,34.2,16.6l-18,16c-5-6.7-11.8-10-20.5-10c-8.7,0-16.9,3.3-24.3,10
		c-7.5,6.7-12.1,14.8-13.9,24.1c-1.8,9.4-0.3,17.4,4.6,24.1c4.9,6.6,11.7,9.9,20.4,9.9s16.9-3.3,24.4-10l11.8,16
		C673.5,354.3,659.4,361.7,643.1,361.7z"/>
</g>
<g>
	<path class="st1" d="M222.3,246.8l25.3,114.2h-22.6l-3.7-17h-35.6l-10.3,17h-22.6L222.3,246.8z M216.8,324.1l-4.9-23.7l-14.2,23.7
		H216.8z"/>
	<path class="st1" d="M301.5,249.1c16.3,0,27.8,7,34.8,16.4c7.4,10.1,9.4,23.2,6.2,39.6c-3.2,16.4-10.3,29.5-21.6,39.4
		c-12.4,10.9-26.1,16.4-41.2,16.4h-27.7l21.7-111.8L301.5,249.1L301.5,249.1z M297.2,271.4h-6.8l-13,67.2h7
		c18.7,0,33.5-13.4,37.5-33.6C325.7,285,315.9,271.4,297.2,271.4z"/>
	<path class="st1" d="M352.4,303.6h51l-3.8,19.6h-51L352.4,303.6z"/>
	<path class="st1" d="M441.4,249.1l-8.7,44.8h34.8l8.7-44.8H497l-21.7,111.9h-20.8l8.7-44.8h-34.8l-8.7,44.8h-20.8l21.7-111.9H441.4
		z"/>
	<path class="st1" d="M588.6,264.9c8.2,11.2,10.8,24.6,7.7,40.2c-3.1,15.7-10.8,29.1-23.3,40.1s-26,16.5-40.5,16.5
		c-14.6-0.1-26-5.6-34.1-16.5c-8.2-11.1-10.8-24.5-7.7-40.1s10.8-29,23.3-40.2c12.6-11.2,26-16.7,40.5-16.7S580.4,253.7,588.6,264.9
		z M525.8,280.9c-7.5,6.7-12.2,14.8-14,24.1c-1.8,9.4-0.3,17.4,4.6,24.1c4.9,6.6,11.7,9.9,20.5,9.9c8.7,0,16.7-3.3,24.2-9.9
		c7.5-6.6,12.3-14.6,14.1-24.1c1.8-9.4,0.2-17.3-4.7-24.1c-4.9-6.7-11.7-10-20.4-10C541.3,270.9,533.2,274.2,525.8,280.9z"/>
	<path class="st1" d="M647.1,361.7c-14.5-0.1-25.9-5.6-34-16.5c-8.2-11.1-10.8-24.5-7.7-40.1s10.8-29,23.3-40.2
		c12.6-11.2,26-16.7,40.5-16.7l-0.1,0.3c16,0,27.3,7.7,34.2,16.6l-18,16c-5-6.7-11.8-10-20.5-10c-8.7,0-16.9,3.3-24.3,10
		c-7.5,6.7-12.1,14.8-13.9,24.1c-1.8,9.4-0.3,17.4,4.6,24.1c4.9,6.6,11.7,9.9,20.4,9.9s16.9-3.3,24.4-10l11.8,16
		C677.5,354.3,663.4,361.7,647.1,361.7z"/>
</g>
</svg>
