<?xml version="1.0" encoding="utf-8"?>
<!-- Generator: Adobe Illustrator 23.0.0, SVG Export Plug-In . SVG Version: 6.00 Build 0)  -->
<svg version="1.1" id="Layer_1" xmlns="http://www.w3.org/2000/svg" xmlns:xlink="http://www.w3.org/1999/xlink" x="0px" y="0px"
	 viewBox="0 0 1366 768" style="enable-background:new 0 0 1366 768;" xml:space="preserve">
<style type="text/css">
	.st0{fill:none;stroke:#000000;stroke-width:0.5;stroke-miterlimit:10;}
</style>
<g>
	<path class="st0" d="M1092.97,173.59v442.49l95.06-60.25c-3.6,1.22-8.8,2.86-15.17,4.46c-10.63,2.67-16.06,3.98-22.09,2.9
		c-3.26-0.58-8.65-2.14-14.62-7.03c0-79.77,0-159.55,0-239.32l92.05,217.23l46.52-27.11V277.01l-67.94-40.17
		c2.61,3.01,5.21,6.03,7.81,9.04c2.18,1.84,4.69,4.26,7.14,7.36c3.29,4.16,5.42,8.2,6.81,11.38v155.64l-94.39-224.93L1092.97,173.59
		z"/>
	<path class="st0" d="M899.18,277.69v229.59l73.96,43.54l-1.02-4.34l-14.03-10.71l-9.37-11.41l-4.34-12.69v-83.71h91.04v158.68
		l44.13,29.46V173.59L899.18,277.69z M944.38,384.32v-84.19l91.04-50.88v135.06H944.38z"/>
	<path class="st0" d="M1348.7,400.04h-6.53c0,69.39-28.11,132.15-73.58,177.63c-45.48,45.47-108.24,73.57-177.62,73.58
		c-69.39,0-132.15-28.11-177.63-73.58c-45.47-45.48-73.57-108.24-73.57-177.63c0-69.39,28.11-132.15,73.57-177.62
		c45.48-45.47,108.24-73.57,177.63-73.57c69.39,0,132.14,28.11,177.62,73.57c45.47,45.48,73.57,108.24,73.58,177.62H1348.7h6.53
		c0-145.95-118.31-264.25-264.26-264.26c-145.95,0-264.26,118.31-264.26,264.26c0,145.95,118.31,264.26,264.26,264.26
		c145.94,0,264.25-118.31,264.26-264.26H1348.7z"/>
	<path class="st0" d="M1058.71,158.65c-11.99-14.87-9.66-36.64,5.21-48.64c14.83-11.96,36.6-9.63,48.59,5.24
		c4.16,5.16,6.61,11.12,7.34,17.26l-0.01,0.08c-0.2,0.73-0.65,1.32-1.24,1.57c-0.17,0.06-0.95,0.34-1.65-0.1l-0.71-0.79l-0.12-0.33
		c-0.73-2.06-1.83-4.04-3.29-5.86c-7.13-8.84-20.13-10.23-29.02-3.07c-8.88,7.17-10.28,20.17-3.15,29.01
		c7.17,8.89,20.17,10.28,29.05,3.11c0.69-0.56,1.35-1.16,1.93-1.77l0.05-0.04c0.41-0.11,0.86-0.26,1.15-0.43
		c0.63,0.07,0.91,0.34,1.02,0.47c0.5,0.53,0.54,1.64-0.08,2.57l-0.05,0.11c-1.77,2.5-3.88,4.77-6.39,6.8
		C1092.47,175.85,1070.7,173.52,1058.71,158.65z"/>
	<path class="st0" d="M1285.26,531.51c18.95-2.43,36.28,10.95,38.71,29.9c2.43,18.89-10.96,36.22-29.9,38.66
		c-6.57,0.84-12.94-0.19-18.55-2.78l-0.06-0.05c-0.52-0.55-0.78-1.25-0.69-1.88c0.03-0.17,0.21-0.98,0.95-1.36l1.04-0.19l0.35,0.07
		c2.13,0.45,4.4,0.56,6.72,0.26c11.26-1.45,19.26-11.8,17.81-23.12c-1.46-11.32-11.8-19.32-23.07-17.87
		c-11.32,1.45-19.32,11.8-17.86,23.13c0.11,0.88,0.28,1.76,0.5,2.57l0.01,0.06c-0.11,0.41-0.23,0.87-0.24,1.21
		c-0.38,0.5-0.77,0.6-0.93,0.62c-0.71,0.15-1.68-0.4-2.15-1.41l-0.07-0.1c-1.2-2.82-2.04-5.8-2.45-9.01
		C1252.93,551.27,1266.31,533.94,1285.26,531.51z"/>
	<path class="st0" d="M933.74,571.01c0.07,19.1-15.35,34.64-34.46,34.71c-19.04,0.07-34.59-15.35-34.66-34.46
		c-0.03-6.63,1.79-12.82,5.05-18.06l0.06-0.06c0.61-0.45,1.33-0.62,1.95-0.45c0.17,0.06,0.95,0.33,1.23,1.11l0.06,1.06l-0.11,0.33
		c-0.71,2.06-1.1,4.29-1.09,6.63c0.04,11.36,9.33,20.57,20.74,20.53c11.42-0.04,20.63-9.32,20.59-20.68
		c-0.04-11.42-9.32-20.63-20.74-20.59c-0.89,0-1.78,0.06-2.61,0.18h-0.06l-1.17-0.38c-0.45-0.44-0.5-0.83-0.51-1
		c-0.06-0.72,0.61-1.62,1.66-1.96l0.11-0.06c2.95-0.85,6.01-1.3,9.24-1.32C918.13,536.48,933.67,551.91,933.74,571.01z"/>
	<path class="st0" d="M778.31,516.77c19.33,66.68,56.61,111.07,61.16,116.48c-17.88-18.58-41.02-46.65-60.3-85.2
		c-10.39-20.78-25.87-57.68-32.99-106.25c-0.54-3.75-1.34-9.53-2.04-17.03l20.94-9.59c0.06,7.87,0.32,14.89,0.59,20.83
		C766.32,450.15,767.82,480.78,778.31,516.77z"/>
	<path class="st0" d="M1348.72,123.42l-41.14,50.17c-20.4-17.72-56.23-44.45-107.42-61.9c-21.86-7.44-73.8-22.55-140.59-15.05
		c-20.13,2.19-78.3,10.6-140.26,49.75c-18.05,11.41-56.88,38.28-91.96,85.69c-13.54,18.31-38.77,53.07-52.63,105.29
		c-5.34,20.01-7.83,38.32-8.93,54.33c-4.28,2.4-7.99,4.6-11.15,6.49c-4.25,2.53-8.2,4.97-11.8,7.26
		c-0.73-18.48-0.31-42.14,3.45-68.84c5.89-42.14,17.35-72.56,20.4-80.44c15.27-39.41,35.3-69.3,51.79-89.91
		c12.16-15.32,28.87-33.69,50.88-52c7.6-6.37,30.52-24.95,64.37-42.84c33.14-17.57,60.73-26.03,69.5-28.6
		c15.75-4.6,47.08-12.64,87.72-14.25c44.72-1.82,79,4.92,92.87,8.03c14.35,3.16,42.9,10.44,76.48,26.51
		c26.83,12.85,48.15,27.15,63.95,39.26L1348.72,123.42z"/>
	<path class="st0" d="M1421.98,458.13l32.67,24.53c-3.43,12.16-6.96,22.6-10.07,30.9c-3.69,9.96-7.34,18.69-10.6,25.87
		c-3.59,8.09-8.3,18.42-15.69,31.28c-2.46,4.23-11.14,18.96-25.01,36.69c-6.75,8.62-12.05,14.46-20.3,23.67
		c-9.42,10.44-16.02,17.73-25.87,26.78c-7.87,7.12-14.08,12-22.12,18.26c-9.74,7.66-16.17,12.69-25.65,18.74
		c-12.15,7.82-22.17,12.75-28.92,16.07c-8.99,4.44-15.74,7.23-24.42,10.82c-3.86,1.61-14.51,6-28.81,10.98
		c-13.87,4.82-18.47,5.79-22.71,6.32c-7.5,1.02-13.87,0.75-18.21,0.37c3.64-0.59,8.68-1.5,14.62-3.05
		c4.18-1.07,8.36-2.41,15.59-5.09c6.05-2.25,16.06-6.05,29.24-12.32c11.68-5.52,20.08-10.23,22.44-11.57
		c10.66-6.05,18.27-11.19,20.19-12.53c8.51-5.73,14.46-10.5,21.21-15.85c6.59-5.2,11.25-8.89,17.3-14.35
		c2.3-2.09,11.04-10.07,21.53-21.9c6.96-7.82,11.78-14.08,16.07-19.6c4.55-5.89,9.48-12.32,15.26-21.1
		c6.37-9.59,10.44-17.08,15.53-26.45c6.58-12.16,10.23-18.85,14.3-28.44c5.03-12,7.6-21.21,10.71-32.13
		c0.96-3.59,5.36-19.33,9.16-40.81C1420.32,469.11,1421.23,463.81,1421.98,458.13z"/>
	<path class="st0" d="M873.8,101.3c-14.83-2.44-27.34-3.51-36.59-4.02c-9.88-0.54-18.61-0.99-30.35,0
		c-10.29,0.87-20.25,1.79-32.13,6.69c-11.35,4.68-16.54,9.44-17.85,10.71c-5.91,5.73-8.74,11.71-10.04,14.5
		c-3.69,7.96-4.4,14.78-4.91,20.08c-0.57,5.93-0.52,12.66,0.89,21.42c2.72,16.87,8.6,29.43,11.16,34.81
		c11.44,24.01,20.95,43.97,39.27,71.4c3.44,5.16,15.44,22.91,33.14,44.41c8.55,10.39,15.35,17.73,21.87,25.1
		c15.02,16.99,27.88,29.55,37.49,38.94c26.26,25.66,47.77,43.49,54.33,48.87c10.64,8.73,19.55,15.57,28.34,22.31
		c5.1,3.91,18.15,13.88,36.93,27.45c26.82,19.38,42.15,30.44,64.38,43.96c7.23,4.4,16.74,10.16,29.9,17.07
		c10.49,5.51,20.38,10.04,40.17,19.08c18.07,8.26,27.25,12.44,33.92,14.73c9.99,3.43,19.26,5.82,33.02,9.37
		c4.38,1.13,9.99,2.53,17.18,3.96c3.95,0.79,8.98,1.77,15.73,2.62c6.38,0.8,11.36,1.11,13.56,1.23c5.33,0.29,12.07,0.42,19.91,0
		c-5.65,1.51-13.54,3.24-23.09,4.18c-12.2,1.21-21.51,0.57-29.29,0c-3.69-0.27-15.66-1.24-31.74-4.63
		c-21.72-4.58-37.75-10.81-47.42-14.61c-7.1-2.79-15.56-6.66-32.47-14.39c-12.09-5.53-19.45-8.89-28.28-13.22
		c-10.59-5.19-30.67-15.37-54.72-29.96c-14.84-9-25.18-16.02-36.82-23.93c-32.36-21.99-54.92-39.81-61.25-44.85
		c-11.29-8.99-19.52-15.97-28.12-23.26c-14.02-11.9-26.32-22.33-41.84-36.98c-16.03-15.13-27.77-27.48-36.15-36.32
		c-10.35-10.91-18.94-20.44-25.44-27.78c-4.84-6.1-12-15.09-20.75-25.94c-23.64-29.34-23.91-28.95-30.96-38.32
		c-19.15-25.48-30.25-45.76-33.3-51.43c-10.3-19.14-15.12-32.2-16.4-35.76c-0.56-1.54-5.54-15.47-9.04-32.63
		c-1.07-5.24-1.92-10.4-2.34-16.57c-0.31-4.53-0.61-8.85,0-14.56c0.44-4.12,1.21-10.8,4.85-18.58c1.55-3.31,4.34-8.34,9.04-13.39
		c1.71-1.84,4.35-4.63,8.54-7.31c4-2.56,7.29-3.66,12.05-5.24c2.79-0.93,7.64-2.38,13.89-3.35c5.1-0.78,8.99-0.91,12-1
		c3.95-0.12,7.84,0.07,15.62,0.45c4.92,0.24,7.39,0.36,10.49,0.63c1.5,0.13,6.5,0.58,13.11,1.6c3.57,0.55,7.86,1.22,13.39,2.51
		c3.39,0.79,6.5,1.7,12.72,3.52c1.67,0.49,6.45,1.89,13.22,4.01c7.55,2.37,11.32,3.55,15.73,5.19c1.59,0.59,6.11,2.29,11.55,4.69
		C856.12,91.51,864.35,95.54,873.8,101.3z"/>
	<path class="st0" d="M1563.65,541.45c-3.64,8.1-8.44,12.79-16.74,20.75c-12.08,11.59-22.94,18.71-26.1,20.75
		c-15.06,9.69-27.71,14.66-39.17,19.08c-16.93,6.54-30.3,9.81-44.85,13.39c-14.38,3.53-26.51,5.86-35.15,7.36
		c2.07-1.55,5.43-3.96,9.71-6.69c11.57-7.4,16.73-8.69,28.45-15.74c3.11-1.88,8.76-5.39,15.39-10.38
		c6.5-4.88,12.92-9.69,19.76-17.41c3.78-4.27,8.99-10.24,13.39-19.41c2.14-4.48,6.46-13.72,7.03-26.11
		c0.69-15.28-4.72-26.68-7.71-32.8c-7.6-15.58-18.17-24.42-30.45-34.47c-16.75-13.71-31.73-21.64-39.83-25.78
		c-36.89-18.83-69.25-29.4-83.35-33.81c-40.56-12.67-71.81-18.53-105.1-24.77c-21.37-4-46.4-8.65-80.34-12.38
		c-15.12-1.67-55.22-5.71-107.1-5.69c-23.61,0.01-41.62,0.86-58.91,1.67c-28.08,1.33-46.19,2.18-70.96,5.36
		c-5.16,0.66-28.48,3.71-58.91,10.38c-25.57,5.59-40.76,8.99-60.59,17.06c-14.07,5.74-24.16,11.26-34.8,17.08
		c-10.36,5.67-27.52,15.13-47.87,30.46c-8.62,6.49-19.11,15.03-30.45,25.77h-4.02c10.14-14.15,20.13-24.03,27.45-30.45
		c6.69-5.89,12.29-9.88,21.42-16.4c4.24-3.02,10.71-7.54,19-12.83c3.6-2.29,7.55-4.73,11.8-7.26c3.16-1.89,6.87-4.09,11.15-6.49
		c5.07-2.85,10.95-6,17.64-9.24c19.16-9.28,34.61-14.26,45.52-17.74c22.72-7.24,40.11-10.65,61.25-14.73
		c27.29-5.26,48.18-7.81,52.89-8.37c31.39-3.74,54.27-4.27,91.04-5.02c27.36-0.55,48.48-0.98,77.65,0
		c48.49,1.64,87.21,6.08,109.45,9.04c22.03,2.92,57.4,7.72,103.1,18.75c10.39,2.51,36.97,9.12,70.61,20.09
		c10.72,3.49,19.82,6.46,28.41,9.48c11.78,4.15,22.58,8.41,35.18,14.28c2.51,1.17,5.53,2.6,8.98,4.31
		c12.62,6.29,30.97,16.32,51.28,30.84c27.77,19.85,35.11,30.88,38.82,37.48c10.02,17.84,10.36,33.41,10.38,37.15
		C1568.01,523.33,1567.94,531.86,1563.65,541.45z"/>
</g>
</svg>
