<svg xmlns="http://www.w3.org/2000/svg" viewBox="0 0 956 469"><defs><style>.cls-1,.cls-3,.cls-5{fill:none;}.cls-2{fill:#fff;}.cls-3,.cls-5{stroke:#4d4e4e;stroke-miterlimit:10;}.cls-3{stroke-width:2px;}.cls-4{fill:#ffc107;}.cls-5{stroke-width:3px;}</style></defs><title>Asset 13</title><g id="Layer_2" data-name="Layer 2"><g id="Layer_1-2" data-name="Layer 1"><rect class="cls-1" width="956" height="469"/><path class="cls-2" d="M730.16,328c.28-2,.43-3.82.8-5.6.9-4.23,3.82-7.18,8.06-7.54,2.55-.21,3.5-1.12,4.22-3.58q15.62-53.92,31.46-107.76c-9.81-8.6-11.29-16.12-4.56-22.84a13.32,13.32,0,0,1,19.68.87c5.88,7,3.91,15.16-5.43,21.73q7.46,25.47,14.94,51.09c5.55,19,11.06,38,16.69,56.92.38,1.27,1.47,3,2.54,3.29,7.87,1.94,9.48,3.67,10.06,11.76a12.3,12.3,0,0,0,.24,1.42c.23.15.34.27.46.29,12.2,1.57,17.32,10.26,12.73,21.87a9.41,9.41,0,0,1-8.89,6.2c-3.43.14-6.88.06-10.32.05-2.55,0-4.48-.87-4.4-3.85.08-2.8,2-3.44,4.34-3.42,2.78,0,5.56-.06,8.33,0s4.2-.94,4.18-3.9c0-10.77.69-9.37-8.91-9.38q-48.4,0-96.8,0c-5.67,0-5.72.07-5.74,5.81,0,.66,0,1.32,0,2,0,5.16.3,5.48,5.34,5.48h60.7c5.42,0,10.84,0,16.27,0,2.52,0,5.08.11,5.19,3.39.11,3.46-2.43,3.9-5.18,3.9h-72.6c-2.38,0-4.76.07-7.14,0-5.78-.25-9.34-3.56-9.87-9.3a60.87,60.87,0,0,1-.17-7.52c.21-7.36,3.66-10.79,11-11.09C728.3,328.2,729.2,328.08,730.16,328Zm31.38-.05h35.25c1.25-3.6,1.64-7.19,3.56-9.52s5.32-3.28,8.95-5.33c-1.62-3.15-2.7-7.82-5.63-10.38-6.72-5.9-14.4-10.69-21.57-16.1-2-1.49-3.28-1.34-5.17.09-5.77,4.4-11.43,9.06-17.64,12.76-5.87,3.49-8,8.59-8.86,14.76C759.34,316.39,760.61,317.94,761.54,328Zm4.71-62c4.19,3,8,5.86,11.88,8.55a2.76,2.76,0,0,0,2.44.26c4.06-2.79,8-5.74,12.27-8.85l-13.28-11.67Zm13.55-21.84c1.88-1.63,3.75-3.11,5.43-4.78.64-.64,1.4-1.85,1.2-2.55-2.07-7.37-4.32-14.69-6.53-22a118.61,118.61,0,0,0-5.14,15.38c-2.36,8.37-2.35,8.37,4.35,13.73A3,3,0,0,0,779.8,244.12Zm17,28.26-10.87,7.9,16.69,12.16Zm-23.62,7.89-10.85-7.89-5.8,20C762.47,288.07,767.63,284.31,773.18,280.27Zm12.47-89.91a6.48,6.48,0,0,0-6-6.2,6.1,6.1,0,0,0-.24,12.18C782.39,196.47,785.57,193.44,785.65,190.36ZM738.51,327.84h15c.4-5.38.14-5.69-4.65-5.72-2,0-4,0-5.93,0C738.06,322.16,737.69,322.64,738.51,327.84Zm82.19.24c.56-5.61.33-5.89-4.76-5.94-1.84,0-3.68,0-5.52,0-5.09,0-5.64.75-4.34,5.95Zm-50.59-82.21c-.87,3-1.59,5.54-2.6,9.06l6.28-5.58Zm20.62,8.28.62-.3c-.72-2.45-1.44-4.89-2.31-7.82l-3.75,3.24Z"/><path class="cls-2" d="M724.2,187.63c.88,23.06,10.49,39.19,28.9,50.09.56.33,1.16.62,1.75.92,2.3,1.19,3.62,3,2.21,5.45s-3.82,2.38-5.85.93c-5.87-4.21-12.43-7.86-17.25-13.09-16.32-17.72-21.48-38.73-14-61.7,7.69-23.65,24.4-38.13,49-42.73,34.3-6.41,67.44,17.93,72.6,52.37,4,27-10.3,53.31-33,64.82-1.24.63-2.84,1.28-4.06,1s-2.76-1.79-2.72-2.7a6.09,6.09,0,0,1,2.17-4.11c3.36-2.54,7.34-4.3,10.49-7,17.3-15,24-34,18.46-56.23-5.51-22-20.23-35.83-42.2-40.52a54.62,54.62,0,0,0-64.55,40.12A121.53,121.53,0,0,0,724.2,187.63Z"/><path class="cls-2" d="M692.82,188.94a86.32,86.32,0,0,1,71.45-85.22c24.45-4.35,46.66.89,66.69,15.47a9.13,9.13,0,0,1,3.15,3.81c.31.84-.77,3.13-1.43,3.22-1.76.24-4,.23-5.4-.72A89.46,89.46,0,0,0,803,113.18c-43.37-14-92.19,14.42-101.09,59-7.54,37.71,10,72.56,44.89,89.42a9.36,9.36,0,0,1,3.82,3.61c.38.66-.54,2.9-1.36,3.24a6.63,6.63,0,0,1-4.7.13,86.28,86.28,0,0,1-51.77-79.65Z"/><path class="cls-2" d="M817.72,189.35c-.2,12.56-5.38,22.67-15.27,30.33a10.88,10.88,0,0,1-5.34,1.95c-.73.08-2.42-1.83-2.3-2.62a7.39,7.39,0,0,1,2.3-4.51,32.58,32.58,0,0,0,12.91-21c3-16.41-10.88-34.15-27.66-35-17.85-.87-31.76,10.52-33.47,28.24-1,10.65,3.25,19.61,11.56,26.49.81.67,2.11,1.12,2.43,1.95a28.48,28.48,0,0,1,1,5.26c-1.76.21-4,1.25-5.19.51a35.14,35.14,0,0,1-16.51-24.11c-4.39-24.17,12-45.11,36.54-45.82C802.56,150.31,818.21,170.16,817.72,189.35Z"/><path class="cls-2" d="M866.49,189.22c-1.66,36.16-18.07,62.86-51,79-2.51,1.24-5.11,2.44-6.75-.93s1.13-4.57,3.57-5.74c22.19-10.64,37.3-27.5,43.67-51.38,7.05-26.41,1.63-50.43-15.45-71.79-.91-1.14-2.39-2.1-2.69-3.36-.43-1.78-.73-4.34.22-5.53,1.61-2,4-1,5.37.91,4.68,6.53,9.84,12.83,13.62,19.85A80.82,80.82,0,0,1,866.49,189.22Z"/><path class="cls-3" d="M733.33,331.8c.28-2,.43-3.81.81-5.59.9-4.23,3.82-7.18,8.06-7.54,2.54-.22,3.5-1.12,4.21-3.58Q762,261.16,777.88,207.33c-9.81-8.6-11.3-16.12-4.56-22.85a13.31,13.31,0,0,1,19.67.88c5.89,7,3.92,15.16-5.42,21.73q7.44,25.47,14.94,51.09c5.54,19,11.06,38,16.69,56.92.38,1.27,1.46,3,2.53,3.29,7.87,1.94,9.48,3.67,10.06,11.76,0,.51.17,1,.24,1.42.24.15.34.27.46.29,12.2,1.57,17.32,10.25,12.73,21.87a9.41,9.41,0,0,1-8.89,6.2c-3.43.14-6.87.06-10.31,0-2.56,0-4.48-.86-4.4-3.84.07-2.8,2-3.44,4.33-3.42,2.78,0,5.56-.06,8.34,0s4.19-.94,4.18-3.91c0-10.76.69-9.36-8.92-9.37q-48.39,0-96.8,0c-5.66,0-5.72.07-5.73,5.8v2c0,5.16.31,5.47,5.35,5.48h60.69c5.43,0,10.85,0,16.27,0,2.53,0,5.08.11,5.19,3.39.12,3.46-2.43,3.9-5.18,3.9h-72.6c-2.38,0-4.76.08-7.14,0-5.78-.25-9.34-3.56-9.87-9.3a63,63,0,0,1-.17-7.53c.21-7.36,3.67-10.78,11-11.08C731.48,332,732.37,331.89,733.33,331.8Zm31.38-.05H800c1.25-3.59,1.64-7.18,3.56-9.51s5.32-3.28,9-5.34c-1.63-3.14-2.71-7.81-5.63-10.37-6.73-5.9-14.41-10.69-21.57-16.1-2-1.49-3.29-1.34-5.18.09-5.77,4.4-11.43,9.06-17.64,12.76-5.87,3.49-8,8.59-8.86,14.76C762.52,320.2,763.78,321.74,764.71,331.75Zm4.71-62c4.19,3,8,5.86,11.89,8.54a2.73,2.73,0,0,0,2.44.27c4.06-2.79,8-5.74,12.27-8.85l-13.28-11.67ZM783,247.92c1.88-1.63,3.75-3.1,5.43-4.77.65-.64,1.4-1.85,1.2-2.55-2.07-7.37-4.32-14.7-6.52-22A118.68,118.68,0,0,0,777.93,234c-2.35,8.37-2.35,8.37,4.35,13.73A3,3,0,0,0,783,247.92Zm17,28.27-10.86,7.9c5.53,4,10.69,7.79,16.68,12.16Zm-23.62,7.89c-3.75-2.74-7.15-5.21-10.84-7.89-2,6.8-3.75,12.94-5.8,20Zm12.47-89.91a6.48,6.48,0,0,0-6-6.2,6.1,6.1,0,0,0-.24,12.18A6.58,6.58,0,0,0,788.82,194.17ZM741.68,331.65h15c.4-5.39.14-5.69-4.64-5.72h-5.94C741.23,326,740.87,326.45,741.68,331.65Zm82.2.24c.55-5.62.32-5.89-4.76-5.94-1.84,0-3.69,0-5.53,0-5.09,0-5.64.75-4.33,5.95Zm-50.59-82.21c-.88,3-1.6,5.53-2.61,9.06l6.28-5.58ZM793.9,258l.62-.31-2.31-7.82-3.74,3.25Z"/><path class="cls-3" d="M727.37,191.44c.88,23.06,10.5,39.19,28.9,50.09.57.33,1.17.61,1.75.92,2.3,1.19,3.62,3,2.22,5.45s-3.83,2.38-5.85.93c-5.88-4.22-12.44-7.86-17.26-13.09C720.81,218,715.66,197,723.12,174c7.69-23.66,24.4-38.13,49-42.73,34.31-6.41,67.44,17.93,72.6,52.37,4,27-10.29,53.31-33,64.82-1.24.63-2.83,1.28-4,1s-2.77-1.79-2.73-2.7a6.15,6.15,0,0,1,2.17-4.12c3.36-2.53,7.34-4.29,10.5-7,17.29-15,24-34,18.45-56.23-5.51-22-20.22-35.83-42.2-40.52A54.6,54.6,0,0,0,729.39,179,119.18,119.18,0,0,0,727.37,191.44Z"/><path class="cls-3" d="M696,192.74a86.3,86.3,0,0,1,71.44-85.21c24.46-4.36,46.66.89,66.69,15.47a9,9,0,0,1,3.15,3.81c.32.84-.76,3.13-1.42,3.22-1.77.23-4.06.23-5.41-.72A89.32,89.32,0,0,0,806.2,117c-43.37-14-92.19,14.42-101.09,59-7.53,37.72,10,72.56,44.9,89.43a9.37,9.37,0,0,1,3.81,3.6c.38.67-.54,2.91-1.36,3.25a6.57,6.57,0,0,1-4.7.12A86.22,86.22,0,0,1,696,192.74Z"/><path class="cls-3" d="M820.9,193.16c-.21,12.56-5.38,22.67-15.27,30.33a11,11,0,0,1-5.35,1.95c-.72.08-2.42-1.83-2.3-2.62a7.35,7.35,0,0,1,2.31-4.51,32.52,32.52,0,0,0,12.9-21c3-16.41-10.88-34.15-27.65-35-17.86-.87-31.77,10.52-33.48,28.24-1,10.65,3.25,19.6,11.56,26.49.82.67,2.11,1.11,2.43,1.95a29.34,29.34,0,0,1,1.05,5.26c-1.76.21-4,1.25-5.2.51a35.15,35.15,0,0,1-16.5-24.11c-4.4-24.17,12-45.11,36.53-45.83C805.73,154.12,821.38,174,820.9,193.16Z"/><path class="cls-3" d="M869.66,193c-1.65,36.17-18.06,62.87-50.94,79-2.52,1.23-5.11,2.43-6.75-.93s1.12-4.57,3.56-5.74c22.2-10.64,37.3-27.5,43.68-51.38,7-26.41,1.63-50.43-15.46-71.79-.9-1.14-2.39-2.1-2.69-3.36-.43-1.78-.72-4.35.23-5.53,1.6-2,4-1,5.36.91,4.68,6.53,9.84,12.82,13.62,19.85A80.81,80.81,0,0,1,869.66,193Z"/><path class="cls-4" d="M136.63,360.69c-14.13-.07-25.21-5.4-33.11-16.08S93.05,320.76,96,305.56s10.54-28.25,22.7-39.12,25.34-16.29,39.39-16.29l-.13.27a41.07,41.07,0,0,1,33.31,16.15l-17.5,15.61c-4.87-6.49-11.49-9.73-19.93-9.73s-16.42,3.24-23.65,9.73a41.52,41.52,0,0,0-13.58,23.44c-1.76,9.13-.34,17,4.46,23.45s11.35,9.66,19.86,9.66,16.49-3.24,23.78-9.73l11.49,15.61C166.15,353.46,152.44,360.69,136.63,360.69Z"/><path class="cls-4" d="M264.12,250.76l-4.26,21.83H219.19l-4.32,22h30.54l-4.19,21.83H210.68l-4.26,22h40.67l-4.18,21.75H181.83L203,250.76Z"/><path class="cls-4" d="M298.51,251l-17,87.16h40.74L318,360H257L278.11,251Z"/><path class="cls-4" d="M373.64,251l-17,87.16h40.75L393.17,360H332.09L353.24,251Z"/><path class="cls-4" d="M470.19,316.91,483,251H503.5c-4.25,22-8.58,44-12.83,66a54.79,54.79,0,0,1-18,31.14Q458,361,441.21,361c-11.35,0-20.14-4.26-26.49-12.84s-8.31-19-5.94-31.14c4.25-22,8.51-44,12.77-66h20.54l-12.84,65.88c-2.3,11.89,5.07,21.89,16.21,21.89S467.9,328.73,470.19,316.91Z"/><path class="cls-4" d="M543.57,251l-17,87.16h40.74L563.1,360H502L523.16,251Z"/><path class="cls-4" d="M641.27,248.8,665.86,360h-22l-3.64-16.56H605.53L595.46,360h-22Zm-5.34,75.27-4.8-23-13.78,23Z"/><path class="cls-4" d="M703.09,251H736.2c11.28,0,19.46,4.6,24.32,11.08s7.36,12.7,5,24.73l-.54,2.84a44.87,44.87,0,0,1-10.47,20.74c-4.6,5.34-7.84,7.64-14.06,10.07L756.33,360H731.47l-19.73-48.18L702.35,360H682Zm41.28,36.49a13.33,13.33,0,0,0-2-10.48c-2.09-2.77-6.75-4.32-11.69-4.32H719.24l-5.81,30.07h7.83v.06H728C735.45,302.85,742.75,295.83,744.37,287.52Z"/><path class="cls-2" d="M128.15,361.13c-14.12-.07-25.2-5.41-33.1-16.08S84.57,321.2,87.55,306s10.54-28.24,22.7-39.12,25.34-16.28,39.39-16.28l-.13.27A41.07,41.07,0,0,1,182.82,267l-17.5,15.61c-4.87-6.49-11.49-9.73-19.94-9.73s-16.41,3.24-23.64,9.73a41.52,41.52,0,0,0-13.58,23.44c-1.76,9.12-.34,17,4.45,23.45s11.36,9.66,19.87,9.66,16.48-3.24,23.78-9.73l11.49,15.61C157.68,353.9,144,361.13,128.15,361.13Z"/><path class="cls-2" d="M255.65,251.2,251.39,273H210.72l-4.33,22h30.54l-4.18,21.82H202.21l-4.26,22h40.67l-4.19,21.76H173.35L194.57,251.2Z"/><path class="cls-2" d="M290,251.47l-17,87.16h40.74l-4.25,21.75H248.49l21.14-108.91Z"/><path class="cls-2" d="M365.17,251.47l-17,87.16H389l-4.25,21.75H323.62l21.15-108.91Z"/><path class="cls-2" d="M461.72,317.35l12.84-65.88H495c-4.25,22-8.58,44-12.84,65.94a54.71,54.71,0,0,1-18,31.15q-14.59,12.87-31.41,12.84c-11.35,0-20.14-4.26-26.49-12.84s-8.31-19-5.95-31.15q6.39-32.94,12.77-65.94h20.54l-12.83,65.88c-2.3,11.89,5.06,21.89,16.21,21.89S459.42,329.17,461.72,317.35Z"/><path class="cls-2" d="M535.1,251.47l-17,87.16h40.74l-4.26,21.75H493.54l21.15-108.91Z"/><path class="cls-2" d="M632.8,249.24l24.59,111.14h-22l-3.65-16.55H597.05L587,360.38H565Zm-5.34,75.27-4.8-23-13.78,23Z"/><path class="cls-2" d="M694.62,251.47h33.1c11.29,0,19.46,4.59,24.33,11.08s7.36,12.7,5,24.73l-.54,2.84c-1.42,7.36-4.93,14.25-10.48,20.74-4.59,5.34-7.83,7.63-14,10.07l15.88,39.45H723l-19.72-48.17-9.4,48.17H673.54ZM735.9,288a13.3,13.3,0,0,0-2-10.47c-2.09-2.77-6.76-4.32-11.69-4.32H710.77L705,303.22h7.84v.07h6.76C727,303.29,734.28,296.26,735.9,288Z"/><path class="cls-5" d="M131.56,360.69c-14.12-.07-25.2-5.4-33.11-16.08S88,320.76,91,305.56s10.55-28.25,22.71-39.12,25.33-16.29,39.39-16.29l-.14.27a41.06,41.06,0,0,1,33.31,16.15l-17.5,15.61c-4.86-6.49-11.48-9.73-19.93-9.73s-16.42,3.24-23.65,9.73a41.63,41.63,0,0,0-13.58,23.44c-1.75,9.13-.34,17,4.46,23.45s11.35,9.66,19.87,9.66,16.48-3.24,23.78-9.73l11.49,15.61C161.09,353.46,147.37,360.69,131.56,360.69Z"/><path class="cls-5" d="M259.06,250.76l-4.26,21.83H214.13l-4.33,22h30.54l-4.19,21.83H205.61l-4.25,22H242l-4.19,21.75H176.76L198,250.76Z"/><path class="cls-5" d="M293.45,251l-17,87.16h40.74L313,360H251.89L273,251Z"/><path class="cls-5" d="M368.58,251l-17,87.16h40.74L388.1,360H327L348.17,251Z"/><path class="cls-5" d="M465.13,316.91,478,251h20.47c-4.26,22-8.58,44-12.84,66a54.74,54.74,0,0,1-18,31.14Q453,361,436.14,361c-11.35,0-20.13-4.26-26.48-12.84s-8.31-19-6-31.14c4.26-22,8.52-44,12.77-66H437l-12.84,65.88c-2.29,11.89,5.07,21.89,16.22,21.89S462.83,328.73,465.13,316.91Z"/><path class="cls-5" d="M538.5,251l-17,87.16h40.75L558,360H497L518.1,251Z"/><path class="cls-5" d="M636.2,248.8,660.8,360h-22l-3.65-16.56H600.46L590.39,360h-22Zm-5.33,75.27-4.8-23-13.78,23Z"/><path class="cls-5" d="M698,251h33.11c11.28,0,19.46,4.6,24.33,11.08s7.36,12.7,5,24.73l-.55,2.84c-1.41,7.36-4.93,14.26-10.47,20.74-4.59,5.34-7.84,7.64-14.05,10.07L751.27,360H726.4l-19.73-48.18L697.28,360H676.94Zm41.29,36.49a13.37,13.37,0,0,0-2-10.48c-2.1-2.77-6.76-4.32-11.69-4.32H714.17l-5.81,30.07h7.84v.06H723C730.39,302.85,737.69,295.83,739.31,287.52Z"/><path class="cls-4" d="M474.07,397.44h-2.41l-.68-3h-7.16l-1.83,3h-2.42l10.82-18.33Zm-6.3-4.95h2.77c-.24-1.14-.46-2.37-.67-3.67s-.41-2.54-.64-3.69c-.69,1.15-1.4,2.38-2.12,3.69s-1.41,2.53-2.08,3.67Z"/><path class="cls-4" d="M485.74,379.19a8.5,8.5,0,0,1,1.69.17,6.29,6.29,0,0,1,1.5.55,7.6,7.6,0,0,1,1.31.86c.23.21.45.41.63.6l-2,1.75a4.4,4.4,0,0,0-1.31-1,5.28,5.28,0,0,0-2.3-.5,6.69,6.69,0,0,0-2.51.5,8.28,8.28,0,0,0-2.31,1.49,8.87,8.87,0,0,0-1.8,2.18h0a8.32,8.32,0,0,0-1,2.59,6.74,6.74,0,0,0-.05,2.6,5.45,5.45,0,0,0,1,2.17,4.43,4.43,0,0,0,1.74,1.48,5.28,5.28,0,0,0,2.3.5,6.78,6.78,0,0,0,2.52-.5,7,7,0,0,0,1.71-1l1.27,1.75c-.27.21-.56.4-.87.6a10.86,10.86,0,0,1-1.65.86,8.56,8.56,0,0,1-3.46.72,7.08,7.08,0,0,1-3.15-.67,6.34,6.34,0,0,1-2.37-2,7,7,0,0,1-1.31-3,9.12,9.12,0,0,1,.06-3.52,11.24,11.24,0,0,1,1.31-3.53,12.58,12.58,0,0,1,2.46-3,11.18,11.18,0,0,1,3.18-2,8.44,8.44,0,0,1,2.48-.62Z"/><path class="cls-4" d="M499,379.19a8.5,8.5,0,0,1,1.69.17,6.29,6.29,0,0,1,1.5.55,7.51,7.51,0,0,1,1.3.86c.23.21.45.41.64.6l-2,1.75a4.57,4.57,0,0,0-1.32-1,5.2,5.2,0,0,0-2.29-.5,6.78,6.78,0,0,0-2.52.5,8.38,8.38,0,0,0-2.3,1.49,8.65,8.65,0,0,0-1.8,2.18h0a8.32,8.32,0,0,0-1,2.59,6.74,6.74,0,0,0-.05,2.6,5.45,5.45,0,0,0,1,2.17,4.36,4.36,0,0,0,1.74,1.48,5.28,5.28,0,0,0,2.3.5,6.82,6.82,0,0,0,2.52-.5,7.23,7.23,0,0,0,1.71-1l1.27,1.75c-.27.21-.57.4-.87.6a10.86,10.86,0,0,1-1.65.86,8.65,8.65,0,0,1-3.47.72,7.14,7.14,0,0,1-3.15-.67,6.39,6.39,0,0,1-2.36-2,7,7,0,0,1-1.31-3,8.93,8.93,0,0,1,.06-3.52,11,11,0,0,1,1.31-3.53,12.58,12.58,0,0,1,2.46-3,11.18,11.18,0,0,1,3.18-2,8.44,8.44,0,0,1,2.48-.62Z"/><path class="cls-4" d="M515.65,379.25l-.48,2.41h-7.34l-.15.76-.77,4-.15.77h5.51l-.47,2.41h-5.51l-.15.76-.77,4-.14.77h7.34l-.47,2.41h-9.61L506,379.25Z"/><path class="cls-4" d="M519.47,394.9a4.18,4.18,0,0,0,1-.57,3.4,3.4,0,0,0,.83-.86,2.87,2.87,0,0,0,.46-1.1,1.89,1.89,0,0,0,0-.92,1.75,1.75,0,0,0-.36-.72,3.13,3.13,0,0,0-.66-.56,5.52,5.52,0,0,0-.8-.41,8.16,8.16,0,0,0-.85-.31,6.41,6.41,0,0,1-1.82-.87A4.12,4.12,0,0,1,516,387.2a3.84,3.84,0,0,1-.44-1.3,4.66,4.66,0,0,1,.05-1.53,6.3,6.3,0,0,1,.77-2,7,7,0,0,1,1.38-1.68,6.46,6.46,0,0,1,1.78-1.13,5.15,5.15,0,0,1,2-.4,4.06,4.06,0,0,1,1.65.34,3.68,3.68,0,0,1,1.29.94,4.12,4.12,0,0,1,1,2.54l-2.34.51a2.36,2.36,0,0,0-.42-1,1.9,1.9,0,0,0-1.64-.8,2.66,2.66,0,0,0-1,.2,3.8,3.8,0,0,0-.95.6,3.44,3.44,0,0,0-.74.91,3.73,3.73,0,0,0-.4,1.05,2.4,2.4,0,0,0,0,.75,1.56,1.56,0,0,0,.17.6,1.71,1.71,0,0,0,.35.49,3,3,0,0,0,.46.38c.16.09.33.2.55.3l.58.25.58.2.5.2a7.29,7.29,0,0,1,1.08.55,4.71,4.71,0,0,1,.91.77,4.29,4.29,0,0,1,.7,1,3.6,3.6,0,0,1,.35,1.19,3.92,3.92,0,0,1,0,1.36,5.74,5.74,0,0,1-.83,2.07,7.13,7.13,0,0,1-1.46,1.67,6.87,6.87,0,0,1-1.87,1.1,5.38,5.38,0,0,1-2,.41,4.41,4.41,0,0,1-2-.47,4.05,4.05,0,0,1-1.52-1.36,4.19,4.19,0,0,1-.68-2l2.36-.52a2.15,2.15,0,0,0,.83,1.34,2.31,2.31,0,0,0,1.48.51A3.65,3.65,0,0,0,519.47,394.9Z"/><path class="cls-4" d="M530.47,394.9a4.59,4.59,0,0,0,1-.57,3.4,3.4,0,0,0,.83-.86,2.85,2.85,0,0,0,.45-1.1,1.79,1.79,0,0,0,0-.92,1.75,1.75,0,0,0-.36-.72,3.4,3.4,0,0,0-.66-.56,5.52,5.52,0,0,0-.8-.41,8.16,8.16,0,0,0-.85-.31,6.41,6.41,0,0,1-1.82-.87A4.12,4.12,0,0,1,527,387.2a3.64,3.64,0,0,1-.44-1.3,4.66,4.66,0,0,1,.05-1.53,6.07,6.07,0,0,1,.77-2,7,7,0,0,1,1.38-1.68,6.46,6.46,0,0,1,1.78-1.13,5.15,5.15,0,0,1,2-.4,4.06,4.06,0,0,1,1.65.34,3.68,3.68,0,0,1,1.29.94,4.12,4.12,0,0,1,1,2.54l-2.34.51a2.36,2.36,0,0,0-.42-1,1.91,1.91,0,0,0-1.65-.8,2.65,2.65,0,0,0-1,.2,3.8,3.8,0,0,0-.95.6,3.62,3.62,0,0,0-1.14,2,2.76,2.76,0,0,0,0,.75,1.76,1.76,0,0,0,.18.6,1.71,1.71,0,0,0,.35.49,2.57,2.57,0,0,0,.46.38c.16.09.33.2.55.3l.58.25.58.2.5.2a7.29,7.29,0,0,1,1.08.55,4.71,4.71,0,0,1,.91.77,4.62,4.62,0,0,1,.7,1,3.6,3.6,0,0,1,.35,1.19,3.92,3.92,0,0,1,0,1.36,5.74,5.74,0,0,1-.83,2.07,7.13,7.13,0,0,1-1.46,1.67,7,7,0,0,1-1.87,1.1,5.38,5.38,0,0,1-2,.41,4.38,4.38,0,0,1-2-.47,4,4,0,0,1-1.52-1.36,4.19,4.19,0,0,1-.68-2l2.35-.52a2.19,2.19,0,0,0,.83,1.34,2.36,2.36,0,0,0,1.49.51A3.65,3.65,0,0,0,530.47,394.9Z"/><path class="cls-4" d="M554.49,391.56l.42-2.16,2-10.15h2.25l-3.6,18.51L547,385.13l-.27,1.39-2.12,11h-2.27l3.58-18.38Z"/><path class="cls-4" d="M571,379.25l-.47,2.41h-7.35l-.15.76-.77,4-.15.77h5.51l-.46,2.41h-5.52l-.15.76-.77,4-.14.77h7.35l-.48,2.41h-9.61l3.56-18.23Z"/><path class="cls-4" d="M579.33,379.28h3.79l-.47,2.41h-4.5l-.15.75-2.91,15h-2.26l2.92-15,.14-.75h-4.52l.48-2.41h7.48Z"/><path class="cls-4" d="M586.44,379.28l1.66,11.37,5.48-10.74,1.29,10.74,6.07-11.37h2.44l-9.87,18.46-1.29-11.07-5.53,11.05L584,379.28Z"/><path class="cls-4" d="M615.16,379.81a6.59,6.59,0,0,1,2.38,2.05,7.33,7.33,0,0,1,1.32,3,9.2,9.2,0,0,1-.05,3.54,11,11,0,0,1-1.32,3.54,11.89,11.89,0,0,1-2.48,3,11,11,0,0,1-3.17,2,9.06,9.06,0,0,1-3.42.67,7.15,7.15,0,0,1-3.16-.67,6.34,6.34,0,0,1-2.37-2,7,7,0,0,1-1.3-3,8.93,8.93,0,0,1,.06-3.52,11,11,0,0,1,1.3-3.53,12.63,12.63,0,0,1,2.47-3,11.28,11.28,0,0,1,3.17-2,8.76,8.76,0,0,1,3.42-.67A7,7,0,0,1,615.16,379.81ZM609,382.09a8.21,8.21,0,0,0-2.31,1.49,8.79,8.79,0,0,0-1.8,2.19,8.28,8.28,0,0,0-1,2.58,7.1,7.1,0,0,0-.05,2.59,5.31,5.31,0,0,0,1,2.19,4.46,4.46,0,0,0,1.73,1.47,5.36,5.36,0,0,0,2.32.5,6.63,6.63,0,0,0,2.49-.5,8.16,8.16,0,0,0,2.32-1.47,9,9,0,0,0,1.81-2.19,8.19,8.19,0,0,0,1-2.59,6.6,6.6,0,0,0,0-2.58,5.63,5.63,0,0,0-.95-2.19,5,5,0,0,0-1.76-1.49,5.2,5.2,0,0,0-2.29-.5A6.7,6.7,0,0,0,609,382.09Z"/><path class="cls-4" d="M622.12,379.28h5.27a5.38,5.38,0,0,1,2.3.48,4.61,4.61,0,0,1,1.65,1.3,4.87,4.87,0,0,1,.85,1.8,5.58,5.58,0,0,1-.05,2.14l-.1.51a6.09,6.09,0,0,1-.59,1.73,10.24,10.24,0,0,1-1.09,1.58,5.44,5.44,0,0,1-1,1,5.17,5.17,0,0,1-1.16.59l-.85.34.3.78,2.42,5.95h-2.82l-2.61-6.37h-2.5l-1.24,6.37H618.6Zm3.8,9.37h0a3.27,3.27,0,0,0,1.27-.25,4.57,4.57,0,0,0,1.11-.77,4.11,4.11,0,0,0,1-1.17,4.06,4.06,0,0,0,.47-1.35,3.73,3.73,0,0,0,0-1.32,3,3,0,0,0-.5-1.1h0a2.29,2.29,0,0,0-1.07-.76,4.18,4.18,0,0,0-1.5-.25h-2.77l-.15.76-1.06,5.44-.15.75h.71l.85,0h1.79Z"/><path class="cls-4" d="M635.55,388.57l6.81-9.29H645l-6.52,8.85-.3.43.18.39,3.86,8.49h-2.74l-3.93-8.67-1.7,8.67h-2.23l3.53-18.16h2.23Z"/><path class="cls-4" d="M653.92,379.28h5.27a5.41,5.41,0,0,1,2.3.48,4.61,4.61,0,0,1,1.65,1.3,4.87,4.87,0,0,1,.85,1.8,5.58,5.58,0,0,1,0,2.14l-.1.51a6.09,6.09,0,0,1-.59,1.73,10.24,10.24,0,0,1-1.09,1.58,5.44,5.44,0,0,1-1,1,5.17,5.17,0,0,1-1.16.59l-.85.34.3.78,2.42,5.95H659l-2.61-6.37h-2.5l-1.24,6.37H650.4Zm3.8,9.37h0a3.27,3.27,0,0,0,1.27-.25,4.57,4.57,0,0,0,1.11-.77,4.11,4.11,0,0,0,.95-1.17,4.06,4.06,0,0,0,.47-1.35,3.73,3.73,0,0,0,.05-1.32,3,3,0,0,0-.5-1.1h0a2.29,2.29,0,0,0-1.07-.76,4.18,4.18,0,0,0-1.5-.25h-2.77l-.15.76-1.06,5.44-.15.75h.71l.85,0h1.79Z"/><path class="cls-4" d="M676.53,379.25l-.48,2.41H668.7l-.14.76-.77,4-.15.77h5.51l-.47,2.41h-5.52l-.14.76-.77,4-.15.77h7.35l-.48,2.41h-9.6l3.55-18.23Z"/><path class="cls-4" d="M680.35,394.9a4.59,4.59,0,0,0,1-.57,3.4,3.4,0,0,0,.83-.86,2.85,2.85,0,0,0,.45-1.1,1.9,1.9,0,0,0,0-.92,1.76,1.76,0,0,0-.37-.72,3.13,3.13,0,0,0-.66-.56,5,5,0,0,0-.79-.41c-.26-.11-.54-.21-.85-.31a6.41,6.41,0,0,1-1.82-.87,4,4,0,0,1-1.27-1.38,3.64,3.64,0,0,1-.44-1.3,4.66,4.66,0,0,1,.05-1.53,6.07,6.07,0,0,1,.77-2,6.81,6.81,0,0,1,1.38-1.68,6.32,6.32,0,0,1,1.78-1.13,5.15,5.15,0,0,1,2-.4,4,4,0,0,1,1.64.34,3.81,3.81,0,0,1,1.3.94,4.12,4.12,0,0,1,1,2.54l-2.34.51a2.36,2.36,0,0,0-.42-1,1.91,1.91,0,0,0-1.65-.8,2.65,2.65,0,0,0-1,.2,3.86,3.86,0,0,0-1,.6,3.61,3.61,0,0,0-.73.91,3.45,3.45,0,0,0-.4,1.05,2.76,2.76,0,0,0,0,.75,2,2,0,0,0,.17.6,2,2,0,0,0,.36.49,2.57,2.57,0,0,0,.46.38c.16.09.33.2.55.3l.57.25.59.2.5.2a6.72,6.72,0,0,1,1.07.55,4.76,4.76,0,0,1,.92.77,4.62,4.62,0,0,1,.7,1A3.6,3.6,0,0,1,685,391a3.92,3.92,0,0,1,0,1.36,5.74,5.74,0,0,1-.83,2.07,6.87,6.87,0,0,1-3.33,2.77,5.38,5.38,0,0,1-2,.41,4.45,4.45,0,0,1-2-.47,4,4,0,0,1-1.51-1.36,4.31,4.31,0,0,1-.69-2l2.36-.52a2.19,2.19,0,0,0,.83,1.34,2.36,2.36,0,0,0,1.49.51A3.72,3.72,0,0,0,680.35,394.9Z"/><path class="cls-4" d="M698.68,379.25l-.47,2.41h-7.35l-.15.76-.77,4-.14.77h5.5l-.46,2.41h-5.52l-.15.76-.77,4-.14.77h7.35l-.48,2.41h-9.61l3.56-18.23Z"/><path class="cls-4" d="M710.54,397.44h-2.42l-.67-3h-7.17l-1.83,3H696l10.82-18.33Zm-6.3-4.95H707c-.25-1.14-.47-2.37-.67-3.67s-.42-2.54-.65-3.69c-.69,1.15-1.39,2.38-2.11,3.69s-1.42,2.53-2.09,3.67Z"/><path class="cls-4" d="M715.61,379.28h5.28a5.33,5.33,0,0,1,2.29.48,4.44,4.44,0,0,1,1.65,1.3,4.87,4.87,0,0,1,.85,1.8,5.55,5.55,0,0,1,0,2.14l-.1.51a6.44,6.44,0,0,1-.6,1.73,10.24,10.24,0,0,1-1.09,1.58,5.75,5.75,0,0,1-1,1,5.4,5.4,0,0,1-1.16.59l-.86.34.31.78,2.42,5.95h-2.82l-2.62-6.37h-2.5l-1.23,6.37H712.1Zm3.8,9.37h0a3.27,3.27,0,0,0,1.27-.25,4.38,4.38,0,0,0,1.11-.77,4,4,0,0,0,1-1.17,4.3,4.3,0,0,0,.48-1.35,3.73,3.73,0,0,0,0-1.32,3.21,3.21,0,0,0-.5-1.1h0a2.32,2.32,0,0,0-1.08-.76,4.18,4.18,0,0,0-1.5-.25h-2.77l-.15.76-1.06,5.44-.14.75h.7l.86,0h1.78Z"/><path class="cls-4" d="M736.51,379.19a8.5,8.5,0,0,1,1.69.17,6.29,6.29,0,0,1,1.5.55,7.15,7.15,0,0,1,1.3.86c.24.21.46.41.64.6l-2,1.75a4.44,4.44,0,0,0-1.32-1,5.2,5.2,0,0,0-2.29-.5,6.69,6.69,0,0,0-2.51.5,8.28,8.28,0,0,0-2.31,1.49,8.87,8.87,0,0,0-1.8,2.18h0a8.32,8.32,0,0,0-1,2.59,6.74,6.74,0,0,0-.05,2.6,5.45,5.45,0,0,0,1,2.17,4.36,4.36,0,0,0,1.74,1.48,5.28,5.28,0,0,0,2.3.5,6.78,6.78,0,0,0,2.52-.5,7.23,7.23,0,0,0,1.71-1l1.27,1.75c-.27.21-.57.4-.87.6a10.86,10.86,0,0,1-1.65.86,8.56,8.56,0,0,1-3.47.72,7.06,7.06,0,0,1-3.14-.67,6.34,6.34,0,0,1-2.37-2,7,7,0,0,1-1.31-3,9.12,9.12,0,0,1,.06-3.52,11.24,11.24,0,0,1,1.31-3.53,12.58,12.58,0,0,1,2.46-3,11.18,11.18,0,0,1,3.18-2,8.44,8.44,0,0,1,2.48-.62Z"/><path class="cls-4" d="M745.84,379.28l-1.38,7.12-.15.76h7.53l.15-.76,1.38-7.12h2.25l-3.53,18.16h-2.25l1.38-7.12.15-.76h-7.52l-.15.76-1.39,7.12h-2.25l3.53-18.16Z"/><path class="cls-4" d="M771.91,379.16h.5a7.62,7.62,0,0,1,1.69.18,7.16,7.16,0,0,1,1.5.54,7.27,7.27,0,0,1,1.31.87c.18.16.39.35.63.6l-1.95,1.74a4.93,4.93,0,0,0-1.32-1,5.16,5.16,0,0,0-2.31-.5,6.34,6.34,0,0,0-2.5.5,8,8,0,0,0-2.32,1.49,9.16,9.16,0,0,0-1.8,2.19,8.22,8.22,0,0,0-1,2.59,6.62,6.62,0,0,0,0,2.58,5.43,5.43,0,0,0,.95,2.19,4.68,4.68,0,0,0,1.75,1.49,5.32,5.32,0,0,0,2.31.5,6.35,6.35,0,0,0,2-.33,7.45,7.45,0,0,0,1.9-.94,9.32,9.32,0,0,0,1.38-1.18,9.17,9.17,0,0,0,1.14-1.43l.68-1.09h-5.63l.44-2.26h8a12.24,12.24,0,0,1-1.17,3.58,12,12,0,0,1-5.84,5.43,8.76,8.76,0,0,1-3.42.67,7,7,0,0,1-3.15-.67,6.45,6.45,0,0,1-2.38-2,7,7,0,0,1-1.3-3,9.44,9.44,0,0,1,.07-3.54,11.48,11.48,0,0,1,1.31-3.54,11.68,11.68,0,0,1,2.46-3,10.56,10.56,0,0,1,3.17-2,8.72,8.72,0,0,1,2.9-.67Z"/><path class="cls-4" d="M782.48,379.28h5.28a5.33,5.33,0,0,1,2.29.48,4.44,4.44,0,0,1,1.65,1.3,4.87,4.87,0,0,1,.85,1.8,5.38,5.38,0,0,1,0,2.14l-.09.51a6.11,6.11,0,0,1-.6,1.73,10.24,10.24,0,0,1-1.09,1.58,5.75,5.75,0,0,1-1,1,5.17,5.17,0,0,1-1.16.59l-.86.34.31.78,2.42,5.95h-2.82L785,391.07h-2.5l-1.23,6.37H779Zm3.8,9.37h0a3.27,3.27,0,0,0,1.27-.25,4.38,4.38,0,0,0,1.11-.77,4,4,0,0,0,1-1.17,4.3,4.3,0,0,0,.48-1.35,3.73,3.73,0,0,0,0-1.32,3.21,3.21,0,0,0-.5-1.1h0a2.32,2.32,0,0,0-1.08-.76,4.18,4.18,0,0,0-1.5-.25h-2.77l-.15.76-1.06,5.44-.15.75h.71l.86,0h1.78Z"/><path class="cls-4" d="M806.56,379.81a6.75,6.75,0,0,1,2.38,2.05,7.18,7.18,0,0,1,1.31,3,9.39,9.39,0,0,1,0,3.54,11.44,11.44,0,0,1-1.32,3.54,12.33,12.33,0,0,1-2.48,3,11,11,0,0,1-3.17,2,9.09,9.09,0,0,1-3.42.67,7.09,7.09,0,0,1-3.16-.67,6.34,6.34,0,0,1-2.37-2,7,7,0,0,1-1.31-3,9.12,9.12,0,0,1,.06-3.52,11.24,11.24,0,0,1,1.31-3.53,12.58,12.58,0,0,1,2.46-3,11.18,11.18,0,0,1,3.18-2,8.73,8.73,0,0,1,3.42-.67A7,7,0,0,1,806.56,379.81Zm-6.15,2.28a8.17,8.17,0,0,0-2.3,1.49,8.62,8.62,0,0,0-1.81,2.19,8.27,8.27,0,0,0-1,2.58,6.69,6.69,0,0,0-.05,2.59,5.17,5.17,0,0,0,1,2.19A4.42,4.42,0,0,0,798,394.6a5.3,5.3,0,0,0,2.32.5,6.63,6.63,0,0,0,2.49-.5,8.45,8.45,0,0,0,2.32-1.47,9.16,9.16,0,0,0,1.8-2.19,7.74,7.74,0,0,0,1-2.59,6.6,6.6,0,0,0,0-2.58,5.49,5.49,0,0,0-.95-2.19,4.9,4.9,0,0,0-1.75-1.49,5.28,5.28,0,0,0-2.3-.5A6.74,6.74,0,0,0,800.41,382.09Z"/><path class="cls-4" d="M826.89,379.28l-1.39,7.18-.78,4a9.39,9.39,0,0,1-1,2.76,10,10,0,0,1-1.93,2.32h0a8.89,8.89,0,0,1-2.48,1.57,6.64,6.64,0,0,1-2.65.53,5.69,5.69,0,0,1-2.48-.51,4.81,4.81,0,0,1-1.85-1.6,5.51,5.51,0,0,1-1-2.32,7.38,7.38,0,0,1,.06-2.76l.77-4,1.39-7.18h2.29l-1.39,7.18-.7,3.55-.07.42a4.56,4.56,0,0,0,0,1.8,3.86,3.86,0,0,0,.67,1.53,3.12,3.12,0,0,0,1.22,1,3.6,3.6,0,0,0,1.61.35,4.79,4.79,0,0,0,1.75-.35,5.54,5.54,0,0,0,1.61-1,6.24,6.24,0,0,0,1.3-1.53,5.94,5.94,0,0,0,.67-1.8l.08-.42.7-3.55,1.39-7.18Z"/><path class="cls-4" d="M826.58,392.3l1.34-6.89,1.18-6.13h5.72a4.66,4.66,0,0,1,2.09.45,4.44,4.44,0,0,1,1.59,1.36,4.93,4.93,0,0,1,.89,2,6.24,6.24,0,0,1,0,2.35,7.74,7.74,0,0,1-.86,2.36,8.15,8.15,0,0,1-1.64,2,7.89,7.89,0,0,1-2.13,1.36,6.16,6.16,0,0,1-2.28.44H829l-.15.76-1,5.14h-2.25Zm2.86-3.17h.71l2.75,0a3.57,3.57,0,0,0,1.38-.27,4.38,4.38,0,0,0,1.28-.82,5.65,5.65,0,0,0,1-1.21,4.21,4.21,0,0,0,.54-1.43,3.53,3.53,0,0,0,0-1.41,3.27,3.27,0,0,0-.52-1.21,2.43,2.43,0,0,0-1-.83,2.72,2.72,0,0,0-1.28-.28H830.9l-.15.75-.57,3-.58,3Z"/></g></g></svg>