<svg xmlns="http://www.w3.org/2000/svg" viewBox="0 0 956 469"><defs><style>.cls-1,.cls-3,.cls-5{fill:none;}.cls-2{fill:#fff;}.cls-3,.cls-5{stroke:#4d4e4e;stroke-miterlimit:10;}.cls-3{stroke-width:2px;}.cls-4{fill:#ffc107;}.cls-5{stroke-width:3px;}</style></defs><title>Asset 12</title><g id="Layer_2" data-name="Layer 2"><g id="Layer_1-2" data-name="Layer 1"><rect class="cls-1" width="956" height="469"/><path class="cls-2" d="M634.4,243.82c-11.15-8.62-23.67-16.09-37.1-20.71l8-16.19h15.82a23,23,0,0,0,3.46,4.63,21.44,21.44,0,0,0,15.47,6.62A22.45,22.45,0,0,0,662.23,196a21.41,21.41,0,0,0-6.63-15.46,22.16,22.16,0,0,0-15.52-6.32A21.81,21.81,0,0,0,618.29,196H598.57L586.63,220.1a81.29,81.29,0,0,0-17.36-1.93c-23.88,0-46.46,11.22-65.13,25.65a126.62,126.62,0,0,0-25.09,25.41l-2.74,3.41,2.74,3.41a126.91,126.91,0,0,0,25.09,25.41c10.82,8.36,23,15.66,35.91,20.3L533,338.36H520.25V327.47H476.31v32.68h43.94v-10.9h19.94l10.37-24.38a82,82,0,0,0,18.71,2.23c23.88,0,46.46-11.21,65.13-25.64,12.8-9.89,20.11-19.27,27.83-28.82C654.75,263.39,647.47,253.92,634.4,243.82Zm5.68-58.69A11.22,11.22,0,0,1,651.33,196a11.55,11.55,0,0,1-11.25,11.26A11.23,11.23,0,0,1,629.18,196,10.91,10.91,0,0,1,640.08,185.13ZM509.36,349.25H487.21V338.36h22.15Zm35-37.56c-13.15-4.63-24.72-12.06-33.33-18.7-10.3-7.93-16.52-15.95-20.49-20.35,9.77-10.81,41-43.57,78.76-43.57a68.25,68.25,0,0,1,12.34,1.15l-5.22,10.52a32.67,32.67,0,0,0-26.6,58.12Zm3.15-39.05a21.79,21.79,0,1,1,21.79,21.78A21.81,21.81,0,0,1,547.48,272.64Zm21.79,43.57a69.28,69.28,0,0,1-14.37-1.55l4.61-10.83a32.68,32.68,0,0,0,27-58.95L592.4,233c13.9,4.57,26.13,12.38,35.14,19.31,10.3,7.93,16.52,16,20.49,20.36C638.25,283.44,607,316.21,569.27,316.21Z"/><rect class="cls-2" x="563.82" y="267.19" width="10.89" height="10.89"/><path class="cls-3" d="M637.4,243.82c-11.15-8.62-23.67-16.09-37.1-20.71l8-16.19h15.82a23,23,0,0,0,3.46,4.63,21.44,21.44,0,0,0,15.47,6.62A22.45,22.45,0,0,0,665.23,196a21.41,21.41,0,0,0-6.63-15.46,22.16,22.16,0,0,0-15.52-6.32A21.81,21.81,0,0,0,621.29,196H601.57L589.63,220.1a81.29,81.29,0,0,0-17.36-1.93c-23.88,0-46.46,11.22-65.13,25.65a126.62,126.62,0,0,0-25.09,25.41l-2.74,3.41,2.74,3.41a126.91,126.91,0,0,0,25.09,25.41c10.82,8.36,23,15.66,35.91,20.3L536,338.36H523.25V327.47H479.31v32.68h43.94v-10.9h19.94l10.37-24.38a82,82,0,0,0,18.71,2.23c23.88,0,46.46-11.21,65.13-25.64,12.8-9.89,20.11-19.27,27.83-28.82C657.75,263.39,650.47,253.92,637.4,243.82Zm5.68-58.69A11.22,11.22,0,0,1,654.33,196a11.55,11.55,0,0,1-11.25,11.26A11.23,11.23,0,0,1,632.18,196,10.91,10.91,0,0,1,643.08,185.13ZM512.36,349.25H490.21V338.36h22.15Zm35-37.56c-13.15-4.63-24.72-12.06-33.33-18.7-10.3-7.93-16.52-15.95-20.49-20.35,9.77-10.81,41-43.57,78.76-43.57a68.25,68.25,0,0,1,12.34,1.15l-5.22,10.52a32.67,32.67,0,0,0-26.6,58.12Zm3.15-39.05a21.79,21.79,0,1,1,21.79,21.78A21.81,21.81,0,0,1,550.48,272.64Zm21.79,43.57a69.28,69.28,0,0,1-14.37-1.55l4.61-10.83a32.68,32.68,0,0,0,27-58.95L595.4,233c13.9,4.57,26.13,12.38,35.14,19.31,10.3,7.93,16.52,16,20.49,20.36C641.25,283.44,610,316.21,572.27,316.21Z"/><rect class="cls-3" x="566.82" y="267.19" width="10.89" height="10.89"/><path class="cls-3" d="M637.4,243.82c-11.15-8.62-23.67-16.09-37.1-20.71l8-16.19h15.82a23,23,0,0,0,3.46,4.63,21.44,21.44,0,0,0,15.47,6.62A22.45,22.45,0,0,0,665.23,196a21.41,21.41,0,0,0-6.63-15.46,22.16,22.16,0,0,0-15.52-6.32A21.81,21.81,0,0,0,621.29,196H601.57L589.63,220.1a81.29,81.29,0,0,0-17.36-1.93c-23.88,0-46.46,11.22-65.13,25.65a126.62,126.62,0,0,0-25.09,25.41l-2.74,3.41,2.74,3.41a126.91,126.91,0,0,0,25.09,25.41c10.82,8.36,23,15.66,35.91,20.3L536,338.36H523.25V327.47H479.31v32.68h43.94v-10.9h19.94l10.37-24.38a82,82,0,0,0,18.71,2.23c23.88,0,46.46-11.21,65.13-25.64,12.8-9.89,20.11-19.27,27.83-28.82C657.75,263.39,650.47,253.92,637.4,243.82Zm5.68-58.69A11.22,11.22,0,0,1,654.33,196a11.55,11.55,0,0,1-11.25,11.26A11.23,11.23,0,0,1,632.18,196,10.91,10.91,0,0,1,643.08,185.13ZM512.36,349.25H490.21V338.36h22.15Zm35-37.56c-13.15-4.63-24.72-12.06-33.33-18.7-10.3-7.93-16.52-15.95-20.49-20.35,9.77-10.81,41-43.57,78.76-43.57a68.25,68.25,0,0,1,12.34,1.15l-5.22,10.52a32.67,32.67,0,0,0-26.6,58.12Zm3.15-39.05a21.79,21.79,0,1,1,21.79,21.78A21.81,21.81,0,0,1,550.48,272.64Zm21.79,43.57a69.28,69.28,0,0,1-14.37-1.55l4.61-10.83a32.68,32.68,0,0,0,27-58.95L595.4,233c13.9,4.57,26.13,12.38,35.14,19.31,10.3,7.93,16.52,16,20.49,20.36C641.25,283.44,610,316.21,572.27,316.21Z"/><rect class="cls-3" x="566.82" y="267.19" width="10.89" height="10.89"/><path class="cls-4" d="M325.75,251h20.41L324.94,360H304.6Z"/><path class="cls-4" d="M439.46,266.44q12,16.31,7.5,39.12t-22.7,39.05C412.1,355.35,399,360.69,384.8,360.69s-25.27-5.4-33.17-16.08-10.48-23.85-7.5-39.05,10.54-28.25,22.7-39.12,25.34-16.29,39.46-16.29S431.49,255.56,439.46,266.44ZM378.32,282a41.63,41.63,0,0,0-13.65,23.44c-1.76,9.12-.27,17,4.52,23.45s11.42,9.66,19.94,9.66,16.28-3.24,23.58-9.66a41,41,0,0,0,13.71-23.45c1.76-9.12.21-16.89-4.59-23.44s-11.42-9.73-19.87-9.73S385.55,275.49,378.32,282Z"/><path class="cls-4" d="M530.27,251l-4.19,21.69H501.22l-17,87.23H463.85l17-87.23h-25L460.07,251Z"/><path class="cls-2" d="M317.28,251.47h20.4L316.47,360.38H296.13Z"/><path class="cls-2" d="M431,266.87q12,16.32,7.5,39.12t-22.7,39.06c-12.16,10.74-25.27,16.08-39.46,16.08s-25.27-5.41-33.17-16.08-10.48-23.85-7.5-39.06,10.54-28.24,22.7-39.12,25.34-16.28,39.46-16.28S423,256,431,266.87Zm-61.15,15.54a41.73,41.73,0,0,0-13.64,23.45c-1.76,9.12-.27,17,4.52,23.44S372.14,339,380.65,339s16.29-3.25,23.59-9.67A41,41,0,0,0,418,305.86c1.76-9.12.2-16.89-4.59-23.45s-11.42-9.73-19.87-9.73S377.07,275.93,369.84,282.41Z"/><path class="cls-2" d="M521.8,251.47l-4.19,21.69H492.74l-16.95,87.22H455.38l17-87.22h-25l4.26-21.69Z"/><path class="cls-5" d="M320.69,251h20.4L319.87,360H299.54Z"/><path class="cls-5" d="M434.4,266.44q12,16.31,7.5,39.12t-22.7,39.05c-12.17,10.74-25.27,16.08-39.46,16.08s-25.27-5.4-33.18-16.08-10.47-23.85-7.5-39.05,10.54-28.25,22.7-39.12,25.34-16.29,39.46-16.29S426.43,255.56,434.4,266.44ZM373.25,282a41.69,41.69,0,0,0-13.65,23.44c-1.75,9.12-.27,17,4.53,23.45s11.42,9.66,19.93,9.66,16.29-3.24,23.58-9.66a41,41,0,0,0,13.72-23.45c1.76-9.12.2-16.89-4.6-23.44s-11.41-9.73-19.86-9.73S380.48,275.49,373.25,282Z"/><path class="cls-5" d="M525.21,251,521,272.72H496.15l-17,87.23h-20.4l17-87.23h-25L455,251Z"/><path class="cls-4" d="M302.55,397.44h-2.42l-.67-3h-7.17l-1.83,3h-2.41l10.81-18.33Zm-6.3-4.95H299c-.24-1.14-.46-2.37-.67-3.67s-.42-2.54-.65-3.69c-.68,1.15-1.39,2.38-2.11,3.69s-1.42,2.53-2.09,3.67Z"/><path class="cls-4" d="M314.22,379.19a8.47,8.47,0,0,1,1.68.17,6,6,0,0,1,1.5.55,7.24,7.24,0,0,1,1.31.86c.23.21.45.41.63.6l-2,1.75a4.58,4.58,0,0,0-1.32-1,5.2,5.2,0,0,0-2.29-.5,6.74,6.74,0,0,0-2.52.5,8.28,8.28,0,0,0-2.31,1.49,8.61,8.61,0,0,0-1.79,2.18h0a8.34,8.34,0,0,0-1,2.59,7.15,7.15,0,0,0-.05,2.6,5.34,5.34,0,0,0,1,2.17,4.4,4.4,0,0,0,1.73,1.48,5.35,5.35,0,0,0,2.31.5,6.77,6.77,0,0,0,2.51-.5,6.86,6.86,0,0,0,1.71-1l1.27,1.75c-.27.21-.56.4-.86.6a10.86,10.86,0,0,1-1.65.86,8.65,8.65,0,0,1-3.47.72,7.14,7.14,0,0,1-3.15-.67,6.34,6.34,0,0,1-2.37-2,7,7,0,0,1-1.3-3,8.93,8.93,0,0,1,.06-3.52,11,11,0,0,1,1.3-3.53,12.39,12.39,0,0,1,2.47-3,11.28,11.28,0,0,1,3.17-2,8.6,8.6,0,0,1,2.48-.62Z"/><path class="cls-4" d="M327.43,379.19a8.47,8.47,0,0,1,1.68.17,6.14,6.14,0,0,1,1.5.55,7.24,7.24,0,0,1,1.31.86c.23.21.45.41.63.6l-2,1.75a4.57,4.57,0,0,0-1.32-1,5.24,5.24,0,0,0-2.3-.5,6.73,6.73,0,0,0-2.51.5,8.28,8.28,0,0,0-2.31,1.49,8.61,8.61,0,0,0-1.79,2.18h0a8.1,8.1,0,0,0-1,2.59,7.15,7.15,0,0,0-.05,2.6,5.34,5.34,0,0,0,1,2.17,4.33,4.33,0,0,0,1.73,1.48,5.32,5.32,0,0,0,2.31.5,6.77,6.77,0,0,0,2.51-.5,7,7,0,0,0,1.71-1l1.27,1.75c-.27.21-.56.4-.87.6a11.26,11.26,0,0,1-1.64.86,8.51,8.51,0,0,1-1.7.54,8.64,8.64,0,0,1-1.77.18,7.14,7.14,0,0,1-3.15-.67,6.34,6.34,0,0,1-2.37-2,7.13,7.13,0,0,1-1.31-3,9.14,9.14,0,0,1,.07-3.52,11,11,0,0,1,1.3-3.53,12.39,12.39,0,0,1,2.47-3,11.14,11.14,0,0,1,3.17-2,8.6,8.6,0,0,1,2.48-.62Z"/><path class="cls-4" d="M344.12,379.25l-.47,2.41H336.3l-.15.76-.77,4-.14.77h5.5l-.46,2.41h-5.52l-.14.76-.77,4-.15.77h7.35l-.48,2.41H331l3.55-18.23Z"/><path class="cls-4" d="M348,394.9a4.59,4.59,0,0,0,1-.57,3.4,3.4,0,0,0,.83-.86,2.85,2.85,0,0,0,.45-1.1,2,2,0,0,0,0-.92,1.89,1.89,0,0,0-.37-.72,3.13,3.13,0,0,0-.66-.56,5.43,5.43,0,0,0-.79-.41c-.26-.11-.54-.21-.86-.31a6.48,6.48,0,0,1-1.81-.87,4,4,0,0,1-1.27-1.38,3.64,3.64,0,0,1-.44-1.3,4.41,4.41,0,0,1,.05-1.53,6.28,6.28,0,0,1,.76-2,7.29,7.29,0,0,1,1.38-1.68,6.51,6.51,0,0,1,1.79-1.13,5.06,5.06,0,0,1,2-.4,4.06,4.06,0,0,1,1.65.34,3.81,3.81,0,0,1,1.3.94,4.18,4.18,0,0,1,1,2.54l-2.35.51a2.35,2.35,0,0,0-.41-1,1.92,1.92,0,0,0-1.65-.8,2.73,2.73,0,0,0-1,.2,4,4,0,0,0-.95.6,3.61,3.61,0,0,0-.73.91,3.21,3.21,0,0,0-.4,1.05,2.76,2.76,0,0,0,0,.75,1.76,1.76,0,0,0,.17.6,2,2,0,0,0,.36.49,2.26,2.26,0,0,0,.46.38c.16.09.33.2.55.3s.41.19.57.25l.59.2.5.2a7.18,7.18,0,0,1,1.07.55,4.76,4.76,0,0,1,.92.77,4.24,4.24,0,0,1,.69,1,3.38,3.38,0,0,1,.36,1.19,3.92,3.92,0,0,1-.05,1.36,5.93,5.93,0,0,1-.83,2.07,7.17,7.17,0,0,1-1.47,1.67,7,7,0,0,1-1.86,1.1,5.47,5.47,0,0,1-2,.41,4.41,4.41,0,0,1-2-.47,4,4,0,0,1-1.51-1.36,4.31,4.31,0,0,1-.69-2l2.36-.52a2.19,2.19,0,0,0,.83,1.34,2.36,2.36,0,0,0,1.49.51A3.72,3.72,0,0,0,348,394.9Z"/><path class="cls-4" d="M358.94,394.9a4.44,4.44,0,0,0,1-.57,3.78,3.78,0,0,0,.83-.86,2.85,2.85,0,0,0,.45-1.1,2,2,0,0,0,0-.92,1.89,1.89,0,0,0-.37-.72,3.13,3.13,0,0,0-.66-.56,6,6,0,0,0-.79-.41c-.26-.11-.54-.21-.86-.31a6.68,6.68,0,0,1-1.82-.87,4.12,4.12,0,0,1-1.27-1.38,3.63,3.63,0,0,1-.43-1.3,4.65,4.65,0,0,1,0-1.53,6.3,6.3,0,0,1,.77-2,7.29,7.29,0,0,1,1.38-1.68,6.61,6.61,0,0,1,1.78-1.13,5.15,5.15,0,0,1,2-.4,4.06,4.06,0,0,1,1.65.34,3.68,3.68,0,0,1,1.29.94,4.19,4.19,0,0,1,1,2.54l-2.35.51a2.35,2.35,0,0,0-.41-1,1.93,1.93,0,0,0-1.65-.8,2.69,2.69,0,0,0-1,.2,3.8,3.8,0,0,0-.95.6,3.4,3.4,0,0,0-.73.91,3.21,3.21,0,0,0-.4,1.05,2.41,2.41,0,0,0,0,.75,1.56,1.56,0,0,0,.17.6,2.22,2.22,0,0,0,.35.49,2.61,2.61,0,0,0,.47.38c.16.09.33.2.55.3s.41.19.57.25l.59.2.5.2a7.18,7.18,0,0,1,1.07.55,4.76,4.76,0,0,1,.92.77,4.24,4.24,0,0,1,.69,1,3.38,3.38,0,0,1,.36,1.19,3.92,3.92,0,0,1-.05,1.36,6.12,6.12,0,0,1-.83,2.07,7.41,7.41,0,0,1-1.47,1.67,7,7,0,0,1-1.86,1.1,5.47,5.47,0,0,1-2,.41,4.41,4.41,0,0,1-2-.47,4,4,0,0,1-1.51-1.36,4.2,4.2,0,0,1-.69-2l2.36-.52a2.19,2.19,0,0,0,.83,1.34,2.36,2.36,0,0,0,1.49.51A3.59,3.59,0,0,0,358.94,394.9Z"/><path class="cls-4" d="M383,391.56l.41-2.16,2-10.15h2.26L384,397.76l-8.57-12.63-.27,1.39-2.13,11h-2.27l3.58-18.38Z"/><path class="cls-4" d="M399.45,379.25l-.48,2.41h-7.35l-.14.76-.77,4-.15.77h5.51l-.47,2.41h-5.52l-.14.76-.77,4-.15.77h7.35l-.48,2.41h-9.6l3.55-18.23Z"/><path class="cls-4" d="M407.81,379.28h3.78l-.46,2.41h-4.51l-.14.75-2.92,15H401.3l2.92-15,.15-.75h-4.52l.48-2.41h7.48Z"/><path class="cls-4" d="M414.91,379.28l1.66,11.37,5.48-10.74,1.3,10.74,6.06-11.37h2.45L422,397.74l-1.28-11.07-5.53,11.05-2.69-18.44Z"/><path class="cls-4" d="M443.64,379.81a6.75,6.75,0,0,1,2.38,2.05,7.18,7.18,0,0,1,1.31,3,9.39,9.39,0,0,1,0,3.54,11.44,11.44,0,0,1-1.32,3.54,12.11,12.11,0,0,1-2.48,3,11,11,0,0,1-3.17,2,9.09,9.09,0,0,1-3.42.67,7.09,7.09,0,0,1-3.16-.67,6.34,6.34,0,0,1-2.37-2,7,7,0,0,1-1.31-3,9.12,9.12,0,0,1,.06-3.52,11.24,11.24,0,0,1,1.31-3.53,12.58,12.58,0,0,1,2.46-3,11.18,11.18,0,0,1,3.18-2,8.73,8.73,0,0,1,3.42-.67A7,7,0,0,1,443.64,379.81Zm-6.14,2.28a8.21,8.21,0,0,0-2.31,1.49,8.62,8.62,0,0,0-1.81,2.19,8.27,8.27,0,0,0-1,2.58,6.69,6.69,0,0,0-.05,2.59,5.29,5.29,0,0,0,1,2.19,4.42,4.42,0,0,0,1.74,1.47,5.3,5.3,0,0,0,2.32.5,6.63,6.63,0,0,0,2.49-.5,8.45,8.45,0,0,0,2.32-1.47,9.16,9.16,0,0,0,1.8-2.19,7.74,7.74,0,0,0,1-2.59,6.81,6.81,0,0,0,0-2.58,5.65,5.65,0,0,0-1-2.19,4.9,4.9,0,0,0-1.75-1.49,5.28,5.28,0,0,0-2.3-.5A6.65,6.65,0,0,0,437.5,382.09Z"/><path class="cls-4" d="M450.59,379.28h5.28a5.33,5.33,0,0,1,2.29.48,4.44,4.44,0,0,1,1.65,1.3,4.87,4.87,0,0,1,.85,1.8,5.55,5.55,0,0,1,0,2.14l-.1.51a6.11,6.11,0,0,1-.6,1.73,9.59,9.59,0,0,1-1.09,1.58,5.43,5.43,0,0,1-1,1,5.17,5.17,0,0,1-1.16.59l-.86.34.31.78,2.42,5.95H455.7l-2.62-6.37h-2.5l-1.23,6.37h-2.27Zm3.8,9.37h0a3.27,3.27,0,0,0,1.27-.25,4.38,4.38,0,0,0,1.11-.77,4,4,0,0,0,1-1.17,4.3,4.3,0,0,0,.48-1.35,3.73,3.73,0,0,0,.05-1.32,3.21,3.21,0,0,0-.5-1.1h0a2.32,2.32,0,0,0-1.08-.76,4.18,4.18,0,0,0-1.5-.25H452.4l-.15.76-1.06,5.44-.14.75h.7l.86,0h1.78Z"/><path class="cls-4" d="M464,388.57l6.81-9.29h2.6l-6.52,8.85-.3.43.18.39,3.86,8.49h-2.73L464,388.77l-1.7,8.67h-2.24l3.53-18.16h2.24Z"/><path class="cls-4" d="M482.39,379.28h5.28a5.33,5.33,0,0,1,2.29.48,4.44,4.44,0,0,1,1.65,1.3,4.87,4.87,0,0,1,.85,1.8,5.55,5.55,0,0,1,0,2.14l-.1.51a6.11,6.11,0,0,1-.6,1.73,10.24,10.24,0,0,1-1.09,1.58,5.75,5.75,0,0,1-1,1,5.4,5.4,0,0,1-1.16.59l-.86.34.31.78,2.42,5.95H487.5l-2.62-6.37h-2.5l-1.23,6.37h-2.27Zm3.8,9.37h0a3.27,3.27,0,0,0,1.27-.25,4.38,4.38,0,0,0,1.11-.77,4,4,0,0,0,.95-1.17,4.3,4.3,0,0,0,.48-1.35,3.73,3.73,0,0,0,.05-1.32,3.21,3.21,0,0,0-.5-1.1h0a2.32,2.32,0,0,0-1.08-.76,4.18,4.18,0,0,0-1.5-.25H484.2l-.15.76L483,387.88l-.14.75h.7l.86,0h1.78Z"/><path class="cls-4" d="M505,379.25l-.48,2.41h-7.34l-.15.76-.77,4-.15.77h5.51l-.46,2.41h-5.52l-.15.76-.77,4-.14.77h7.34l-.47,2.41h-9.61l3.55-18.23Z"/><path class="cls-4" d="M508.82,394.9a4.18,4.18,0,0,0,1-.57,3.4,3.4,0,0,0,.83-.86,2.87,2.87,0,0,0,.46-1.1,1.89,1.89,0,0,0,0-.92,1.75,1.75,0,0,0-.36-.72,3.13,3.13,0,0,0-.66-.56,6,6,0,0,0-.79-.41c-.26-.11-.54-.21-.86-.31a6.41,6.41,0,0,1-1.82-.87,4.12,4.12,0,0,1-1.27-1.38,3.84,3.84,0,0,1-.44-1.3,4.66,4.66,0,0,1,.05-1.53,6.3,6.3,0,0,1,.77-2,7,7,0,0,1,1.38-1.68,6.61,6.61,0,0,1,1.78-1.13,5.15,5.15,0,0,1,2-.4,4.06,4.06,0,0,1,1.65.34,3.68,3.68,0,0,1,1.29.94,4.12,4.12,0,0,1,1,2.54l-2.34.51a2.36,2.36,0,0,0-.42-1,1.9,1.9,0,0,0-1.64-.8,2.66,2.66,0,0,0-1,.2,3.8,3.8,0,0,0-.95.6,3.4,3.4,0,0,0-.73.91,3.47,3.47,0,0,0-.41,1.05,2.4,2.4,0,0,0,0,.75,1.56,1.56,0,0,0,.17.6,1.71,1.71,0,0,0,.35.49,2.61,2.61,0,0,0,.47.38c.15.09.33.2.54.3l.58.25.58.2.51.2a7.7,7.7,0,0,1,1.07.55,4.71,4.71,0,0,1,.91.77,4,4,0,0,1,.7,1,3.6,3.6,0,0,1,.35,1.19,3.91,3.91,0,0,1,0,1.36,6.12,6.12,0,0,1-.83,2.07,7.41,7.41,0,0,1-1.47,1.67,6.87,6.87,0,0,1-1.87,1.1,5.38,5.38,0,0,1-2,.41,4.41,4.41,0,0,1-2-.47,4.05,4.05,0,0,1-1.52-1.36,4.19,4.19,0,0,1-.68-2l2.36-.52a2.19,2.19,0,0,0,.83,1.34,2.34,2.34,0,0,0,1.49.51A3.59,3.59,0,0,0,508.82,394.9Z"/><path class="cls-4" d="M527.16,379.25l-.48,2.41h-7.35l-.14.76-.77,4-.15.77h5.51l-.47,2.41h-5.52l-.14.76-.77,4-.15.77h7.35l-.48,2.41H514l3.55-18.23Z"/><path class="cls-4" d="M539,397.44h-2.42l-.67-3h-7.16l-1.84,3h-2.41l10.81-18.33Zm-6.3-4.95h2.77c-.24-1.14-.46-2.37-.67-3.67s-.41-2.54-.65-3.69c-.68,1.15-1.39,2.38-2.11,3.69s-1.41,2.53-2.09,3.67Z"/><path class="cls-4" d="M544.09,379.28h5.27a5.41,5.41,0,0,1,2.3.48,4.49,4.49,0,0,1,1.64,1.3,4.75,4.75,0,0,1,.86,1.8,5.58,5.58,0,0,1,0,2.14l-.1.51a6.11,6.11,0,0,1-.6,1.73,9.48,9.48,0,0,1-1.08,1.58,5.44,5.44,0,0,1-1,1,5.17,5.17,0,0,1-1.16.59l-.85.34.3.78,2.42,5.95h-2.82l-2.61-6.37h-2.5l-1.24,6.37h-2.27Zm3.79,9.37h0a3.2,3.2,0,0,0,1.27-.25,4.22,4.22,0,0,0,1.11-.77,4,4,0,0,0,1-1.17,4.06,4.06,0,0,0,.47-1.35,3.73,3.73,0,0,0,0-1.32,3,3,0,0,0-.5-1.1h0a2.29,2.29,0,0,0-1.07-.76,4.22,4.22,0,0,0-1.5-.25h-2.78l-.14.76-1.06,5.44-.15.75h.71l.85,0h1.78Z"/><path class="cls-4" d="M565,379.19a8.47,8.47,0,0,1,1.68.17,6,6,0,0,1,1.5.55,7.24,7.24,0,0,1,1.31.86c.23.21.45.41.63.6l-2,1.75a4.58,4.58,0,0,0-1.32-1,5.21,5.21,0,0,0-2.3-.5,6.73,6.73,0,0,0-2.51.5,8.28,8.28,0,0,0-2.31,1.49,8.61,8.61,0,0,0-1.79,2.18h0a8.1,8.1,0,0,0-1,2.59,7.15,7.15,0,0,0-.05,2.6,5.34,5.34,0,0,0,1,2.17,4.33,4.33,0,0,0,1.73,1.48,5.35,5.35,0,0,0,2.31.5,6.77,6.77,0,0,0,2.51-.5,7,7,0,0,0,1.71-1l1.27,1.75c-.27.21-.56.4-.87.6a10.77,10.77,0,0,1-1.64.86,8.65,8.65,0,0,1-3.47.72,7.14,7.14,0,0,1-3.15-.67,6.34,6.34,0,0,1-2.37-2,7,7,0,0,1-1.3-3,8.93,8.93,0,0,1,.06-3.52,11,11,0,0,1,1.3-3.53,12.39,12.39,0,0,1,2.47-3,11.14,11.14,0,0,1,3.17-2,8.6,8.6,0,0,1,2.48-.62Z"/><path class="cls-4" d="M574.31,379.28l-1.38,7.12-.14.76h7.53l.14-.76,1.38-7.12h2.25l-3.53,18.16h-2.24l1.38-7.12.14-.76h-7.52l-.14.76-1.4,7.12h-2.24l3.53-18.16Z"/><path class="cls-4" d="M600.39,379.16h.5a7.46,7.46,0,0,1,1.68.18,7.16,7.16,0,0,1,1.5.54,6.93,6.93,0,0,1,1.31.87c.18.16.39.35.63.6l-2,1.74a4.93,4.93,0,0,0-1.32-1,5.15,5.15,0,0,0-2.3-.5,6.35,6.35,0,0,0-2.51.5,8.28,8.28,0,0,0-2.32,1.49,9.11,9.11,0,0,0-1.79,2.19,8,8,0,0,0-1,2.59,6.8,6.8,0,0,0,0,2.58,5.16,5.16,0,0,0,1,2.19,4.65,4.65,0,0,0,1.74,1.49,5.35,5.35,0,0,0,2.31.5,6.35,6.35,0,0,0,2-.33,7.51,7.51,0,0,0,1.91-.94,9.86,9.86,0,0,0,1.38-1.18,9.73,9.73,0,0,0,1.13-1.43l.68-1.09h-5.62l.44-2.26h8a12.24,12.24,0,0,1-1.17,3.58,11.53,11.53,0,0,1-2.66,3.41,11.65,11.65,0,0,1-3.17,2,8.84,8.84,0,0,1-3.42.67,6.9,6.9,0,0,1-3.15-.67,6.37,6.37,0,0,1-2.38-2,7,7,0,0,1-1.31-3,9.25,9.25,0,0,1,.08-3.54,11.22,11.22,0,0,1,1.3-3.54,11.73,11.73,0,0,1,2.47-3,10.64,10.64,0,0,1,3.16-2,8.78,8.78,0,0,1,2.9-.67Z"/><path class="cls-4" d="M611,379.28h5.27a5.41,5.41,0,0,1,2.3.48,4.49,4.49,0,0,1,1.64,1.3,4.75,4.75,0,0,1,.86,1.8,5.58,5.58,0,0,1,0,2.14l-.1.51a5.81,5.81,0,0,1-.6,1.73,9.48,9.48,0,0,1-1.08,1.58,5.44,5.44,0,0,1-1,1,5.17,5.17,0,0,1-1.16.59l-.85.34.3.78,2.42,5.95h-2.82l-2.61-6.37H611l-1.24,6.37h-2.27Zm3.79,9.37h0a3.2,3.2,0,0,0,1.27-.25,4.22,4.22,0,0,0,1.11-.77,4,4,0,0,0,1-1.17,4.06,4.06,0,0,0,.47-1.35,3.73,3.73,0,0,0,.05-1.32,3,3,0,0,0-.5-1.1h0a2.29,2.29,0,0,0-1.07-.76,4.22,4.22,0,0,0-1.5-.25h-2.78l-.14.76-1.06,5.44-.15.75h.71l.85,0h1.78Z"/><path class="cls-4" d="M635,379.81a6.67,6.67,0,0,1,2.38,2.05,7.33,7.33,0,0,1,1.32,3,9.4,9.4,0,0,1-.05,3.54,11,11,0,0,1-1.32,3.54,11.89,11.89,0,0,1-2.48,3,11,11,0,0,1-3.17,2,9.06,9.06,0,0,1-3.42.67,7.15,7.15,0,0,1-3.16-.67,6.34,6.34,0,0,1-2.37-2,7,7,0,0,1-1.3-3,8.93,8.93,0,0,1,.06-3.52,11,11,0,0,1,1.3-3.53,12.39,12.39,0,0,1,2.47-3,11.14,11.14,0,0,1,3.17-2,8.76,8.76,0,0,1,3.42-.67A7,7,0,0,1,635,379.81Zm-6.14,2.28a8.21,8.21,0,0,0-2.31,1.49,8.79,8.79,0,0,0-1.8,2.19,8,8,0,0,0-1,2.58,7.1,7.1,0,0,0,0,2.59,5.31,5.31,0,0,0,1,2.19,4.39,4.39,0,0,0,1.73,1.47,5.36,5.36,0,0,0,2.32.5,6.63,6.63,0,0,0,2.49-.5,8.16,8.16,0,0,0,2.32-1.47,9.46,9.46,0,0,0,1.81-2.19,8.19,8.19,0,0,0,1-2.59,6.6,6.6,0,0,0,0-2.58,5.78,5.78,0,0,0-.95-2.19,5,5,0,0,0-1.76-1.49,5.2,5.2,0,0,0-2.29-.5A6.7,6.7,0,0,0,628.89,382.09Z"/><path class="cls-4" d="M655.37,379.28,654,386.46l-.79,4a8.86,8.86,0,0,1-1,2.76,10,10,0,0,1-1.93,2.32h0a8.89,8.89,0,0,1-2.48,1.57,6.62,6.62,0,0,1-2.64.53,5.69,5.69,0,0,1-2.48-.51,4.76,4.76,0,0,1-1.86-1.6,5.49,5.49,0,0,1-1-2.32,7.18,7.18,0,0,1,.06-2.76l.77-4,1.39-7.18h2.28l-1.39,7.18-.7,3.55-.07.42a4.75,4.75,0,0,0,0,1.8,3.59,3.59,0,0,0,.67,1.53,3.12,3.12,0,0,0,1.22,1,3.57,3.57,0,0,0,1.61.35,4.74,4.74,0,0,0,1.74-.35,5.45,5.45,0,0,0,1.62-1,6,6,0,0,0,1.29-1.53,5.69,5.69,0,0,0,.67-1.8L651,390l.69-3.55,1.39-7.18Z"/><path class="cls-4" d="M655.05,392.3l1.34-6.89,1.19-6.13h5.71a4.7,4.7,0,0,1,2.1.45,4.52,4.52,0,0,1,1.59,1.36,5.07,5.07,0,0,1,.89,2,6.45,6.45,0,0,1,0,2.35,7.5,7.5,0,0,1-.87,2.36,7.88,7.88,0,0,1-1.63,2,8.09,8.09,0,0,1-2.14,1.36,6.11,6.11,0,0,1-2.27.44h-3.46l-.14.76-1,5.14h-2.26Zm2.87-3.17h.71l2.74,0a3.57,3.57,0,0,0,1.38-.27,4.25,4.25,0,0,0,1.28-.82,5.36,5.36,0,0,0,1-1.21,4.21,4.21,0,0,0,.54-1.43,3.35,3.35,0,0,0,0-1.41,3.08,3.08,0,0,0-.51-1.21,2.58,2.58,0,0,0-.95-.83,2.77,2.77,0,0,0-1.28-.28h-3.46l-.14.75-.58,3-.57,3Z"/></g></g></svg>