<svg xmlns="http://www.w3.org/2000/svg" viewBox="0 0 956 469"><defs><style>.cls-1{fill:none;}.cls-2{fill:#ffc107;}</style></defs><title>Asset 11</title><g id="Layer_2" data-name="Layer 2"><g id="Layer_1-2" data-name="Layer 1"><rect class="cls-1" width="956" height="469"/><path class="cls-2" d="M551.67,235.39,445.87,129.76a20.37,20.37,0,0,0-29.21,0l-12.33,12.17a19.88,19.88,0,0,0-6,14.6,20.79,20.79,0,0,0,6,14.77L483.19,250l-78.86,78.87a19.83,19.83,0,0,0-6,14.6,20.73,20.73,0,0,0,6,14.76l12.33,12.17a20.75,20.75,0,0,0,29.21,0l105.8-105.63a20.8,20.8,0,0,0,6-14.77A19.92,19.92,0,0,0,551.67,235.39Z"/></g></g></svg>