<svg width="512" height="512" viewBox="0 0 512 512" xmlns="http://www.w3.org/2000/svg" xmlns:xlink="http://www.w3.org/1999/xlink" overflow="hidden"><g><g id="outline"><path d="M495.49 120.048 493.024 113.481C486.024 94.9554 472.213 79.8022 454.415 71.118 455.522 68.3122 454.951 65.1218 452.94 62.874L469.688 47.032C472.899 43.9969 473.041 38.9336 470.006 35.7228 469.557 35.2475 469.051 34.8291 468.5 34.477L441.528 17.257C438.434 15.2829 434.395 15.6667 431.728 18.188L412.3 36.563 401.42 29.616C383.984 18.457 362.117 16.7742 343.179 25.134 340.223 26.435 338.339 29.3859 338.403 32.615 338.791 53.3112 349.518 72.4378 366.976 83.56L377.857 90.506 369.364 115.86C368.198 119.341 369.55 123.17 372.645 125.145L379.296 129.391 370.343 138.343C368.843 139.843 368 141.878 368 144L368 161.848C366.353 161.856 364.71 161.887 363.071 161.942 324.398 102.789 245.094 86.1868 185.941 124.86 149.779 148.502 127.988 188.795 128 232 128 233.932 128.051 235.852 128.136 237.764 102.62 254.978 91.854 270.384 96.136 283.541 98.776 291.859 106.778 297.397 120.001 300.13L120.001 316.687 112.244 324.444C109.43 322.775 106.376 321.55 103.188 320.813 99.2148 303.589 82.031 292.847 64.8069 296.82 52.8792 299.572 43.5655 308.885 40.814 320.813 23.5899 324.771 12.8359 341.943 16.7943 359.167 20.1358 373.707 33.0812 384.009 48 384L96 384C113.661 384.012 127.988 369.705 128 352.044 128.004 346.315 126.469 340.69 123.555 335.758L133.655 325.658C135.156 324.158 136 322.122 136 320L136 301.975C138.21 302.072 140.506 302.121 142.889 302.123 144.833 302.123 146.844 302.087 148.906 302.023 187.497 361.156 266.718 377.808 325.851 339.217 334.249 333.736 341.973 327.286 348.864 320L408 320C425.673 320 440 334.327 440 352 440 369.673 425.673 384 408 384L384 384 384 400 408 400C434.51 400 456 378.51 456 352 456 325.49 434.51 304 408 304L361.774 304C376.281 282.794 384.029 257.693 384 232 384 230.068 383.949 228.148 383.864 226.236 409.38 209.022 420.146 193.616 415.864 180.467 412.728 170.554 402.015 164.556 383.996 162.586L383.996 147.313 393.102 138.207 399.613 142.364C403.337 144.742 408.283 143.651 410.661 139.927 411.013 139.376 411.296 138.784 411.504 138.164L418.83 116.3C421.717 117.176 424.851 116.349 426.93 114.162 440.682 125.439 457.92 131.596 475.705 131.584 477.663 131.584 479.63 131.51 481.605 131.362L488.6 130.834C493.006 130.502 496.308 126.661 495.976 122.255 495.919 121.499 495.754 120.755 495.488 120.045ZM96 368 48 368C39.1634 368 32 360.837 32 352 32 343.163 39.1634 336 48 336 52.4183 336 56 332.418 56 328 56 319.163 63.1634 312 72 312 80.8366 312 88 319.163 88 328 88 332.418 91.5817 336 96 336 104.837 336 112 343.163 112 352 112 360.837 104.837 368 96 368ZM280.365 341.323C274.977 342.523 269.507 343.321 264 343.711L264 280 305.992 280C302.546 293.602 297.659 306.798 291.414 319.364ZM231.635 341.323 220.615 319.423C216.521 311.159 212.999 302.625 210.072 293.879 222.4 291.32 235.1 288.185 248 284.518L248 343.711C242.493 343.321 237.023 342.523 231.635 341.323ZM154.821 280 189.521 280C189.567 280.186 189.606 280.381 189.652 280.565 189.723 280.865 189.797 281.158 189.869 281.455 179.209 283.372 168.458 284.743 157.658 285.563 156.663 283.739 155.717 281.885 154.821 280ZM144 232C143.994 221.163 145.566 210.384 148.666 200L186.435 200C185.861 203.8 185.383 207.754 185 211.924 184.336 218.556 184 225.311 184 232 184.008 242.714 184.832 253.411 186.466 264L148.666 264C145.566 253.616 143.994 242.837 144 232ZM231.635 122.677C237.023 121.477 242.493 120.679 248 120.289L248 184 206.034 184C209.448 170.391 214.327 157.193 220.586 144.636ZM291.385 144.577C296.779 155.417 301.154 166.734 304.453 178.384L304.481 178.484C305.012 180.297 305.505 182.142 305.981 183.999L264 183.999 264 120.289C269.507 120.679 274.977 121.477 280.365 122.677ZM367.125 217.989C354.471 225.656 341.365 232.549 327.877 238.631 327.95 236.418 328 234.206 328 232 327.993 221.286 327.169 210.589 325.535 200L363.335 200C365.093 205.881 366.361 211.898 367.125 217.989ZM312 232C312 236.565 311.828 241.162 311.489 245.747 296.767 251.797 281.42 257.416 265.802 262.461 265.209 262.651 264.602 262.84 264.002 263.03L264.002 200 309.327 200C311.096 210.575 311.99 221.278 312 232ZM248 200 248 264 202.675 264C200.905 253.425 200.01 242.722 200 232 200 225.84 200.31 219.621 200.926 213.453 201.366 208.672 201.931 204.234 202.636 200ZM308.99 264 309.39 263.844 309.363 264ZM326.516 256.764C340.678 250.64 354.498 243.754 367.916 236.136 367.576 245.581 366.037 254.944 363.334 264L325.565 264C325.922 261.653 326.239 259.241 326.516 256.764ZM357.179 184 322.45 184C321.666 180.637 320.805 177.305 319.85 174.048 316.279 161.436 311.543 149.183 305.703 137.448L301.873 129.838C326.125 140.796 345.717 159.982 357.179 184ZM210.123 129.833 206.285 137.462C198.898 152.263 193.281 167.884 189.551 184L154.821 184C166.282 159.982 185.872 140.794 210.123 129.833ZM111.367 278.645C110.367 275.568 114.955 267.384 130.245 255.891 132.224 266.326 135.504 276.472 140.009 286.091 118.684 285.691 112.068 280.854 111.367 278.645ZM167.639 300.745C175.928 299.89 184.799 298.624 194.254 296.945 197.532 307.101 201.556 317.001 206.293 326.564L210.123 334.175C193.458 326.643 178.877 315.168 167.639 300.741ZM301.877 334.171 305.724 326.525C312.999 311.907 318.572 296.503 322.334 280.614 322.384 280.414 322.426 280.207 322.476 280.004L357.176 280.004C345.715 304.02 326.126 323.207 301.877 334.167ZM400.633 185.359C401.633 188.436 397.046 196.618 381.755 208.113 379.774 197.666 376.489 187.508 371.976 177.88 373.199 177.905 374.422 177.941 375.645 177.996 393.823 178.8 399.926 183.121 400.633 185.355ZM418.7 97.6 398.475 84.687 415.7 57.715 435.928 70.629ZM438.175 34.1 451.246 42.445 439.268 53.782 426.2 45.438ZM354.837 37.843C367.653 33.9585 381.527 35.8795 392.806 43.1L402.206 49.1 384.986 76.071 375.586 70.071C364.292 62.8796 356.712 51.1049 354.841 37.847ZM399.586 123.36 386.516 115.016 391.754 99.378 404.824 107.722ZM435.72 100.672 445.863 84.784C459.508 90.9721 470.431 101.919 476.59 115.577 461.597 115.817 447.044 110.51 435.724 100.676Z" fill="#FFFFFF"/><path d="M248.651 416.861C234.218 420.285 224.021 433.166 224 448L224 464C224 481.673 238.327 496 256 496 273.673 496 288 481.673 288 464L288 448C287.981 433.787 278.603 421.284 264.963 417.287 267.957 407.052 277.337 400.014 288 400L304 400 304 384 288 384C268.674 384.027 252.122 397.849 248.651 416.861ZM272 448 272 464C272 472.837 264.837 480 256 480 247.163 480 240 472.837 240 464L240 448C240.008 442.291 243.056 437.019 248 434.165L248 456 264 456 264 434.165C268.944 437.019 271.992 442.291 272 448Z" fill="#FFFFFF"/><rect x="320" y="384" width="16" height="16" fill="#FFFFFF"/><rect x="352" y="384" width="16" height="16" fill="#FFFFFF"/></g></g></svg>