<svg width="512" height="512" viewBox="0 0 512 512" xmlns="http://www.w3.org/2000/svg" xmlns:xlink="http://www.w3.org/1999/xlink" id="Capa_1" overflow="hidden"><g><path d="M256 60C181.561 60 121 120.561 121 195 121 269.439 181.561 330 256 330 330.439 330 391 269.439 391 195 391 120.561 330.439 60 256 60ZM256 90C308.804 90 352.623 129.183 359.924 180L307.972 180 286 212.958 226 122.958 187.972 180 152.076 180C159.377 129.183 203.196 90 256 90ZM256 300C203.196 300 159.377 260.817 152.076 210L204.028 210 226 177.042 286 267.042 324.028 210 359.924 210C352.623 260.817 308.804 300 256 300Z" fill="#F52333"/><path d="M256 0C148.477 0 61 87.477 61 195 61 285.427 122.344 359.481 202.81 382.397L211.044 395.125C175.045 400.308 121 415.945 121 452 121 498.729 208.455 512 256 512 303.625 512 391 498.703 391 452 391 415.931 337.04 400.32 300.956 395.126L309.19 382.398C389.588 359.5 451 285.521 451 195 451 87.477 363.523-2.84217e-14 256-2.84217e-14ZM361 452C361 465.784 308.322 482 256 482 203.782 482 151 465.774 151 452 151 445.669 175.15 428.016 229.202 423.192L256 464.615 282.798 423.192C336.85 428.016 361 445.669 361 452ZM296.08 354.855 290.348 356.294 256 409.385 221.653 356.294 215.921 354.855C142.369 336.396 91 270.661 91 195 91 104.019 165.019 30 256 30 346.981 30 421 104.019 421 195 421 270.661 369.631 336.396 296.08 354.855Z" fill="#F52333"/></g></svg>