<?xml version="1.0" standalone="no"?>
<!DOCTYPE svg PUBLIC "-//W3C//DTD SVG 20010904//EN"
 "http://www.w3.org/TR/2001/REC-SVG-20010904/DTD/svg10.dtd">
<svg version="1.0" xmlns="http://www.w3.org/2000/svg"
 width="976.000000pt" height="778.000000pt" viewBox="0 0 976.000000 778.000000"
 preserveAspectRatio="xMidYMid meet">

<g transform="translate(0.000000,778.000000) scale(0.100000,-0.100000)"
fill="#000000" stroke="none">
<path d="M4495 7770 c-552 -29 -1044 -159 -1552 -409 -429 -211 -757 -444
-1078 -766 -308 -307 -530 -613 -720 -992 l-82 -162 -121 247 c-176 361 -206
462 -206 692 1 129 4 154 27 225 89 269 311 395 742 421 118 7 386 -8 550 -31
55 -7 101 -12 103 -11 9 9 -187 110 -311 160 -91 36 -357 121 -489 155 -154
40 -293 54 -523 55 -200 1 -228 -1 -305 -22 -122 -34 -200 -74 -261 -136 -175
-175 -214 -401 -133 -764 93 -417 342 -896 696 -1340 l75 -93 -24 -87 c-90
-335 -143 -743 -143 -1108 l0 -151 -97 -64 c-167 -110 -328 -235 -420 -326
-88 -87 -213 -236 -213 -254 0 -25 39 -2 116 66 114 102 262 219 376 298 210
146 570 344 783 431 112 45 333 116 363 116 15 0 17 -21 18 -233 1 -238 12
-360 55 -566 90 -441 315 -906 600 -1245 133 -157 125 -143 83 -150 -135 -26
-283 134 -246 266 22 81 -27 72 -59 -10 -30 -78 -30 -195 1 -274 28 -76 106
-160 184 -201 57 -30 67 -32 166 -32 93 0 111 3 157 26 l52 25 43 -34 c198
-159 380 -275 593 -378 384 -185 743 -270 1180 -281 618 -15 1165 143 1675
482 69 46 162 114 208 152 46 37 97 76 115 85 18 10 28 18 22 18 -5 0 38 48
96 107 58 60 134 141 168 181 l61 73 11 -28 c59 -152 -50 -309 -213 -307 -37
1 -59 -4 -62 -12 -13 -33 73 -58 183 -52 111 6 180 38 256 120 76 82 98 145
93 268 -3 79 -9 104 -32 150 -15 30 -37 65 -48 77 l-20 22 67 116 c215 375
346 809 371 1232 4 62 11 113 16 113 20 0 350 -136 502 -206 270 -125 435
-226 621 -379 178 -146 256 -240 326 -389 50 -107 69 -189 69 -301 0 -109 -19
-192 -65 -292 -104 -225 -314 -417 -657 -600 -125 -67 -301 -174 -295 -180 10
-9 469 96 646 148 140 41 384 137 494 194 180 93 354 223 499 373 136 141 173
233 171 427 0 99 -5 136 -27 208 -76 255 -206 404 -568 651 -144 98 -266 173
-402 246 l-99 53 7 131 c13 263 -28 696 -66 696 -12 0 -450 -189 -461 -199 -4
-4 1 -81 12 -172 27 -223 28 -249 16 -249 -6 0 -78 23 -160 50 -83 28 -246 80
-364 116 -118 35 -217 66 -219 69 -2 2 -13 60 -23 129 -71 490 -282 969 -605
1376 -94 118 -318 340 -444 440 -283 225 -653 418 -986 515 -251 73 -463 105
-752 112 -220 6 -222 6 -216 27 29 98 154 172 256 151 71 -15 144 -74 162
-133 5 -13 15 -22 28 -22 19 0 20 4 15 45 -14 98 -97 209 -195 259 -236 120
-521 -32 -548 -292 -7 -61 -7 -62 -43 -68 -795 -135 -1496 -593 -1941 -1270
-146 -222 -286 -522 -351 -752 l-23 -84 -21 24 c-91 109 -275 343 -334 427
l-74 102 28 52 c96 181 235 388 405 604 109 139 433 464 575 577 420 334 914
577 1434 705 637 157 1325 129 1951 -80 379 -126 768 -338 1079 -589 93 -74
116 -89 126 -78 23 24 421 513 428 525 13 21 -282 264 -468 387 -252 167 -394
244 -653 355 -420 180 -842 276 -1327 301 -204 11 -200 11 -410 0z m405 -1335
c610 -86 1125 -336 1554 -755 241 -235 406 -462 551 -755 86 -174 156 -363
200 -533 23 -95 67 -323 62 -327 -1 -1 -63 13 -137 31 -109 27 -558 124 -575
124 -3 0 -6 190 -7 422 l-3 422 -335 199 c-184 109 -348 205 -365 214 l-30 15
25 -28 c14 -16 56 -62 93 -102 37 -39 78 -94 92 -122 l25 -49 0 -447 0 -447
-37 7 c-21 3 -101 13 -179 22 l-141 17 -333 794 c-183 436 -338 800 -344 808
-6 7 -109 65 -228 128 l-218 115 -2 -887 -3 -886 -70 0 -70 0 -5 885 -5 886
-980 -566 -980 -565 -3 -388 c-1 -213 -4 -387 -6 -387 -2 0 -104 -20 -227 -45
-122 -25 -225 -42 -229 -38 -4 4 -32 36 -63 70 l-56 62 25 90 c150 547 443
1014 865 1375 369 317 790 520 1276 616 l98 20 20 -27 c54 -73 112 -125 174
-156 60 -29 74 -32 161 -32 87 0 101 3 161 32 67 33 149 109 149 138 0 22 -12
19 -70 -17 -73 -45 -141 -50 -215 -13 -49 23 -105 77 -105 100 0 13 363 -2
490 -20z m-963 -2021 c-2 -2 -142 -8 -312 -14 -280 -10 -362 -14 -602 -36
l-73 -7 0 225 0 225 493 276 492 275 3 -471 c1 -258 1 -472 -1 -473z m-2720
203 c63 -84 165 -202 305 -354 79 -85 141 -158 138 -161 -2 -4 -67 -30 -145
-58 -177 -65 -283 -111 -414 -180 l-104 -55 7 92 c8 105 37 282 66 409 25 105
101 350 109 350 3 0 20 -20 38 -43z m3887 -144 l35 -83 -34 0 c-64 0 -65 1
-64 119 1 119 -6 123 63 -36z m-1164 -438 l0 -145 -495 0 -495 0 0 124 0 124
63 6 c34 3 170 10 302 16 132 6 263 12 290 13 28 2 114 4 193 5 l142 2 0 -145z
m625 123 c3 -7 4 -457 3 -999 l-3 -986 -72 40 -73 41 0 958 0 958 70 0 c47 0
72 -4 75 -12z m657 -45 c32 -5 39 -11 56 -52 11 -25 183 -431 382 -901 200
-470 368 -867 374 -882 l12 -28 252 147 252 147 0 668 c0 574 2 668 14 668 27
0 404 -98 566 -146 l160 -48 0 -56 c0 -75 -26 -307 -45 -410 -58 -306 -170
-609 -325 -880 l-50 -88 -48 15 c-75 23 -195 13 -268 -22 -75 -37 -142 -104
-180 -180 -26 -54 -29 -70 -29 -160 0 -103 16 -160 44 -160 10 0 14 18 15 71
1 60 5 78 31 119 39 64 114 105 189 105 85 0 87 -9 22 -89 -84 -102 -352 -360
-383 -367 -81 -21 -704 127 -907 215 -27 12 -47 23 -45 25 2 2 69 45 149 96
80 51 136 89 125 85 -11 -4 -81 -23 -155 -42 -157 -40 -235 -41 -310 -3 -89
44 -80 -81 -80 1113 l0 1060 73 -7 c39 -4 89 -10 109 -13z m-2772 -205 l0
-173 -145 145 c-80 80 -145 147 -145 150 0 7 219 47 263 49 l27 1 0 -172z
m3495 96 c50 -9 93 -19 98 -23 4 -4 6 -113 5 -242 l-3 -234 -105 249 c-58 137
-106 253 -108 258 -5 11 10 10 113 -8z m-3986 -186 c75 -72 216 -201 314 -286
l177 -155 0 -417 0 -417 402 -237 c220 -130 403 -235 404 -233 13 13 -19 53
-78 98 -103 78 -181 172 -207 251 -20 60 -21 82 -19 306 l3 242 135 -98 c203
-148 539 -376 703 -477 l147 -90 0 -316 0 -316 235 -156 c129 -87 237 -157
240 -157 3 0 5 153 5 340 0 187 2 340 5 340 3 0 36 -14 75 -31 l70 -32 0 -308
c0 -170 2 -309 4 -309 2 0 129 79 282 176 153 97 283 177 289 178 5 0 74 -21
153 -47 271 -90 587 -147 820 -147 40 0 61 -4 57 -10 -14 -22 -244 -166 -368
-230 -293 -151 -606 -248 -942 -291 -149 -20 -522 -17 -670 5 -511 74 -930
249 -1327 553 -54 42 -98 79 -98 83 0 4 12 34 26 65 112 245 -70 525 -341 525
-129 0 -174 -40 -58 -51 122 -12 203 -100 203 -221 0 -50 -22 -118 -38 -118
-12 0 -113 115 -194 220 -331 433 -515 925 -559 1490 -10 133 -4 410 8 410 3
0 67 -59 142 -132z m1981 -828 c0 -231 -2 -420 -5 -420 -15 0 -649 466 -880
647 l-100 79 -3 57 -3 57 496 0 495 0 0 -420z"/>
<path d="M870 3498 c-58 -27 -107 -52 -109 -54 -2 -2 4 -63 13 -136 80 -607
303 -1189 643 -1677 76 -108 235 -308 313 -391 l51 -55 -59 80 c-316 430 -536
905 -646 1395 -50 228 -86 551 -86 788 0 56 -3 102 -7 101 -5 0 -55 -23 -113
-51z"/>
<path d="M8141 2947 c-49 -283 -135 -616 -205 -788 -73 -182 -246 -501 -367
-679 -293 -431 -635 -766 -1055 -1036 -261 -167 -720 -372 -934 -416 -59 -12
-81 -28 -37 -28 140 1 319 50 627 172 320 127 575 261 775 406 290 210 481
384 714 647 357 403 562 745 749 1247 48 128 115 339 110 343 -9 6 -335 249
-344 256 -7 6 -18 -34 -33 -124z"/>
</g>
</svg>
