<svg width="453" height="453" xmlns="http://www.w3.org/2000/svg" xmlns:xlink="http://www.w3.org/1999/xlink" overflow="hidden"><defs><clipPath id="clip0"><path d="M1043 462 1496 462 1496 915 1043 915Z" fill-rule="evenodd" clip-rule="evenodd"/></clipPath><clipPath id="clip1"><path d="M1198.03 536.75 1419.7 617.166 1339.29 838.833 1117.62 758.417Z" fill-rule="evenodd" clip-rule="evenodd"/></clipPath><clipPath id="clip2"><path d="M1198.03 536.75 1419.7 617.166 1339.29 838.833 1117.62 758.417Z" fill-rule="evenodd" clip-rule="evenodd"/></clipPath><clipPath id="clip3"><path d="M1198.03 536.75 1419.7 617.166 1339.29 838.833 1117.62 758.417Z" fill-rule="evenodd" clip-rule="evenodd"/></clipPath></defs><g clip-path="url(#clip0)" transform="translate(-1043 -462)"><path d="M1494.59 687.839C1494.59 812.52 1393.52 913.593 1268.84 913.593 1144.16 913.593 1043.08 812.52 1043.08 687.839 1043.08 563.158 1144.16 462.084 1268.84 462.084 1393.52 462.084 1494.59 563.158 1494.59 687.839Z" fill="#F52333" fill-rule="evenodd"/><g clip-path="url(#clip1)"><g clip-path="url(#clip2)"><g clip-path="url(#clip3)"><path d="M1395.52 608.393C1382.18 603.555 1367.4 610.466 1362.57 623.802 1361.05 627.974 1360.69 632.284 1361.31 636.391L1307.32 661.634C1303.41 655.4 1297.5 650.365 1290.06 647.666 1282.62 644.967 1274.86 645.043 1267.85 647.308L1248.15 605.187C1250.44 603.303 1252.31 600.861 1253.39 597.879 1256.62 588.988 1252.01 579.134 1243.12 575.909 1234.23 572.683 1224.37 577.291 1221.15 586.182 1217.92 595.073 1222.53 604.926 1231.42 608.151 1234.4 609.233 1237.47 609.367 1240.39 608.818L1260.08 650.94C1253.85 654.864 1248.82 660.772 1246.12 668.212 1243.42 675.652 1243.49 683.414 1245.76 690.417L1176.2 722.944C1173.32 717.488 1168.51 713.03 1162.27 710.765 1148.93 705.927 1134.15 712.838 1129.32 726.175 1124.48 739.511 1131.39 754.291 1144.72 759.129 1158.06 763.967 1172.84 757.056 1177.68 743.72 1179.19 739.549 1179.56 735.239 1178.93 731.132L1249.4 698.184C1252.6 703.267 1257.13 707.539 1262.74 710.409L1247.89 751.357C1235.77 749.141 1223.43 755.903 1219.09 767.865 1214.25 781.202 1221.17 795.982 1234.5 800.82 1247.84 805.658 1262.62 798.747 1267.46 785.411 1271.79 773.453 1266.66 760.354 1255.95 754.281L1270.8 713.333C1276.94 714.727 1283.16 714.356 1288.88 712.507L1308.57 754.628C1306.28 756.514 1304.41 758.957 1303.33 761.939 1300.11 770.83 1304.71 780.683 1313.6 783.909 1322.49 787.134 1332.35 782.527 1335.57 773.636 1338.8 764.745 1334.19 754.892 1325.3 751.666 1322.32 750.584 1319.25 750.451 1316.33 751L1296.64 708.878C1302.87 704.954 1307.9 699.046 1310.6 691.606 1313.3 684.166 1313.23 676.403 1310.96 669.401L1364.04 644.58C1366.92 650.034 1371.73 654.492 1377.97 656.757 1391.31 661.595 1406.09 654.684 1410.93 641.348 1415.77 628.011 1408.86 613.231 1395.52 608.393ZM1229.21 589.106C1230.82 584.661 1235.75 582.357 1240.19 583.97 1244.64 585.582 1246.94 590.509 1245.33 594.954 1243.72 599.4 1238.79 601.703 1234.35 600.091 1229.9 598.478 1227.6 593.551 1229.21 589.106ZM1147.65 751.069C1138.76 747.843 1134.15 737.99 1137.38 729.099 1140.6 720.208 1150.45 715.601 1159.35 718.826 1168.24 722.051 1172.84 731.905 1169.62 740.796 1166.39 749.687 1156.54 754.294 1147.65 751.069ZM1259.39 782.485C1256.17 791.376 1246.31 795.983 1237.42 792.758 1228.53 789.532 1223.92 779.679 1227.15 770.788 1230.37 761.897 1240.23 757.29 1249.12 760.515 1258.01 763.741 1262.62 773.594 1259.39 782.485ZM1269.59 704.091C1256.25 699.253 1249.34 684.473 1254.18 671.136 1259.02 657.8 1273.8 650.889 1287.13 655.727 1300.47 660.565 1307.38 675.345 1302.54 688.682 1297.7 702.018 1282.92 708.929 1269.59 704.091ZM1327.51 770.712C1325.9 775.157 1320.97 777.461 1316.53 775.848 1312.08 774.236 1309.78 769.309 1311.39 764.863 1313 760.418 1317.93 758.114 1322.38 759.727 1326.82 761.34 1329.13 766.266 1327.51 770.712ZM1380.9 648.696C1372.01 645.471 1367.4 635.618 1370.63 626.727 1373.85 617.836 1383.7 613.228 1392.6 616.454 1401.49 619.679 1406.09 629.533 1402.87 638.424 1399.64 647.314 1389.79 651.922 1380.9 648.696Z" fill="#FFFFFF"/></g></g></g></g></svg>