<?xml version="1.0"?>
<svg xmlns="http://www.w3.org/2000/svg" xmlns:xlink="http://www.w3.org/1999/xlink" xmlns:svgjs="http://svgjs.com/svgjs" version="1.1" width="512" height="512" x="0" y="0" viewBox="0 0 512 512" style="enable-background:new 0 0 512 512" xml:space="preserve"><g><g xmlns="http://www.w3.org/2000/svg"><path d="m173.324 357.332c-4.834 6.694-3.369 16.099 3.34 20.947 6.621 4.849 16.084 3.354 20.947-3.325 4.71-6.476 3.56-15.921-3.311-20.918-6.568-4.76-15.946-3.565-20.976 3.296z" fill="#ff0000" data-original="#000000" style=""/><circle cx="256" cy="269.076" r="15" fill="#ff0000" data-original="#000000" style=""/><circle cx="256" cy="149.076" r="15" fill="#ff0000" data-original="#000000" style=""/><path d="m477.924 199.408 17.578-34.468-7.617-7.705c-2.021-2.036-46.934-46.333-127.471-29.604-9.111-81.46-64.805-110.654-67.324-111.929l-9.727-4.922-27.363 27.378-27.363-27.378-9.727 4.922c-2.52 1.274-58.213 30.469-67.324 111.929-80.332-16.699-125.449 27.568-127.471 29.604l-7.617 7.705 17.578 34.468-34.076 17.578 1.641 10.708c.439 2.813 10.404 64.966 85.17 98.789-40.605 71.323-12.48 127.705-11.162 130.239l4.98 9.624 38.203-6.05 6.064 38.218 10.693 1.758c2.842.396 65.156 9.8 120.41-50.859 37.306 40.952 85.684 55.924 120.41 50.859l10.693-1.758 6.064-38.218 38.203 6.05 4.98-9.624c1.318-2.534 29.443-58.916-11.162-130.239 74.766-33.823 84.73-95.977 85.17-98.789l1.643-10.708zm-67.705 53.027c-5.449 10.708-14.766 18.647-26.191 22.354-11.043 3.61-23.312 2.917-34.365-2.71-6.033-3.082-10.871-7.61-14.883-12.83l-33.9 11.016c-.24 8.99-3.056 17.336-7.841 24.276l20.806 28.632c19.598-5.771 38.458 1.887 49.089 16.553 14.59 20.068 10.107 48.267-9.961 62.842-20.072 14.574-48.23 10.102-62.842-9.946v-.029c-10.441-14.362-12.326-34.264-.434-51.628l-21.019-28.929c-4.048 1.199-8.247 2.042-12.678 2.042s-8.63-.842-12.678-2.042l-21.021 28.931c11.844 17.28 10.014 37.258-.432 51.627-14.39 19.834-42.513 24.722-62.842 9.961-20.068-14.561-24.551-42.759-9.961-62.827 10.673-14.725 29.575-22.307 49.098-16.562l20.797-28.623c-4.785-6.94-7.601-15.286-7.841-24.276l-33.896-11.016c-4.012 5.217-8.851 9.747-14.886 12.83-22.549 11.479-49.471 2.14-60.557-19.644-11.258-22.153-2.535-49.202 19.629-60.527 22.396-11.474 49.414-2.252 60.557 19.644 3.087 6.074 4.565 12.623 4.739 19.235l33.781 10.977c5.233-6.786 12.294-11.993 20.513-14.925v-35.526c-17.422-6.213-30-22.707-30-42.237 0-24.814 20.186-45 45-45s45 20.186 45 45c0 19.53-12.578 36.024-30 42.237v35.526c8.22 2.932 15.28 8.139 20.513 14.925l33.781-10.977c.174-6.608 1.652-13.16 4.739-19.235 11.271-22.149 38.416-30.956 60.557-19.644 21.974 11.225 30.972 38.205 19.629 60.525z" fill="#ff0000" data-original="#000000" style=""/><path d="m135.063 218.626c-7.498 3.81-10.239 12.95-6.563 20.186 3.774 7.395 12.882 10.32 20.186 6.548 7.498-3.81 10.239-12.95 6.563-20.186-3.745-7.337-12.744-10.32-20.186-6.548z" fill="#ff0000" data-original="#000000" style=""/><path d="m376.938 218.626c-7.492-3.797-16.463-.748-20.186 6.548-3.715 7.31-.844 16.421 6.563 20.186 7.23 3.675 16.351.966 20.186-6.548 3.714-7.31.843-16.421-6.563-20.186z" fill="#ff0000" data-original="#000000" style=""/><path d="m314.389 374.969c4.863 6.665 14.238 8.174 20.947 3.325 6.709-4.863 8.174-14.268 3.34-20.962-4.969-6.779-14.295-8.118-20.947-3.311-6.836 4.958-8.105 14.338-3.34 20.948z" fill="#ff0000" data-original="#000000" style=""/></g></g></svg>
