<svg width="261" height="261" xmlns="http://www.w3.org/2000/svg" xmlns:xlink="http://www.w3.org/1999/xlink" overflow="hidden"><defs><clipPath id="clip0"><path d="M517 511 778 511 778 772 517 772Z" fill-rule="evenodd" clip-rule="evenodd"/></clipPath><clipPath id="clip1"><path d="M572 566 723 566 723 717 572 717Z" fill-rule="evenodd" clip-rule="evenodd"/></clipPath><clipPath id="clip2"><path d="M572 566 723 566 723 717 572 717Z" fill-rule="evenodd" clip-rule="evenodd"/></clipPath><clipPath id="clip3"><path d="M572 566 723 566 723 717 572 717Z" fill-rule="evenodd" clip-rule="evenodd"/></clipPath></defs><g clip-path="url(#clip0)" transform="translate(-517 -511)"><path d="M777.457 641.196C777.457 713.137 719.137 771.457 647.196 771.457 575.254 771.457 516.934 713.137 516.934 641.196 516.934 569.254 575.254 510.934 647.196 510.934 719.137 510.934 777.457 569.254 777.457 641.196Z" fill="#F52333" fill-rule="evenodd"/><g clip-path="url(#clip1)"><g clip-path="url(#clip2)"><g clip-path="url(#clip3)"><path d="M647.5 583.695C625.546 583.695 607.686 601.556 607.686 623.51 607.686 645.463 625.546 663.324 647.5 663.324 669.454 663.324 687.314 645.463 687.314 623.51 687.314 601.556 669.454 583.695 647.5 583.695ZM647.5 592.543C663.073 592.543 675.996 604.099 678.149 619.086L662.828 619.086 656.348 628.806 638.652 602.263 627.437 619.086 616.851 619.086C619.004 604.099 631.927 592.543 647.5 592.543ZM647.5 654.477C631.927 654.477 619.004 642.921 616.851 627.934L632.172 627.934 638.652 618.214 656.348 644.757 667.563 627.934 678.149 627.934C675.996 642.921 663.073 654.477 647.5 654.477Z" fill="#FFFFFF"/><path d="M647.5 566C615.789 566 589.99 591.799 589.99 623.51 589.99 650.179 608.082 672.019 631.813 678.777L634.242 682.531C623.625 684.06 607.686 688.671 607.686 699.305 607.686 713.086 633.478 717 647.5 717 661.546 717 687.314 713.078 687.314 699.305 687.314 688.667 671.4 684.063 660.758 682.531L663.187 678.778C686.898 672.024 705.01 650.206 705.01 623.51 705.01 591.799 679.211 566 647.5 566ZM678.467 699.305C678.467 703.37 662.931 708.152 647.5 708.152 632.1 708.152 616.533 703.367 616.533 699.305 616.533 697.438 623.656 692.231 639.597 690.809L647.5 703.025 655.403 690.809C671.344 692.231 678.467 697.438 678.467 699.305ZM659.32 670.654 657.63 671.079 647.5 686.737 637.37 671.079 635.68 670.654C613.988 665.211 598.838 645.824 598.838 623.51 598.838 596.677 620.668 574.848 647.5 574.848 674.332 574.848 696.162 596.677 696.162 623.51 696.162 645.824 681.012 665.211 659.32 670.654Z" fill="#FFFFFF"/></g></g></g></g></svg>