<svg width="628" height="628" xmlns="http://www.w3.org/2000/svg" xmlns:xlink="http://www.w3.org/1999/xlink" overflow="hidden"><defs><clipPath id="clip0"><path d="M246 462 874 462 874 1090 246 1090Z" fill-rule="evenodd" clip-rule="evenodd"/></clipPath><clipPath id="clip1"><path d="M388 554 779 554 779 944 388 944Z" fill-rule="evenodd" clip-rule="evenodd"/></clipPath><clipPath id="clip2"><path d="M388 554 779 554 779 944 388 944Z" fill-rule="evenodd" clip-rule="evenodd"/></clipPath><clipPath id="clip3"><path d="M388 554 779 554 779 944 388 944Z" fill-rule="evenodd" clip-rule="evenodd"/></clipPath></defs><g clip-path="url(#clip0)" transform="translate(-246 -462)"><path d="M872.892 775.471C872.892 948.563 732.792 1088.88 559.97 1088.88 387.148 1088.88 247.048 948.563 247.048 775.471 247.048 602.378 387.148 462.059 559.97 462.059 732.792 462.059 872.892 602.378 872.892 775.471Z" fill="#F52333" fill-rule="evenodd"/><g clip-path="url(#clip1)"><g clip-path="url(#clip2)"><g clip-path="url(#clip3)"><path d="M285.671 171.481C283.803 166.755 278.458 164.441 273.731 166.308 269.006 168.176 266.69 173.522 268.558 178.248 273.234 190.073 275.604 202.571 275.604 215.397 275.604 271.109 230.279 316.435 174.565 316.435 118.848 316.435 73.5173 271.109 73.5173 215.397 73.5173 159.684 118.848 114.358 174.565 114.358 187.435 114.358 199.955 116.743 211.777 121.447 216.497 123.328 221.848 121.02 223.727 116.3 225.607 111.578 223.302 106.228 218.581 104.349 204.585 98.7797 189.775 95.956 174.566 95.956 108.702 95.956 55.1157 149.536 55.1157 215.396 55.1157 281.256 108.7 334.836 174.565 334.836 240.424 334.836 294.005 281.256 294.005 215.397 294.005 200.245 291.201 185.471 285.671 171.481Z" fill="#FFFFFF" transform="matrix(1.00256 0 -0 1 388 554)"/><path d="M342.397 167.279C340.999 162.393 335.909 159.569 331.02 160.964 326.134 162.363 323.308 167.456 324.705 172.341 328.694 186.282 330.716 200.768 330.716 215.395 330.716 301.503 260.667 371.558 174.565 371.558 88.4569 371.558 18.4024 301.504 18.4024 215.395 18.4024 129.287 88.4561 59.2335 174.565 59.2335 189.225 59.2335 203.735 61.265 217.692 65.2724 222.577 66.674 227.672 63.8526 229.074 58.9677 230.476 54.0828 227.654 48.9869 222.769 47.5853 207.162 43.1034 190.943 40.8304 174.565 40.8304 78.3093 40.8312 0 119.14 0 215.396 0 311.651 78.3093 389.961 174.565 389.961 270.814 389.961 349.119 311.652 349.119 215.396 349.119 199.055 346.857 182.867 342.397 167.279Z" fill="#FFFFFF" transform="matrix(1.00256 0 -0 1 388 554)"/><path d="M238.63 209.778C238.179 204.716 233.707 200.999 228.647 201.431 223.586 201.883 219.848 206.353 220.3 211.414 220.417 212.724 220.476 214.064 220.476 215.397 220.476 240.714 199.88 261.309 174.564 261.309 149.241 261.309 128.64 240.712 128.64 215.397 128.641 190.073 149.242 169.473 174.565 169.473 175.979 169.473 177.364 169.534 178.682 169.655 183.747 170.12 188.223 166.398 188.69 161.337 189.156 156.277 185.432 151.798 180.372 151.33 178.495 151.157 176.541 151.069 174.565 151.069 139.096 151.069 110.239 179.925 110.239 215.395 110.239 250.859 139.096 279.71 174.565 279.71 210.029 279.71 238.88 250.859 238.88 215.395 238.88 213.52 238.796 211.629 238.63 209.778Z" fill="#FFFFFF" transform="matrix(1.00256 0 -0 1 388 554)"/><path d="M388.59 61.9003C385.731 54.9976 379.056 50.537 371.584 50.537L339.501 50.537 339.501 18.4549C339.501 10.9825 335.04 4.30752 328.138 1.44879 321.238-1.40918 313.367 0.157676 308.086 5.43943L254.479 59.0469C249.267 64.2578 246.398 71.188 246.398 78.5606L246.398 130.628 171.62 205.406C168.027 208.999 168.027 214.825 171.62 218.419 173.416 220.215 175.771 221.114 178.126 221.114 180.48 221.114 182.835 220.215 184.631 218.419L259.41 143.64 311.477 143.64C318.85 143.64 325.781 140.77 330.991 135.56L384.599 81.951C389.882 76.6685 391.448 68.7992 388.59 61.9003ZM264.8 78.5599C264.801 76.1033 265.757 73.7938 267.492 72.0594L321.099 18.4603 321.099 55.9277 264.799 112.227 264.799 78.5599ZM317.979 122.547C316.27 124.256 313.9 125.238 311.478 125.238L277.813 125.238 334.111 68.9401 371.582 68.9447 317.979 122.547Z" fill="#FFFFFF" transform="matrix(1.00256 0 -0 1 388 554)"/></g></g></g></g></svg>