<svg width="262" height="261" xmlns="http://www.w3.org/2000/svg" xmlns:xlink="http://www.w3.org/1999/xlink" overflow="hidden"><defs><clipPath id="clip0"><path d="M1782 511 2044 511 2044 772 1782 772Z" fill-rule="evenodd" clip-rule="evenodd"/></clipPath><clipPath id="clip1"><path d="M1839 568 1986 568 1986 715 1839 715Z" fill-rule="evenodd" clip-rule="evenodd"/></clipPath><clipPath id="clip2"><path d="M1839 568 1986 568 1986 715 1839 715Z" fill-rule="evenodd" clip-rule="evenodd"/></clipPath><clipPath id="clip3"><path d="M1839 568 1986 568 1986 715 1839 715Z" fill-rule="evenodd" clip-rule="evenodd"/></clipPath></defs><g clip-path="url(#clip0)" transform="translate(-1782 -511)"><path d="M2043.46 641.196C2043.46 713.137 1985.14 771.457 1913.2 771.457 1841.25 771.457 1782.93 713.137 1782.93 641.196 1782.93 569.254 1841.25 510.934 1913.2 510.934 1985.14 510.934 2043.46 569.254 2043.46 641.196Z" fill="#F52333" fill-rule="evenodd"/><g clip-path="url(#clip1)"><g clip-path="url(#clip2)"><g clip-path="url(#clip3)"><path d="M1983.35 681.057C1981.88 681.057 1980.7 682.245 1980.7 683.709 1980.7 698.039 1969.04 709.696 1954.71 709.696 1953.24 709.696 1952.06 710.884 1952.06 712.348 1952.06 713.813 1953.24 715 1954.71 715 1971.96 715 1986 700.963 1986 683.709 1986 682.245 1984.81 681.057 1983.35 681.057Z" fill="#FFFFFF"/><path d="M1954.71 705.454C1966.7 705.454 1976.45 695.699 1976.45 683.709 1976.45 682.245 1975.27 681.057 1973.8 681.057 1972.34 681.057 1971.15 682.245 1971.15 683.709 1971.15 692.775 1963.77 700.15 1954.71 700.15 1953.24 700.15 1952.06 701.337 1952.06 702.802 1952.06 704.266 1953.24 705.454 1954.71 705.454Z" fill="#FFFFFF"/><path d="M1954.71 695.907C1961.44 695.907 1966.91 690.435 1966.91 683.709 1966.91 682.245 1965.72 681.057 1964.26 681.057 1962.79 681.057 1961.6 682.245 1961.6 683.709 1961.6 687.511 1958.51 690.604 1954.71 690.604 1953.24 690.604 1952.06 691.791 1952.06 693.255 1952.06 694.72 1953.24 695.907 1954.71 695.907Z" fill="#FFFFFF"/><path d="M1953.18 685.931C1953.7 686.449 1954.38 686.708 1955.06 686.708 1955.73 686.708 1956.41 686.449 1956.93 685.931 1957.97 684.895 1957.97 683.216 1956.93 682.181L1956 681.249 1969.88 667.374C1970.37 666.877 1970.65 666.202 1970.65 665.499 1970.65 664.796 1970.37 664.121 1969.88 663.624 1963.01 656.758 1953.1 654.749 1944.45 657.584L1940.24 653.375 1946.91 646.703C1947.95 645.667 1947.95 643.988 1946.91 642.953L1929.85 625.892 1936.59 619.155 1944.97 627.53C1945.48 628.048 1946.16 628.307 1946.84 628.307 1947.52 628.307 1948.2 628.048 1948.72 627.53L1983.22 593.028C1983.72 592.531 1983.99 591.856 1983.99 591.153 1983.99 590.45 1983.72 589.775 1983.22 589.278L1962.72 568.777C1962.22 568.279 1961.55 568 1960.84 568 1960.14 568 1959.46 568.279 1958.97 568.777L1924.47 603.279C1923.97 603.776 1923.69 604.451 1923.69 605.154 1923.69 605.857 1923.97 606.532 1924.47 607.029L1932.84 615.404 1926.1 622.142 1913.24 609.274C1908.13 604.167 1900.18 603.603 1894.44 607.571L1888.43 601.563C1887.39 600.528 1885.71 600.528 1884.68 601.563L1872.56 613.679C1872.07 614.176 1871.79 614.851 1871.79 615.554 1871.79 616.257 1872.07 616.932 1872.56 617.429L1878.57 623.435C1876.87 625.879 1875.96 628.774 1875.96 631.812 1875.96 635.75 1877.49 639.451 1880.27 642.235L1893.14 655.103 1886.4 661.84 1878.03 653.465C1876.99 652.429 1875.31 652.429 1874.28 653.465L1839.78 687.967C1838.74 689.003 1838.74 690.682 1839.78 691.717L1860.28 712.219C1860.8 712.736 1861.47 712.995 1862.15 712.995 1862.83 712.995 1863.51 712.736 1864.03 712.219L1898.53 677.716C1899.57 676.68 1899.57 675.001 1898.53 673.966L1890.15 665.591 1896.89 658.854 1913.95 675.914C1914.45 676.411 1915.12 676.691 1915.83 676.691 1916.53 676.691 1917.21 676.411 1917.7 675.914L1924.38 669.241 1928.58 673.45C1925.75 682.102 1927.76 692.009 1934.62 698.876 1935.14 699.394 1935.82 699.653 1936.5 699.653 1937.18 699.653 1937.86 699.394 1938.37 698.876L1952.25 685 1953.18 685.931ZM1958.32 610.422 1941.57 593.671 1949.36 585.885 1966.11 602.636 1958.32 610.422ZM1960.84 574.402 1977.59 591.153 1969.86 598.886 1953.11 582.135 1960.84 574.402ZM1937.82 597.421 1954.57 614.172 1946.84 621.905 1930.09 605.154 1937.82 597.421ZM1864.67 670.573 1881.42 687.324 1873.64 695.11 1856.89 678.359 1864.67 670.573ZM1862.15 706.593 1845.4 689.842 1853.14 682.109 1869.89 698.86 1862.15 706.593ZM1885.17 683.574 1868.42 666.823 1876.15 659.09 1892.91 675.841 1885.17 683.574ZM1911.71 615.251 1934.21 637.751 1908.75 663.212 1886.25 640.712 1911.71 615.251ZM1902.81 610.265C1904.54 610.265 1906.27 610.738 1907.78 611.679L1882.68 636.786C1881.76 635.307 1881.26 633.598 1881.26 631.813 1881.26 629.292 1882.24 626.922 1884.02 625.14L1896.14 613.024C1897.98 611.185 1900.4 610.265 1902.81 610.265ZM1886.55 607.189 1890.51 611.149 1886.33 615.332 1882.15 619.515 1878.19 615.554 1886.55 607.189ZM1915.83 670.289 1912.5 666.962 1937.96 641.501 1941.29 644.828 1915.83 670.289ZM1928.13 665.491 1936.49 657.125 1939.31 659.946C1937.64 660.96 1936.06 662.182 1934.62 663.624 1933.18 665.064 1931.96 666.642 1930.95 668.311L1928.13 665.491ZM1936.62 693.124C1930.77 685.438 1931.36 674.389 1938.37 667.374 1942.2 663.548 1947.22 661.636 1952.25 661.636 1956.44 661.636 1960.63 662.965 1964.12 665.625L1936.62 693.124Z" fill="#FFFFFF"/></g></g></g></g></svg>