<svg width="262" height="261" xmlns="http://www.w3.org/2000/svg" xmlns:xlink="http://www.w3.org/1999/xlink" overflow="hidden"><defs><clipPath id="clip0"><path d="M1149 511 1411 511 1411 772 1149 772Z" fill-rule="evenodd" clip-rule="evenodd"/></clipPath><clipPath id="clip1"><path d="M1215 544 1359 544 1359 687 1215 687Z" fill-rule="evenodd" clip-rule="evenodd"/></clipPath><clipPath id="clip2"><path d="M1215 544 1359 544 1359 687 1215 687Z" fill-rule="evenodd" clip-rule="evenodd"/></clipPath><clipPath id="clip3"><path d="M1215 544 1359 544 1359 687 1215 687Z" fill-rule="evenodd" clip-rule="evenodd"/></clipPath></defs><g clip-path="url(#clip0)" transform="translate(-1149 -511)"><path d="M1410.46 641.196C1410.46 713.137 1352.14 771.457 1280.2 771.457 1208.25 771.457 1149.93 713.137 1149.93 641.196 1149.93 569.254 1208.25 510.934 1280.2 510.934 1352.14 510.934 1410.46 569.254 1410.46 641.196Z" fill="#F52333" fill-rule="evenodd"/><g clip-path="url(#clip1)"><g clip-path="url(#clip2)"><g clip-path="url(#clip3)"><path d="M104.674 91.3075 110.327 85.6548 116.251 91.5795 122.176 85.6548 110.327 73.805 98.0505 86.0813C93.6946 83.0961 88.9938 80.6855 84.0681 78.888L84.0681 66.6969 92.447 66.6969 92.447 58.318 75.6892 58.318 75.6892 76.4743C71.3902 75.5529 66.9799 75.0758 62.5254 75.0758 49.2699 75.0758 36.9152 82.4901 30.7106 94.2468 28.9589 93.322 27.0845 92.6523 25.1364 92.2571L25.1364 83.4548 16.7578 83.4548 16.7578 92.2551C7.20809 94.2012 0 102.665 0 112.781 0 124.331 9.39694 133.728 20.9473 133.728L143 133.728 143 125.349 124.094 125.349C121.418 112.245 114.624 100.305 104.674 91.3075ZM8.37891 112.781C8.37891 105.851 14.0171 100.213 20.9473 100.213 23.3609 100.213 25.6841 100.896 27.6822 102.167 26.8128 105.643 26.4572 109.283 26.6511 112.999L35.0185 112.563C34.1583 96.0619 47.3059 83.4548 62.5256 83.4548 87.7771 83.4548 109.75 101.153 115.515 125.349L106.377 125.349C102.809 117.835 96.2253 112.253 88.4131 109.869 89.3878 109.093 90.3257 108.259 91.22 107.365L85.2953 101.44C80.683 106.052 74.5513 108.591 68.0292 108.591 62.6502 108.591 55.6594 108.591 50.5527 108.591L50.5527 116.97C61.197 116.97 69.4273 116.97 79.8789 116.97 86.5787 116.97 92.7484 120.178 96.6376 125.349L20.9473 125.349C14.0171 125.349 8.37891 119.711 8.37891 112.781Z" fill="#FFFFFF" transform="matrix(1.00699 0 -0 1 1215 544)"/><path d="M60.7675 53.0114C60.7675 48.7876 64.2039 45.3514 68.4277 45.3514L68.4277 36.9725C59.5838 36.9725 52.3886 44.1674 52.3886 53.0114L60.7675 53.0114Z" fill="#FFFFFF" transform="matrix(1.00699 0 -0 1 1215 544)"/><path d="M87.7495 31.9544C90.7787 28.9251 92.4473 24.8974 92.4473 20.6129 92.4473 16.3285 90.7787 12.3008 87.7495 9.27154L81.8248 15.1965C83.2718 16.6433 84.0684 18.5668 84.0684 20.6129 84.0684 22.6591 83.2715 24.5826 81.8248 26.0294L87.7495 31.9544Z" fill="#FFFFFF" transform="matrix(1.00699 0 -0 1 1215 544)"/></g></g></g></g></svg>