<svg width="453" height="453" xmlns="http://www.w3.org/2000/svg" xmlns:xlink="http://www.w3.org/1999/xlink" overflow="hidden"><defs><clipPath id="clip0"><path d="M1043 462 1496 462 1496 915 1043 915Z" fill-rule="evenodd" clip-rule="evenodd"/></clipPath><clipPath id="clip1"><path d="M1136 555 1402 555 1402 821 1136 821Z" fill-rule="evenodd" clip-rule="evenodd"/></clipPath><clipPath id="clip2"><path d="M1136 555 1402 555 1402 821 1136 821Z" fill-rule="evenodd" clip-rule="evenodd"/></clipPath><clipPath id="clip3"><path d="M1136 555 1402 555 1402 821 1136 821Z" fill-rule="evenodd" clip-rule="evenodd"/></clipPath></defs><g clip-path="url(#clip0)" transform="translate(-1043 -462)"><path d="M1494.59 687.839C1494.59 812.52 1393.52 913.593 1268.84 913.593 1144.16 913.593 1043.08 812.52 1043.08 687.839 1043.08 563.158 1144.16 462.084 1268.84 462.084 1393.52 462.084 1494.59 563.158 1494.59 687.839Z" fill="#F52333" fill-rule="evenodd"/><g clip-path="url(#clip1)"><g clip-path="url(#clip2)"><g clip-path="url(#clip3)"><path d="M1272.72 702.825C1283 702.839 1291.94 695.779 1294.31 685.773 1296.69 675.767 1291.87 665.444 1282.67 660.839 1273.48 656.234 1262.32 658.557 1255.73 666.45 1250.22 673.05 1249.02 682.244 1252.66 690.036 1256.3 697.829 1264.12 702.814 1272.72 702.825ZM1262.52 672.138C1265.97 668.01 1271.57 666.367 1276.7 667.975 1281.83 669.583 1285.49 674.126 1285.97 679.485 1286.45 684.844 1283.65 689.962 1278.88 692.454 1274.12 694.946 1268.32 694.32 1264.19 690.868 1258.56 686.153 1257.82 677.768 1262.53 672.138Z" fill="#FFFFFF"/><path d="M1143.32 676.473C1141.44 674.903 1138.64 675.156 1137.07 677.039 1135.5 678.921 1135.75 681.721 1137.64 683.292L1178.45 717.428C1180.33 718.999 1183.13 718.746 1184.7 716.863 1186.27 714.98 1186.02 712.181 1184.14 710.61L1177.86 705.357C1198.41 691.17 1250.22 717.805 1264.31 755.737 1267.57 762.885 1267.91 771.027 1265.25 778.422L1258.97 773.169C1257.09 771.598 1254.29 771.848 1252.72 773.727 1251.15 775.607 1251.4 778.403 1253.28 779.974L1294.1 814.111C1295.98 815.681 1298.77 815.431 1300.34 813.552 1301.91 811.673 1301.66 808.876 1299.79 807.305L1288.28 797.69 1303.05 735.268 1346.05 766.302C1354.07 772.106 1365.22 770.662 1371.5 763.006 1377.78 755.351 1377.01 744.131 1369.74 737.405L1377.66 727.94C1396.45 743.647 1395.34 743.191 1397.5 743.191 1399.37 743.191 1401.04 742.024 1401.67 740.271 1402.31 738.518 1401.78 736.554 1400.35 735.357L1383.38 721.148 1389.07 714.343C1390.11 713.131 1390.42 711.452 1389.88 709.948 1389.33 708.445 1388.03 707.349 1386.45 707.082 1384.87 706.814 1383.28 707.415 1382.27 708.655L1376.58 715.46 1359.57 701.238C1357.69 699.667 1354.9 699.917 1353.33 701.797 1351.76 703.676 1352.01 706.472 1353.89 708.043L1370.89 722.265 1363.38 731.243 1326.19 695.333C1323.7 692.929 1322.83 689.293 1323.97 686.023L1324.86 683.443C1326.47 678.803 1325.39 673.653 1322.05 670.049 1325.5 665.922 1328.57 662.956 1328.03 656.838 1327.72 653.32 1326.02 650.069 1323.31 647.812L1296.1 625.069C1290.46 620.359 1282.08 621.108 1277.37 626.74L1274.44 630.238C1270.29 627.58 1265.01 627.437 1260.73 629.866L1258.38 631.196C1255.36 632.902 1251.63 632.698 1248.82 630.673L1203.3 597.835 1211.01 588.614C1229.8 604.321 1228.7 603.86 1230.86 603.86 1232.73 603.86 1234.39 602.693 1235.03 600.94 1235.67 599.187 1235.14 597.223 1233.71 596.026L1216.69 581.808 1222.37 575.008C1223.94 573.13 1223.69 570.333 1221.82 568.761 1219.94 567.189 1217.14 567.437 1215.57 569.315L1209.89 576.12 1192.89 561.903C1191.01 560.331 1188.22 560.58 1186.64 562.459 1185.07 564.338 1185.32 567.136 1187.2 568.708L1204.21 582.93 1195.78 593.029C1187.49 589.474 1177.84 592.356 1172.85 599.877 1167.86 607.399 1168.96 617.412 1175.46 623.672L1213.63 660.513 1154.83 686.103ZM1284.17 632.433C1285.74 630.556 1288.53 630.305 1290.41 631.874L1317.62 654.617C1318.52 655.372 1319.09 656.455 1319.19 657.627 1319.38 659.813 1318.45 660.536 1315.33 664.277L1281.32 635.842ZM1180.9 603.895C1184.22 599.967 1190 599.235 1194.2 602.211L1243.61 637.868C1249.23 641.917 1256.69 642.329 1262.73 638.923L1265.04 637.615C1266.67 636.689 1268.69 636.865 1270.13 638.059L1315.11 675.653C1316.54 676.844 1317.08 678.795 1316.47 680.552L1315.58 683.101C1313.31 689.642 1315.04 696.907 1320.01 701.721L1363.86 744.042C1367.56 747.633 1367.87 753.475 1364.56 757.434 1361.25 761.392 1355.45 762.125 1351.26 759.115L1301.83 723.467C1296.21 719.431 1288.75 719.023 1282.72 722.42L1280.41 723.75C1278.78 724.685 1276.75 724.508 1275.31 723.307L1230.35 685.686C1228.92 684.494 1228.38 682.54 1228.99 680.783L1229.88 678.238C1232.3 671.234 1230.16 663.462 1224.5 658.682L1181.61 617.293C1177.91 613.697 1177.6 607.863 1180.9 603.895ZM1220.3 667.292C1221.99 669.61 1222.44 672.603 1221.51 675.316L1220.63 677.896C1218.8 683.126 1220.41 688.939 1224.67 692.487L1269.63 730.072C1273.88 733.646 1279.91 734.198 1284.74 731.456L1287.09 730.126C1289.6 728.744 1292.62 728.66 1295.21 729.899L1280.67 791.297 1272.27 784.292C1277.03 776.006 1277.19 764.958 1272.62 752.656 1257.29 711.355 1197.18 677.36 1170.83 699.482L1162.44 692.46Z" fill="#FFFFFF"/><path d="M1221.53 733.632 1168.33 786.832C1167.18 787.946 1166.72 789.594 1167.12 791.144 1167.53 792.694 1168.74 793.904 1170.29 794.31 1171.84 794.716 1173.49 794.254 1174.6 793.101L1227.8 739.901C1229.48 738.161 1229.46 735.396 1227.75 733.686 1226.04 731.976 1223.27 731.952 1221.53 733.632Z" fill="#FFFFFF"/><path d="M1190.5 729.199 1155.03 764.666C1153.35 766.405 1153.38 769.17 1155.09 770.88 1156.8 772.591 1159.56 772.615 1161.3 770.934L1196.77 735.468C1198.45 733.728 1198.42 730.963 1196.71 729.253 1195 727.543 1192.24 727.519 1190.5 729.199Z" fill="#FFFFFF"/><path d="M1190.5 800.132C1189.35 801.246 1188.88 802.894 1189.29 804.444 1189.7 805.994 1190.91 807.204 1192.46 807.61 1194.01 808.016 1195.65 807.554 1196.77 806.401L1232.23 770.934C1233.91 769.195 1233.89 766.43 1232.18 764.72 1230.47 763.009 1227.71 762.985 1225.97 764.666Z" fill="#FFFFFF"/><path d="M1146.17 815.268C1147.9 816.999 1150.7 816.999 1152.43 815.268L1161.3 806.401C1162.98 804.661 1162.96 801.896 1161.25 800.186 1159.54 798.476 1156.77 798.452 1155.03 800.132L1146.17 808.999C1144.43 810.73 1144.43 813.536 1146.17 815.268Z" fill="#FFFFFF"/><path d="M1373.84 647.945C1376.2 648.587 1378.63 647.199 1379.28 644.841 1384.95 623.442 1378.81 600.642 1363.16 584.986 1347.51 569.331 1324.71 563.186 1303.31 568.854 1301.76 569.255 1300.55 570.455 1300.14 571.996 1299.72 573.537 1300.17 575.182 1301.31 576.303 1302.44 577.423 1304.09 577.846 1305.63 577.411 1323.96 572.57 1343.48 577.839 1356.89 591.246 1370.29 604.652 1375.56 624.174 1370.72 642.505 1370.08 644.868 1371.48 647.303 1373.84 647.945Z" fill="#FFFFFF"/><path d="M1356.78 643.392C1357.92 643.685 1359.13 643.514 1360.14 642.917 1361.15 642.319 1361.89 641.343 1362.18 640.204 1366.21 624.927 1361.82 608.66 1350.64 597.488 1339.47 586.316 1323.21 581.921 1307.93 585.949 1305.56 586.561 1304.13 588.981 1304.74 591.353 1305.35 593.726 1307.77 595.153 1310.15 594.541 1322.38 591.291 1335.43 594.801 1344.38 603.755 1353.33 612.708 1356.84 625.75 1353.59 637.988 1353.3 639.127 1353.47 640.337 1354.07 641.351 1354.66 642.364 1355.64 643.099 1356.78 643.392Z" fill="#FFFFFF"/><path d="M1339.58 638.817C1340.72 639.121 1341.93 638.962 1342.95 638.374 1343.97 637.787 1344.71 636.818 1345.01 635.682 1347.45 626.51 1344.81 616.736 1338.1 610.026 1331.39 603.316 1321.62 600.685 1312.45 603.119 1310.92 603.531 1309.72 604.728 1309.31 606.259 1308.91 607.79 1309.35 609.422 1310.47 610.542 1311.59 611.661 1313.22 612.096 1314.75 611.685 1320.87 610.054 1327.39 611.809 1331.87 616.288 1336.34 620.768 1338.09 627.293 1336.45 633.408 1335.83 635.766 1337.23 638.183 1339.58 638.817Z" fill="#FFFFFF"/></g></g></g></g></svg>